<?xml version="1.0" encoding="UTF-8"?>
<svg id="Fitness_One" data-name="Fitness One" xmlns="http://www.w3.org/2000/svg" viewBox="0 0 953.47 441.7">
  <defs>
    <style>
      .cls-1 {
        fill: #fff;
      }

      .cls-2 {
        fill: #0073b0;
      }

      .cls-3 {
        fill: #1d70b7;
      }

      .cls-4 {
        fill: #e20613;
      }
    </style>
  </defs>
  <g>
    <g>
      <polygon class="cls-4" points="260.46 181.82 330.67 181.82 327.03 195.97 277.85 195.97 275.42 204.46 297.79 204.46 294.02 218.07 271.92 218.07 265.45 240.57 244.7 240.57 260.46 181.82"/>
      <path class="cls-3" d="M265.45,246.61h-20.75c-1.88,0-3.65-.87-4.79-2.36-1.14-1.49-1.53-3.43-1.04-5.24l15.77-58.75c.71-2.64,3.1-4.48,5.84-4.48h70.2c1.87,0,3.63.86,4.78,2.34,1.14,1.48,1.54,3.4,1.08,5.21l-3.64,14.15c-.69,2.67-3.09,4.54-5.85,4.54h-23.71c.56,1.27.67,2.7.3,4.06l-3.77,13.61c-.73,2.62-3.11,4.43-5.82,4.43h-17.55l-5.21,18.13c-.74,2.59-3.11,4.37-5.81,4.37ZM252.58,234.53h8.32l5.21-18.13c.74-2.59,3.11-4.37,5.81-4.37h17.5l.42-1.52h-14.42c-1.9,0-3.68-.89-4.82-2.4s-1.51-3.48-.99-5.3l2.43-8.49c.74-2.59,3.11-4.38,5.81-4.38h44.5l.53-2.06h-57.77l-12.52,46.66Z"/>
    </g>
    <g>
      <polygon class="cls-4" points="338.35 181.82 358.96 181.82 343.47 240.57 322.45 240.57 338.35 181.82"/>
      <path class="cls-3" d="M343.47,246.61h-21.02c-1.88,0-3.66-.88-4.8-2.37-1.14-1.49-1.53-3.44-1.03-5.25l15.9-58.75c.71-2.63,3.1-4.46,5.83-4.46h20.62c1.87,0,3.64.87,4.79,2.35,1.14,1.48,1.53,3.42,1.06,5.23l-15.5,58.75c-.7,2.65-3.1,4.5-5.84,4.5ZM330.34,234.53h8.47l12.31-46.66h-8.15l-12.63,46.66Z"/>
    </g>
    <g>
      <polygon class="cls-4" points="366.51 181.82 430.92 181.82 427.28 195.16 404.64 195.16 392.65 240.57 371.76 240.57 383.49 197.05 362.33 197.05 366.51 181.82"/>
      <path class="cls-3" d="M392.65,246.61h-20.89c-1.88,0-3.65-.88-4.8-2.37-1.14-1.49-1.53-3.43-1.04-5.25l9.67-35.91h-13.27c-1.88,0-3.66-.88-4.8-2.38-1.14-1.5-1.52-3.45-1.02-5.26l4.18-15.23c.72-2.62,3.11-4.44,5.83-4.44h64.41c1.88,0,3.66.88,4.8,2.37,1.14,1.5,1.52,3.44,1.03,5.26l-3.64,13.34c-.72,2.63-3.1,4.45-5.83,4.45h-17.98l-10.8,40.91c-.7,2.65-3.1,4.5-5.84,4.5ZM379.65,234.53h8.35l10.8-40.91c.7-2.65,3.1-4.5,5.84-4.5h18.02l.34-1.25h-51.89l-.86,3.14h13.23c1.88,0,3.65.87,4.8,2.37,1.14,1.49,1.53,3.43,1.04,5.25l-9.67,35.91Z"/>
    </g>
    <g>
      <polygon class="cls-4" points="438.46 181.82 460.56 181.82 478.35 213.35 486.84 181.82 507.59 181.82 492.09 240.57 468.11 240.57 451.13 214.09 443.72 240.57 423.1 240.57 438.46 181.82"/>
      <path class="cls-3" d="M492.09,246.61h-23.98c-2.06,0-3.98-1.05-5.09-2.78l-9.7-15.14-3.78,13.5c-.73,2.61-3.11,4.41-5.82,4.41h-20.62c-1.87,0-3.64-.87-4.78-2.35-1.14-1.48-1.54-3.41-1.06-5.22l15.36-58.75c.7-2.66,3.1-4.51,5.85-4.51h22.1c2.18,0,4.19,1.17,5.26,3.07l10.53,18.66,4.65-17.27c.71-2.64,3.1-4.47,5.83-4.47h20.75c1.87,0,3.64.87,4.79,2.35,1.14,1.48,1.53,3.42,1.06,5.23l-15.5,58.75c-.7,2.65-3.1,4.5-5.84,4.5ZM471.41,234.53h16.03l12.31-46.66h-8.28l-7.29,27.06c-.64,2.37-2.65,4.12-5.08,4.42-2.43.31-4.81-.89-6.02-3.03l-16.05-28.46h-13.9l-12.2,46.66h8.21l6.18-22.07c.64-2.29,2.57-4,4.92-4.35,2.35-.35,4.7.71,5.98,2.71l15.19,23.7Z"/>
    </g>
    <g>
      <polygon class="cls-4" points="515.13 181.82 585.47 181.82 581.7 195.84 532.52 195.84 530.23 204.73 552.32 204.73 548.69 217.93 526.59 217.93 524.03 226.96 573.07 226.96 569.44 240.57 499.5 240.57 515.13 181.82"/>
      <path class="cls-3" d="M569.44,246.61h-69.93c-1.88,0-3.65-.87-4.79-2.36-1.14-1.49-1.53-3.42-1.05-5.24l15.63-58.75c.7-2.65,3.1-4.49,5.84-4.49h70.34c1.88,0,3.65.87,4.8,2.37,1.14,1.49,1.53,3.43,1.04,5.25l-3.77,14.01c-.71,2.64-3.1,4.47-5.83,4.47h-24.05c.73,1.36.91,2.95.5,4.46l-3.64,13.21c-.14.49-.33.95-.57,1.38h19.13c1.88,0,3.65.87,4.79,2.36,1.14,1.49,1.53,3.43,1.04,5.24l-3.64,13.61c-.71,2.64-3.1,4.48-5.84,4.48ZM507.36,234.53h57.43l.41-1.52h-41.18c-1.89,0-3.68-.89-4.82-2.4-1.14-1.51-1.51-3.47-.99-5.29l2.56-9.03c.74-2.6,3.11-4.39,5.81-4.39h17.5l.31-1.12h-14.17c-1.87,0-3.63-.86-4.78-2.34-1.14-1.48-1.54-3.4-1.08-5.21l2.29-8.89c.69-2.67,3.09-4.54,5.85-4.54h44.55l.52-1.93h-57.81l-12.42,46.66Z"/>
    </g>
    <g>
      <path class="cls-4" d="M654.01,194.54l4.04-13.62h-42.2s-18.86-1.8-24.24,9.43l-4.49,14.81s-4.19,10.92,10.48,11.82l33.97,1.05s4.94.15.9,7.03c0,0-1.05,1.5-2.84,1.8h-47.74l-3.89,12.87,54.32.84s14.52.65,19.9-9.82l4.34-13.92s4.64-12.42-11.22-12.72h-34.12s-3.89-6.88,2.39-9.58h40.4Z"/>
      <path class="cls-3" d="M632.82,246.62c-.3,0-.53,0-.66,0l-54.26-.84c-1.9-.03-3.67-.95-4.79-2.48-1.12-1.53-1.45-3.5-.9-5.31l3.89-12.87c.77-2.55,3.12-4.29,5.78-4.29h6.3c-2.36-1.19-4.22-2.83-5.54-4.88-3.43-5.33-1.76-11.19-1.26-12.66l4.45-14.68c.09-.3.2-.58.34-.86,1.39-2.89,3.46-5.36,6.17-7.34,2.15-1.57,4.71-2.84,7.61-3.76,4.84-1.54,9.77-1.86,13.05-1.86,1.48,0,2.58.07,3.11.11h41.95c1.91,0,3.7.9,4.84,2.43,1.14,1.53,1.49,3.51.95,5.33l-4.04,13.62c-.6,2.01-2.18,3.53-4.12,4.09,2.15,1.12,3.88,2.63,5.16,4.52,3.91,5.76,1.95,12.44,1.45,13.88l-4.31,13.81c-.1.33-.24.66-.4.96-2.74,5.33-7.58,9.27-14,11.38-4.73,1.56-9.11,1.73-10.77,1.73ZM632.57,234.53s.12,0,.25,0c1.07,0,10.34-.18,13.81-6.15l4.16-13.35c.05-.15.04-.16.09-.28.24-.74.46-2.39-.04-3.11-.45-.64-2.18-1.41-5.57-1.49h-34.06c-2.18,0-4.19-1.17-5.26-3.07-.54-.95-3.13-5.97-1.37-11.2.73-2.16,2.48-5.12,6.64-6.9.75-.32,1.56-.49,2.38-.49h35.89l.45-1.53h-34.1c-.2,0-.37,0-.56-.03-.09,0-.96-.08-2.3-.08-2.99,0-12.79.42-15.75,5.76l-4.33,14.3c-.06.2-.05.2-.12.36-.16.52-.31,1.64.03,2.14.32.47,1.74,1.31,5.07,1.53l33.87,1.04c2.39.07,5.56,1.26,7.28,4.37,1.78,3.23,1.33,7.19-1.36,11.76-.08.14-.17.27-.26.41-.42.6-2.71,3.61-6.8,4.29-.33.05-.66.08-.99.08h-43.25l-.27.91,46.31.72c.07,0,.1,0,.16,0Z"/>
    </g>
    <g>
      <path class="cls-4" d="M734.07,194.54l4.04-13.62h-42.2s-18.86-1.8-24.24,9.43l-4.49,14.81s-4.19,10.92,10.48,11.82l33.97,1.05s4.94.15.9,7.03c0,0-1.05,1.5-2.84,1.8h-47.74l-3.89,12.87,54.32.84s14.52.65,19.9-9.82l4.34-13.92s4.64-12.42-11.22-12.72h-34.12s-3.89-6.88,2.39-9.58h40.4Z"/>
      <path class="cls-3" d="M712.88,246.62c-.3,0-.53,0-.66,0l-54.26-.84c-1.9-.03-3.67-.95-4.79-2.48-1.12-1.53-1.45-3.5-.9-5.31l3.89-12.87c.77-2.55,3.12-4.29,5.78-4.29h6.3c-2.36-1.19-4.22-2.83-5.54-4.88-3.43-5.33-1.76-11.19-1.26-12.66l4.45-14.68c.09-.3.2-.58.34-.86,1.39-2.89,3.46-5.36,6.17-7.34,2.15-1.57,4.71-2.84,7.61-3.76,4.84-1.54,9.77-1.86,13.05-1.86,1.48,0,2.58.07,3.11.11h41.95c1.91,0,3.7.9,4.84,2.43,1.14,1.53,1.49,3.51.95,5.33l-4.04,13.62c-.6,2.01-2.18,3.53-4.12,4.09,2.15,1.12,3.88,2.63,5.16,4.52,3.91,5.75,1.95,12.44,1.45,13.88l-4.31,13.81c-.1.33-.24.66-.4.96-2.74,5.33-7.58,9.27-14,11.38-4.73,1.56-9.11,1.73-10.77,1.73ZM712.63,234.53s.12,0,.25,0c1.07,0,10.34-.18,13.81-6.15l4.16-13.35c.05-.15.04-.16.09-.28.24-.74.46-2.39-.04-3.11-.45-.64-2.18-1.41-5.57-1.49h-34.06c-2.18,0-4.19-1.17-5.26-3.07-.54-.95-3.13-5.97-1.37-11.2.73-2.16,2.48-5.12,6.64-6.9.75-.32,1.56-.49,2.38-.49h35.89l.45-1.53h-34.1c-.2,0-.37,0-.56-.03-.09,0-.96-.08-2.3-.08-2.99,0-12.79.42-15.75,5.76l-4.33,14.3c-.06.2-.05.2-.12.36-.16.52-.31,1.64.03,2.14.32.47,1.74,1.31,5.07,1.53l33.87,1.04c2.39.07,5.56,1.26,7.28,4.37,1.78,3.23,1.33,7.19-1.36,11.76-.08.14-.17.27-.26.41-.42.6-2.71,3.61-6.8,4.29-.33.05-.66.08-.99.08h-43.25l-.27.91,46.31.72c.07,0,.1,0,.16,0Z"/>
    </g>
  </g>
  <g>
    <g>
      <polygon class="cls-2" points="260.46 181.82 330.67 181.82 327.03 195.97 277.85 195.97 275.42 204.46 297.79 204.46 294.02 218.07 271.92 218.07 265.45 240.57 244.7 240.57 260.46 181.82"/>
      <path class="cls-2" d="M266.92,242.53h-24.78l16.82-62.67h74.23l-4.65,18.07h-49.22l-1.31,4.57h22.35l-4.86,17.53h-22.11l-6.47,22.5ZM247.25,238.61h16.72l6.47-22.5h22.08l2.69-9.69h-22.39l3.54-12.41h49.14l2.63-10.23h-66.17l-14.71,54.83Z"/>
    </g>
    <g>
      <polygon class="cls-2" points="338.35 181.82 358.96 181.82 343.47 240.57 322.45 240.57 338.35 181.82"/>
      <path class="cls-2" d="M344.98,242.53h-25.09l16.96-62.67h24.66l-16.53,62.67ZM325.01,238.61h16.95l14.46-54.83h-16.57l-14.84,54.83Z"/>
    </g>
    <g>
      <polygon class="cls-2" points="366.51 181.82 430.92 181.82 427.28 195.16 404.64 195.16 392.65 240.57 371.76 240.57 383.49 197.05 362.33 197.05 366.51 181.82"/>
      <path class="cls-2" d="M394.16,242.53h-24.95l11.72-43.52h-21.17l5.25-19.14h68.47l-4.71,17.26h-22.62l-11.99,45.41ZM374.32,238.61h16.82l11.99-45.41h22.65l2.57-9.42h-60.35l-3.1,11.31h21.14l-11.72,43.52Z"/>
    </g>
    <g>
      <polygon class="cls-2" points="438.46 181.82 460.56 181.82 478.35 213.35 486.84 181.82 507.59 181.82 492.09 240.57 468.11 240.57 451.13 214.09 443.72 240.57 423.1 240.57 438.46 181.82"/>
      <path class="cls-2" d="M493.6,242.53h-26.57l-15.2-23.71-6.63,23.71h-24.64l16.39-62.67h24.76l16,28.36,7.63-28.36h24.8l-16.53,62.67ZM469.18,238.61h21.4l14.46-54.83h-16.71l-9.34,34.71-19.58-34.71h-19.44l-14.34,54.83h16.59l8.19-29.26,18.76,29.26Z"/>
    </g>
    <g>
      <polygon class="cls-2" points="515.13 181.82 585.47 181.82 581.7 195.84 532.52 195.84 530.23 204.73 552.32 204.73 548.69 217.93 526.59 217.93 524.03 226.96 573.07 226.96 569.44 240.57 499.5 240.57 515.13 181.82"/>
      <path class="cls-2" d="M570.94,242.53h-73.99l16.67-62.67h74.4l-4.83,17.93h-49.17l-1.28,4.98h22.14l-4.72,17.12h-22.11l-1.45,5.11h49.01l-4.69,17.53ZM502.05,238.61h65.88l2.59-9.69h-49.09l3.67-12.95h22.09l2.56-9.29h-22.05l3.3-12.81h49.2l2.72-10.1h-66.27l-14.59,54.83Z"/>
    </g>
    <g>
      <path class="cls-2" d="M654.01,194.54l4.04-13.62h-42.2s-18.86-1.8-24.24,9.43l-4.49,14.81s-4.19,10.92,10.48,11.82l33.97,1.05s4.94.15.9,7.03c0,0-1.05,1.5-2.84,1.8h-47.74l-3.89,12.87,54.32.84s14.52.65,19.9-9.82l4.34-13.92s4.64-12.42-11.22-12.72h-34.12s-3.89-6.88,2.39-9.58h40.4Z"/>
      <path class="cls-2" d="M632.82,242.54c-.29,0-.48,0-.56,0l-56.89-.88,5.06-16.75h49c.74-.18,1.26-.76,1.41-.93,1.32-2.28,1.36-3.44,1.19-3.74-.09-.16-.5-.24-.52-.24l-34-1.05h-.03c-5.56-.34-9.4-2.09-11.4-5.21-2.53-3.93-1.06-8.5-.81-9.19l4.52-14.91.07-.14c2.02-4.2,5.83-7.22,11.33-8.97,4.34-1.38,8.82-1.67,11.81-1.67,1.55,0,2.62.08,2.95.11h44.74l-5.2,17.54h-41.44c-.98.49-1.59,1.12-1.87,1.94-.41,1.2-.07,2.69.31,3.72h32.89c5.84.11,9.91,1.79,12.1,5,2.93,4.3,1.18,9.63.95,10.3l-4.38,14.04-.08.15c-2.27,4.42-6.19,7.57-11.65,9.37-4.17,1.37-8.03,1.52-9.49,1.52ZM632.4,238.61s.15,0,.42,0c2.18,0,13.23-.42,17.58-8.62l4.3-13.8.02-.05s1.42-4-.51-6.81c-1.43-2.08-4.42-3.18-8.9-3.27h-35.24l-.56-1c-.24-.42-2.29-4.22-1.05-7.89.46-1.37,1.6-3.26,4.38-4.45l.37-.16h39.34l2.88-9.7h-39.76s-1.05-.11-2.68-.11c-4.65,0-15.83.81-19.55,8.29l-4.47,14.74-.02.05c-.05.15-1.16,3.33.43,5.78,1.29,1.99,4.09,3.13,8.31,3.39l33.94,1.05c.27,0,2.66.14,3.83,2.26,1.05,1.91.63,4.43-1.3,7.72l-.04.07-.04.06c-.16.22-1.59,2.18-4.13,2.6l-.16.03h-46.44l-2.72,8.99,51.75.8h.03Z"/>
    </g>
    <g>
      <path class="cls-2" d="M734.07,194.54l4.04-13.62h-42.2s-18.86-1.8-24.24,9.43l-4.49,14.81s-4.19,10.92,10.48,11.82l33.97,1.05s4.94.15.9,7.03c0,0-1.05,1.5-2.84,1.8h-47.74l-3.89,12.87,54.32.84s14.52.65,19.9-9.82l4.34-13.92s4.64-12.42-11.22-12.72h-34.12s-3.89-6.88,2.39-9.58h40.4Z"/>
      <path class="cls-2" d="M712.88,242.54c-.29,0-.48,0-.56,0l-56.89-.88,5.06-16.75h49c.73-.18,1.26-.76,1.41-.93,1.31-2.26,1.36-3.43,1.2-3.73-.08-.15-.41-.23-.56-.25l-33.97-1.05h-.03c-5.56-.34-9.4-2.09-11.4-5.21-2.53-3.93-1.06-8.5-.81-9.19l4.52-14.91.07-.14c2.02-4.2,5.83-7.22,11.33-8.97,4.34-1.38,8.82-1.67,11.81-1.67,1.55,0,2.62.08,2.95.11h44.74l-5.2,17.54h-41.44c-.98.49-1.59,1.12-1.87,1.94-.41,1.2-.07,2.69.31,3.72h32.89c5.84.11,9.91,1.79,12.1,5,2.93,4.3,1.18,9.63.95,10.3l-4.38,14.04-.08.15c-2.27,4.42-6.19,7.57-11.65,9.37-4.17,1.37-8.03,1.52-9.49,1.52ZM712.46,238.61s.15,0,.42,0c2.18,0,13.23-.42,17.58-8.62l4.3-13.8.02-.05s1.42-4-.51-6.81c-1.43-2.08-4.42-3.18-8.9-3.27h-35.24l-.56-1c-.24-.42-2.29-4.22-1.05-7.89.46-1.37,1.6-3.26,4.38-4.45l.37-.16h39.34l2.88-9.7h-39.76s-1.05-.11-2.68-.11c-4.65,0-15.83.81-19.55,8.29l-4.47,14.74-.02.05c-.05.15-1.16,3.33.43,5.78,1.29,1.99,4.09,3.13,8.31,3.39l33.94,1.05c.27,0,2.66.14,3.83,2.26,1.05,1.91.63,4.43-1.3,7.72l-.04.07-.05.06c-.16.22-1.59,2.18-4.13,2.6l-.16.03h-46.44l-2.72,8.99,51.75.8h.03Z"/>
    </g>
  </g>
  <g>
    <polygon class="cls-1" points="258.88 180.51 329.09 180.51 325.45 194.65 276.27 194.65 273.84 203.14 296.21 203.14 292.44 216.75 270.34 216.75 263.87 239.25 243.12 239.25 258.88 180.51"/>
    <polygon class="cls-1" points="336.77 180.51 357.38 180.51 341.89 239.25 320.87 239.25 336.77 180.51"/>
    <polygon class="cls-1" points="364.93 180.51 429.34 180.51 425.7 193.84 403.06 193.84 391.07 239.25 370.18 239.25 381.91 195.73 360.75 195.73 364.93 180.51"/>
    <polygon class="cls-1" points="436.88 180.51 458.98 180.51 476.77 212.04 485.26 180.51 506.01 180.51 490.51 239.25 466.53 239.25 449.55 212.77 442.14 239.25 421.52 239.25 436.88 180.51"/>
    <polygon class="cls-1" points="513.55 180.51 583.89 180.51 580.12 194.52 530.94 194.52 528.64 203.41 550.74 203.41 547.11 216.62 525.01 216.62 522.45 225.64 571.49 225.64 567.86 239.25 497.92 239.25 513.55 180.51"/>
    <path class="cls-1" d="M652.43,193.22l4.04-13.62h-42.2s-18.86-1.8-24.24,9.43l-4.49,14.81s-4.19,10.92,10.48,11.82l33.97,1.05s4.94.15.9,7.03c0,0-1.05,1.5-2.84,1.8h-47.74l-3.89,12.87,54.32.84s14.52.65,19.9-9.82l4.34-13.92s4.64-12.42-11.22-12.72h-34.12s-3.89-6.88,2.39-9.58h40.4Z"/>
    <path class="cls-1" d="M732.49,193.22l4.04-13.62h-42.2s-18.86-1.8-24.24,9.43l-4.49,14.81s-4.19,10.92,10.48,11.82l33.97,1.05s4.94.15.9,7.03c0,0-1.05,1.5-2.84,1.8h-47.74l-3.89,12.87,54.32.84s14.52.65,19.9-9.82l4.34-13.92s4.64-12.42-11.22-12.72h-34.12s-3.89-6.88,2.39-9.58h40.4Z"/>
  </g>
  <g>
    <g>
      <polygon class="cls-1" points="631.11 256.27 653.1 256.27 670.79 287.42 679.24 256.27 699.89 256.27 684.47 314.31 660.61 314.31 643.71 288.15 636.34 314.31 615.83 314.31 631.11 256.27"/>
      <path class="cls-1" d="M684.47,319.48h-23.86c-1.76,0-3.39-.89-4.35-2.37l-10.68-16.54-4.27,15.14c-.63,2.23-2.66,3.77-4.98,3.77h-20.51c-1.6,0-3.12-.74-4.1-2.01-.98-1.27-1.31-2.92-.91-4.47l15.28-58.04c.6-2.27,2.65-3.85,5-3.85h21.99c1.86,0,3.58,1,4.5,2.62l11.49,20.23,5.16-19.03c.61-2.25,2.66-3.82,4.99-3.82h20.65c1.61,0,3.12.75,4.1,2.02.98,1.27,1.31,2.93.9,4.48l-15.42,58.04c-.6,2.27-2.65,3.84-5,3.84ZM663.42,309.14h17.07l12.67-47.7h-9.96l-7.41,27.33c-.55,2.02-2.26,3.51-4.34,3.78-2.08.26-4.11-.75-5.15-2.58l-16.21-28.53h-14.99l-12.56,47.7h9.89l6.31-22.39c.55-1.96,2.2-3.41,4.21-3.71,2.01-.3,4.01.6,5.11,2.31l15.36,23.8Z"/>
    </g>
    <g>
      <polygon class="cls-1" points="707.64 256.3 777.62 256.3 773.87 270.14 724.93 270.14 722.65 278.93 744.64 278.93 741.02 291.97 719.03 291.97 716.49 300.89 765.29 300.89 761.67 314.34 692.09 314.34 707.64 256.3"/>
      <path class="cls-1" d="M761.67,319.51h-69.58c-1.61,0-3.12-.75-4.1-2.02-.98-1.28-1.31-2.93-.89-4.49l15.55-58.04c.61-2.26,2.65-3.83,5-3.83h69.98c1.61,0,3.13.75,4.11,2.03.98,1.28,1.31,2.94.88,4.5l-3.75,13.84c-.61,2.25-2.66,3.82-4.99,3.82h-25.53c.15.15.29.31.42.48.98,1.29,1.3,2.96.87,4.51l-3.62,13.05c-.26.93-.76,1.73-1.42,2.36h20.7c1.61,0,3.13.75,4.11,2.03.98,1.28,1.31,2.94.89,4.49l-3.62,13.44c-.61,2.26-2.66,3.83-4.99,3.83ZM698.83,309.16h58.88l.83-3.1h-42.05c-1.62,0-3.15-.76-4.13-2.06-.98-1.3-1.29-2.97-.84-4.54l2.55-8.92c.63-2.22,2.66-3.75,4.97-3.75h18.05l.75-2.7h-15.18c-1.6,0-3.11-.74-4.09-2.01-.98-1.27-1.32-2.91-.92-4.46l2.28-8.79c.59-2.28,2.65-3.87,5.01-3.87h44.98l.95-3.5h-59.25l-12.78,47.7Z"/>
    </g>
    <g>
      <path class="cls-1" d="M606.97,255.43s-26.55-.27-43.98,0c-17.02,1.22-18.79,13.66-18.79,13.66l-5.72,21.9s-3.13,10.82-3.81,16.9c-.41,6.08,11.98,6.08,11.98,6.08h46.57c15.25-1.76,17.84-12.44,17.84-12.44l9.4-36.78c2.59-10.95-13.48-9.33-13.48-9.33ZM596.49,276.25l-5.45,20.69s-1.91,3.79-5.99,3.38l-23.01.14s-4.49.27-3.54-4.46l5.58-21.77s.95-5.41,4.9-5.54l23.97.41s5.45,0,3.54,7.17Z"/>
      <path class="cls-1" d="M593.22,319.15h-46.57c-.25,0-2.5-.01-5.21-.46-4.28-.71-7.48-2.17-9.49-4.32-1.77-1.89-2.62-4.25-2.44-6.82,0-.08.01-.15.02-.23.7-6.26,3.67-16.67,3.97-17.7l5.65-21.65c.23-1.21,1.12-4.8,4.01-8.46,2.99-3.79,8.8-8.48,19.47-9.24.1,0,.19-.01.29-.01,5.17-.08,11.64-.12,19.23-.12,11.88,0,22.88.1,24.64.12.43-.03,1.25-.08,2.3-.08,4.67,0,10.97.93,14.49,5.39,1.54,1.94,3.12,5.32,1.92,10.39,0,.03-.01.06-.02.09l-9.39,36.76c-.19.76-1.17,4.14-4.34,7.72-2.93,3.31-8.42,7.5-17.92,8.59-.2.02-.39.03-.59.03ZM546.66,308.8h46.25c4.88-.61,8.6-2.34,11.07-5.13,1.55-1.76,2.05-3.34,2.05-3.35,0-.02.01-.04.02-.06l9.38-36.72c.17-.74.18-1.36.02-1.55-.45-.56-2.57-1.46-6.38-1.46-.9,0-1.52.05-1.59.06-.2.02-.36.03-.56.03-.12,0-11.93-.12-24.78-.12-7.47,0-13.83.04-18.92.12-5.26.4-9.18,2.07-11.66,4.97-1.71,2-2.18,3.98-2.25,4.29-.03.22-.05.3-.11.53l-5.72,21.9s-.02.09-.04.13c-.03.1-2.71,9.41-3.52,15.13.53.27,1.55.64,3.21.92,1.84.31,3.44.32,3.52.32ZM561.9,305.63c-1.32,0-4.62-.3-6.89-3.07-1.14-1.39-2.34-3.84-1.59-7.59.02-.09.04-.18.06-.26l5.55-21.63c.14-.66.54-2.31,1.46-4.01,1.85-3.46,4.8-5.43,8.32-5.55.09,0,.18,0,.26,0l23.95.41c.9.01,4.61.27,7.11,3.53,1.37,1.78,2.72,4.99,1.35,10.13l-5.45,20.68c-.09.35-.22.69-.38,1.01-.19.39-.94,1.75-2.35,3.11-2.34,2.25-5.29,3.34-8.46,3.12l-22.7.13c-.07,0-.15,0-.24,0ZM569.17,275.15c-.02.15-.04.2-.08.36l-5.07,19.76,21-.12c.18,0,.36,0,.54.03.03,0,.07,0,.1,0,.21,0,.44-.21.6-.37l5.23-19.87s0,0,0-.01c.07-.26.12-.49.15-.69l-21.99-.37c-.19.34-.39.87-.48,1.28Z"/>
    </g>
  </g>
  <g>
    <g>
      <polygon class="cls-2" points="631.11 256.27 653.1 256.27 670.79 287.42 679.24 256.27 699.89 256.27 684.47 314.31 660.61 314.31 643.71 288.15 636.34 314.31 615.83 314.31 631.11 256.27"/>
      <path class="cls-2" d="M685.98,316.27h-26.44l-15.12-23.41-6.6,23.41h-24.54l16.32-61.96h24.64l15.91,28.01,7.59-28.01h24.69l-16.46,61.96ZM661.67,312.35h21.29l14.38-54.12h-16.6l-9.3,34.29-19.48-34.29h-19.34l-14.25,54.12h16.49l8.15-28.91,18.67,28.91Z"/>
    </g>
    <g>
      <polygon class="cls-2" points="707.64 256.3 777.62 256.3 773.87 270.14 724.93 270.14 722.65 278.93 744.64 278.93 741.02 291.97 719.03 291.97 716.49 300.89 765.29 300.89 761.67 314.34 692.09 314.34 707.64 256.3"/>
      <path class="cls-3" d="M763.17,316.29h-73.64l16.6-61.96h74.05l-4.82,17.76h-48.92l-1.26,4.87h22.03l-4.71,16.96h-22l-1.43,5h48.76l-4.67,17.36ZM694.64,312.38h65.53l2.56-9.53h-48.84l3.67-12.84h21.98l2.53-9.13h-21.94l3.3-12.7h48.95l2.69-9.93h-65.92l-14.5,54.12Z"/>
    </g>
    <g>
      <path class="cls-2" d="M606.97,255.43s-26.55-.27-43.98,0c-17.02,1.22-18.79,13.66-18.79,13.66l-5.72,21.9s-3.13,10.82-3.81,16.9c-.41,6.08,11.98,6.08,11.98,6.08h46.57c15.25-1.76,17.84-12.44,17.84-12.44l9.4-36.78c2.59-10.95-13.48-9.33-13.48-9.33ZM596.49,276.25l-5.45,20.69s-1.91,3.79-5.99,3.38l-23.01.14s-4.49.27-3.54-4.46l5.58-21.77s.95-5.41,4.9-5.54l23.97.41s5.45,0,3.54,7.17Z"/>
      <path class="cls-2" d="M593.33,315.93h-46.68c-.9,0-8.93-.11-12.35-3.77-1.15-1.23-1.7-2.75-1.59-4.41v-.09c.69-6.09,3.67-16.48,3.88-17.2l5.69-21.79c.12-.7.8-3.89,3.39-7.17,1.66-2.11,3.78-3.85,6.29-5.16,3.07-1.6,6.73-2.57,10.88-2.86h.11c5.15-.08,11.6-.13,19.18-.13,12.27,0,23.59.11,24.76.12.29-.02,1.1-.08,2.18-.08,3.96,0,9.24.72,11.97,4.17,1.6,2.02,2.04,4.59,1.32,7.66v.03s-9.4,36.78-9.4,36.78c-.08.32-.89,3.27-3.63,6.37-2.56,2.89-7.39,6.55-15.88,7.53h-.11ZM536.62,308.06c-.03.56.14,1,.54,1.43,1.93,2.06,7.64,2.52,9.49,2.52h46.46c5.68-.67,10.1-2.71,13.14-6.06,2.22-2.44,2.87-4.75,2.91-4.89v-.02s0,0,0,0l9.39-36.76c.44-1.86.25-3.27-.58-4.31-1.35-1.7-4.59-2.68-8.9-2.68-1.14,0-1.9.07-1.91.08h-.11s-.11,0-.11,0c-.12,0-11.94-.12-24.81-.12-7.53,0-13.94.04-19.06.12-6.46.47-11.28,2.67-14.33,6.54-2.18,2.77-2.61,5.41-2.61,5.44l-.02.11-.03.11-5.73,21.93v.02c-.04.11-3.08,10.67-3.75,16.53ZM561.9,302.42c-.86,0-3.01-.18-4.41-1.89-.7-.86-1.43-2.4-.92-4.92l.02-.1,5.57-21.71c.07-.38.38-1.77,1.16-3.22,1.29-2.41,3.27-3.78,5.59-3.86h.05s.05,0,.05,0l23.96.41c.39,0,2.96.11,4.62,2.27,1.35,1.76,1.62,4.24.79,7.35l-5.5,20.88-.09.18c-.09.18-2.32,4.49-7.14,4.49-.23,0-.46-.01-.69-.03l-22.88.13s-.1,0-.18,0ZM560.41,296.43c-.15.75-.1,1.34.12,1.62.26.31.89.46,1.37.46,0,0,.02,0,.02,0h.07s.03,0,.03,0l23.12-.14h.1c.14.02.28.03.41.03,2.05,0,3.25-1.69,3.56-2.19l5.38-20.44c.48-1.81.45-3.21-.09-3.94-.5-.68-1.44-.76-1.57-.76h-.03s.01,0,.01,0l-23.91-.4c-2.23.12-2.99,3.89-3,3.92v.07s-.03.07-.03.07l-5.57,21.72Z"/>
    </g>
  </g>
  <g>
    <polygon class="cls-1" points="260.46 181.82 330.67 181.82 327.03 195.97 277.85 195.97 275.42 204.46 297.79 204.46 294.02 218.07 271.92 218.07 265.45 240.57 244.7 240.57 260.46 181.82"/>
    <polygon class="cls-1" points="338.35 181.82 358.96 181.82 343.47 240.57 322.45 240.57 338.35 181.82"/>
    <polygon class="cls-1" points="366.51 181.82 430.92 181.82 427.28 195.16 404.64 195.16 392.65 240.57 371.76 240.57 383.49 197.05 362.33 197.05 366.51 181.82"/>
    <polygon class="cls-1" points="438.46 181.82 460.56 181.82 478.35 213.35 486.84 181.82 507.59 181.82 492.09 240.57 468.11 240.57 451.13 214.09 443.72 240.57 423.1 240.57 438.46 181.82"/>
    <polygon class="cls-1" points="515.13 181.82 585.47 181.82 581.7 195.84 532.52 195.84 530.23 204.73 552.32 204.73 548.69 217.93 526.59 217.93 524.03 226.96 573.07 226.96 569.44 240.57 499.5 240.57 515.13 181.82"/>
    <path class="cls-1" d="M654.01,194.54l4.04-13.62h-42.2s-18.86-1.8-24.24,9.43l-4.49,14.81s-4.19,10.92,10.48,11.82l33.97,1.05s4.94.15.9,7.03c0,0-1.05,1.5-2.84,1.8h-47.74l-3.89,12.87,54.32.84s14.52.65,19.9-9.82l4.34-13.92s4.64-12.42-11.22-12.72h-34.12s-3.89-6.88,2.39-9.58h40.4Z"/>
    <path class="cls-1" d="M734.07,194.54l4.04-13.62h-42.2s-18.86-1.8-24.24,9.43l-4.49,14.81s-4.19,10.92,10.48,11.82l33.97,1.05s4.94.15.9,7.03c0,0-1.05,1.5-2.84,1.8h-47.74l-3.89,12.87,54.32.84s14.52.65,19.9-9.82l4.34-13.92s4.64-12.42-11.22-12.72h-34.12s-3.89-6.88,2.39-9.58h40.4Z"/>
  </g>
  <g>
    <polygon class="cls-1" points="631.11 256.27 653.1 256.27 670.79 287.42 679.24 256.27 699.89 256.27 684.47 314.31 660.61 314.31 643.71 288.15 636.34 314.31 615.83 314.31 631.11 256.27"/>
    <polygon class="cls-1" points="707.64 256.3 777.62 256.3 773.87 270.14 724.93 270.14 722.65 278.93 744.64 278.93 741.02 291.97 719.03 291.97 716.49 300.89 765.29 300.89 761.67 314.34 692.09 314.34 707.64 256.3"/>
    <path class="cls-1" d="M606.97,255.43s-26.55-.27-43.98,0c-17.02,1.22-18.79,13.66-18.79,13.66l-5.72,21.9s-3.13,10.82-3.81,16.9c-.41,6.08,11.98,6.08,11.98,6.08h46.57c15.25-1.76,17.84-12.44,17.84-12.44l9.4-36.78c2.59-10.95-13.48-9.33-13.48-9.33ZM596.49,276.25l-5.45,20.69s-1.91,3.79-5.99,3.38l-23.01.14s-4.49.27-3.54-4.46l5.58-21.77s.95-5.41,4.9-5.54l23.97.41s5.45,0,3.54,7.17Z"/>
  </g>
  <g>
    <polygon class="cls-4" points="629.2 254.36 651.19 254.36 668.88 285.51 677.33 254.36 697.98 254.36 682.56 312.4 658.7 312.4 641.8 286.24 634.43 312.4 613.92 312.4 629.2 254.36"/>
    <polygon class="cls-4" points="705.73 254.39 775.71 254.39 771.96 268.23 723.02 268.23 720.74 277.02 742.73 277.02 739.11 290.06 717.12 290.06 714.58 298.98 763.38 298.98 759.76 312.43 690.18 312.43 705.73 254.39"/>
    <path class="cls-4" d="M605.06,253.52s-26.55-.27-43.98,0c-17.02,1.22-18.79,13.66-18.79,13.66l-5.72,21.9s-3.13,10.82-3.81,16.9c-.41,6.08,11.98,6.08,11.98,6.08h46.57c15.25-1.76,17.84-12.44,17.84-12.44l9.4-36.78c2.59-10.95-13.48-9.33-13.48-9.33ZM594.58,274.34l-5.45,20.69s-1.91,3.79-5.99,3.38l-23.01.14s-4.49.27-3.54-4.46l5.58-21.77s.95-5.41,4.9-5.54l23.97.41s5.45,0,3.54,7.17Z"/>
  </g>
  <g>
    <g>
      <path class="cls-1" d="M269.63,258.39l-2.08,6.16h-4.75l-8.32,24.63h-8.01l8.32-24.63h-4.74l2.08-6.16h17.5Z"/>
      <path class="cls-1" d="M254.48,291.58h-8.01c-.78,0-1.5-.37-1.96-1-.45-.63-.57-1.44-.33-2.17l7.24-21.45h-1.38c-.78,0-1.5-.37-1.96-1-.45-.63-.57-1.44-.32-2.17l2.08-6.16c.33-.98,1.25-1.64,2.28-1.64h17.5c.78,0,1.5.37,1.96,1,.45.63.57,1.44.33,2.17l-2.08,6.16c-.33.98-1.25,1.64-2.28,1.64h-3.03l-7.76,22.99c-.33.98-1.25,1.64-2.28,1.64ZM249.83,286.77h2.93l7.76-22.99c.33-.98,1.25-1.64,2.28-1.64h3.03l.46-1.35h-12.41l-.46,1.35h1.38c.78,0,1.5.37,1.96,1,.45.63.57,1.44.33,2.17l-7.24,21.45Z"/>
    </g>
    <g>
      <path class="cls-1" d="M271.46,258.39h5.67c3.78,0,6.29.15,7.53.44,1.24.29,2.08,1.04,2.52,2.23.44,1.2.21,3.11-.67,5.73-.81,2.4-1.65,4.01-2.53,4.83-.87.82-2.21,1.32-4.02,1.48,1.45.39,2.34.92,2.66,1.58.32.66.46,1.26.4,1.82-.05.55-.5,2.07-1.34,4.55l-2.74,8.12h-7.44l3.46-10.23c.56-1.65.77-2.67.64-3.06-.13-.39-.74-.59-1.85-.59l-4.69,13.88h-8.01l10.4-30.79ZM277.68,263.66l-2.31,6.85c.9,0,1.57-.12,2.02-.37.44-.25.9-1.05,1.35-2.41l.57-1.69c.33-.98.37-1.62.13-1.92-.25-.3-.83-.46-1.76-.46Z"/>
      <path class="cls-1" d="M278.93,291.58h-7.44c-.43,0-.85-.12-1.22-.33-.36.21-.78.33-1.22.33h-8.01c-.78,0-1.5-.37-1.96-1-.45-.63-.57-1.44-.33-2.17l10.4-30.79c.33-.98,1.25-1.64,2.28-1.64h5.67c5.33,0,7.16.29,8.08.5,2.04.48,3.5,1.78,4.23,3.75.65,1.77.44,4.1-.65,7.33-.96,2.84-1.96,4.69-3.15,5.81-.22.2-.45.39-.7.57.41.95.58,1.89.49,2.79-.06.57-.27,1.59-1.45,5.09l-2.74,8.12c-.33.98-1.25,1.64-2.28,1.64ZM274.85,286.77h2.35l2.19-6.48c1.04-3.08,1.2-3.87,1.22-4.02,0-.03,0-.14-.1-.37-.13-.08-.47-.27-1.2-.46-1.12-.3-1.87-1.37-1.77-2.53,0-.09.02-.18.04-.26-.63.18-1.37.28-2.22.28-.78,0-1.5-.37-1.96-1-.45-.63-.57-1.44-.33-2.17l2.31-6.85c.33-.98,1.25-1.64,2.28-1.64,1.09,0,2.65.14,3.63,1.35,1.2,1.49.53,3.46.28,4.2l-.57,1.69c-.3.89-.61,1.61-.95,2.18,1.32-.16,1.95-.52,2.24-.8.26-.25.97-1.12,1.9-3.85,1.03-3.05.73-4.03.69-4.14-.16-.44-.36-.61-.81-.72-.59-.14-2.29-.37-6.97-.37h-3.94l-8.77,25.97h2.93l4.14-12.25c.33-.98,1.25-1.64,2.28-1.64,2.26,0,3.65.76,4.13,2.25.32,1,.15,2.19-.65,4.57l-2.38,7.05Z"/>
    </g>
    <g>
      <path class="cls-1" d="M306.27,258.39l-5.82,30.79h-8.18l1.44-5.53h-2.86l-2.35,5.53h-8.28l14.48-30.79h11.57ZM295.34,278.19c.77-3.49,1.82-7.8,3.15-12.93-2.81,5.9-4.77,10.21-5.9,12.93h2.76Z"/>
      <path class="cls-1" d="M300.45,291.58h-8.18c-.74,0-1.43-.34-1.89-.91-.45.57-1.14.91-1.89.91h-8.28c-.82,0-1.59-.42-2.03-1.12-.44-.7-.5-1.57-.15-2.31l14.48-30.79c.4-.84,1.25-1.38,2.18-1.38h11.57c.72,0,1.4.32,1.85.87.46.55.64,1.28.51,1.98l-5.82,30.79c-.21,1.14-1.21,1.96-2.36,1.96ZM295.38,286.77h3.07l4.91-25.97h-7.14l-12.22,25.97h2.89l1.73-4.07c.38-.89,1.25-1.47,2.22-1.47h2.86c.75,0,1.45.35,1.9.93s.61,1.36.43,2.08l-.66,2.52ZM295.34,280.59h-2.76c-.8,0-1.55-.4-2-1.07-.45-.67-.53-1.52-.22-2.26,1.14-2.75,3.14-7.14,5.95-13.04.53-1.12,1.83-1.65,3-1.23,1.17.42,1.82,1.66,1.51,2.86-1.31,5.09-2.37,9.41-3.13,12.85-.24,1.1-1.22,1.89-2.35,1.89Z"/>
    </g>
    <g>
      <path class="cls-1" d="M320.21,258.39l-10.4,30.79h-8.01l10.4-30.79h8.01Z"/>
      <path class="cls-1" d="M309.82,291.58h-8.01c-.78,0-1.5-.37-1.96-1-.45-.63-.57-1.44-.32-2.17l10.4-30.79c.33-.98,1.25-1.64,2.28-1.64h8.01c.78,0,1.5.37,1.96,1,.45.63.57,1.44.32,2.17l-10.4,30.79c-.33.98-1.25,1.64-2.28,1.64ZM305.16,286.77h2.93l8.77-25.97h-2.93l-8.77,25.97Z"/>
    </g>
    <g>
      <path class="cls-1" d="M341.3,258.39l-10.4,30.79h-7.02l.56-14-4.73,14h-6.69l10.4-30.79h6.69l-.19,13.86,4.68-13.86h6.69Z"/>
      <path class="cls-1" d="M330.91,291.58h-7.02c-.66,0-1.28-.27-1.74-.74-.13-.14-.25-.29-.35-.46-.42.73-1.21,1.2-2.08,1.2h-6.69c-.78,0-1.5-.37-1.96-1-.45-.63-.57-1.44-.33-2.17l10.4-30.79c.33-.98,1.25-1.64,2.28-1.64h6.69c.64,0,1.26.26,1.71.72.23.24.41.52.53.82.36-.92,1.25-1.54,2.24-1.54h6.69c.78,0,1.5.37,1.96,1,.45.63.57,1.44.33,2.17l-10.4,30.79c-.33.98-1.25,1.64-2.28,1.64ZM326.39,286.77h2.78l8.77-25.97h-1.61l-4.13,12.23c-.38,1.12-1.52,1.8-2.69,1.6-1.17-.2-2.02-1.22-2-2.41l.16-11.42h-2.53l-8.77,25.97h1.61l4.17-12.36c.38-1.13,1.54-1.81,2.72-1.6,1.18.22,2.02,1.27,1.97,2.46l-.46,11.49Z"/>
    </g>
    <g>
      <path class="cls-1" d="M352.52,258.39l-10.4,30.79h-8.01l10.4-30.79h8.01Z"/>
      <path class="cls-1" d="M342.12,291.58h-8.01c-.78,0-1.5-.37-1.96-1-.45-.63-.57-1.44-.32-2.17l10.4-30.79c.33-.98,1.25-1.64,2.28-1.64h8.01c.78,0,1.5.37,1.96,1,.45.63.57,1.44.32,2.17l-10.4,30.79c-.33.98-1.25,1.64-2.28,1.64ZM337.47,286.77h2.93l8.77-25.97h-2.93l-8.77,25.97Z"/>
    </g>
    <g>
      <path class="cls-1" d="M373.61,258.39l-10.4,30.79h-7.02l.56-14-4.73,14h-6.69l10.4-30.79h6.69l-.19,13.86,4.68-13.86h6.69Z"/>
      <path class="cls-1" d="M363.21,291.58h-7.02c-.66,0-1.28-.27-1.74-.74-.13-.14-.25-.29-.35-.46-.42.73-1.21,1.2-2.08,1.2h-6.69c-.78,0-1.5-.37-1.96-1-.45-.63-.57-1.44-.32-2.17l10.4-30.79c.33-.98,1.25-1.64,2.28-1.64h6.69c.64,0,1.26.26,1.71.72.23.24.41.52.53.82.36-.92,1.25-1.54,2.24-1.54h6.69c.78,0,1.5.37,1.96,1,.45.63.57,1.44.33,2.17l-10.4,30.79c-.33.98-1.25,1.64-2.28,1.64ZM358.7,286.77h2.78l8.77-25.97h-1.61l-4.13,12.23c-.38,1.12-1.52,1.8-2.69,1.6-1.17-.2-2.02-1.22-2-2.41l.16-11.42h-2.53l-8.77,25.97h1.61l4.17-12.36c.38-1.13,1.54-1.81,2.72-1.6,1.18.22,2.02,1.27,1.97,2.46l-.46,11.49Z"/>
    </g>
    <g>
      <path class="cls-1" d="M391.37,269.72h-8.01l.94-2.8c.6-1.76.89-2.86.89-3.31,0-.44-.29-.67-.86-.67-.49,0-.89.19-1.2.57-.31.38-.72,1.36-1.26,2.93l-4.99,14.78c-.47,1.38-.69,2.29-.66,2.73.03.44.31.66.84.66.58,0,1.06-.25,1.44-.74.38-.49.81-1.46,1.29-2.89l1.23-3.65h-1.62l1.58-4.68h9.38l-5.58,16.53h-5.03v-2.21c-.86.95-1.79,1.66-2.78,2.14-.99.48-2.05.71-3.18.71-1.35,0-2.49-.33-3.45-.98s-1.57-1.46-1.85-2.42c-.28-.96-.32-1.97-.12-3.03.21-1.06.67-2.65,1.38-4.76l3.09-9.15c.99-2.94,1.87-5.08,2.64-6.41.77-1.33,2.09-2.55,3.97-3.66,1.88-1.11,4.01-1.66,6.39-1.66s4.13.48,5.35,1.45c1.22.96,1.84,2.11,1.86,3.43.02,1.32-.39,3.25-1.25,5.77l-.45,1.33Z"/>
      <path class="cls-1" d="M373.8,292.23c-1.83,0-3.45-.47-4.81-1.4-1.42-.97-2.36-2.23-2.8-3.73-.39-1.33-.45-2.74-.17-4.17.23-1.18.71-2.84,1.46-5.08l3.09-9.15c1.05-3.12,1.98-5.36,2.83-6.84.97-1.69,2.6-3.21,4.83-4.53,2.24-1.33,4.81-2,7.62-2s5.19.66,6.84,1.96c2.26,1.78,2.76,3.86,2.78,5.28.03,1.62-.42,3.77-1.37,6.58l-.45,1.33c-.19.55-.56,1-1.03,1.28.2.52.22,1.1.04,1.64l-5.58,16.53c-.33.98-1.25,1.64-2.28,1.64h-5.03c-.51,0-1.01-.16-1.42-.46-.11.06-.21.11-.32.16-1.31.63-2.73.95-4.22.95ZM385.85,260.15c-1.96,0-3.65.43-5.17,1.33-1.51.89-2.55,1.83-3.1,2.79-.68,1.19-1.51,3.2-2.45,5.98l-3.09,9.15c-.68,2.01-1.11,3.5-1.3,4.45-.13.68-.11,1.3.06,1.89.08.27.26.68.91,1.12.55.38,1.23.56,2.09.56.77,0,1.47-.16,2.14-.48.04-.02.08-.04.12-.06-1.26-.36-2.14-1.4-2.23-2.76-.06-.8.17-1.86.78-3.66l4.99-14.78c.82-2.43,1.28-3.2,1.66-3.67.76-.95,1.85-1.47,3.07-1.47,2.13,0,3.26,1.54,3.27,3.06,0,.61-.15,1.49-.89,3.71h2.93c.86-2.6,1.03-3.97,1.02-4.66,0-.39-.12-.93-.95-1.58-.77-.61-2.1-.93-3.86-.93ZM382.17,286.77h.9l3.96-11.71h-4.29l-.14.43c.15.13.29.28.41.44.45.63.57,1.44.32,2.17l-1.23,3.65c-.46,1.36-.87,2.33-1.29,3.04.78.37,1.31,1.12,1.38,1.98Z"/>
    </g>
    <g>
      <path class="cls-1" d="M419.33,271.8h-8.01l1.81-5.35c.53-1.56.77-2.53.73-2.91-.04-.39-.35-.58-.94-.58-.66,0-1.16.23-1.49.7-.34.47-.77,1.48-1.29,3.04l-4.83,14.3c-.51,1.5-.75,2.47-.72,2.93.02.46.35.68.97.68s1.06-.23,1.4-.69c.34-.46.79-1.53,1.36-3.22l1.31-3.87h8.01l-.41,1.2c-1.08,3.19-2.06,5.45-2.96,6.78-.9,1.33-2.29,2.5-4.17,3.5-1.88,1-3.95,1.5-6.2,1.5s-4.14-.42-5.37-1.27c-1.23-.85-1.85-2.03-1.83-3.53.01-1.5.53-3.76,1.55-6.78l3.04-8.99c.75-2.22,1.39-3.88,1.91-4.99.53-1.11,1.34-2.18,2.44-3.2,1.1-1.03,2.42-1.84,3.96-2.42,1.54-.59,3.17-.88,4.91-.88,2.36,0,4.15.46,5.38,1.37,1.23.91,1.85,2.05,1.87,3.41.02,1.36-.45,3.48-1.42,6.35l-.99,2.92Z"/>
      <path class="cls-1" d="M403.88,292.23c-2.87,0-5.07-.56-6.73-1.7-1.9-1.31-2.89-3.22-2.87-5.53.02-1.78.56-4.24,1.67-7.53l3.04-8.99c.79-2.33,1.45-4.05,2.02-5.25.66-1.38,1.66-2.7,2.97-3.93,1.32-1.23,2.92-2.21,4.74-2.91,1.8-.69,3.75-1.04,5.77-1.04,2.92,0,5.14.6,6.81,1.84,1.83,1.36,2.81,3.19,2.84,5.3.03,1.65-.48,4-1.55,7.16l-.99,2.92c-.33.98-1.25,1.64-2.28,1.64h-8.01c-.39,0-.76-.09-1.09-.26l-.16.49h7.56c.78,0,1.5.37,1.96,1,.45.63.57,1.44.32,2.17l-.41,1.2c-1.16,3.42-2.22,5.83-3.25,7.36-1.12,1.66-2.81,3.1-5.03,4.28-2.22,1.19-4.69,1.79-7.34,1.79ZM414.49,260.15c-1.43,0-2.79.24-4.05.72-1.24.48-2.31,1.13-3.18,1.94-.87.81-1.52,1.65-1.91,2.48-.48,1.02-1.09,2.61-1.81,4.73l-3.04,8.99c-1.16,3.44-1.41,5.18-1.42,6.03,0,.7.22,1.13.79,1.52.81.56,2.19.85,4.01.85s3.53-.4,5.07-1.22c1.52-.81,2.63-1.73,3.31-2.73.43-.63,1.09-1.86,1.98-4.23h-2.89l-.75,2.23c-.86,2.55-1.35,3.39-1.71,3.88-.79,1.07-1.98,1.66-3.34,1.66-2.21,0-3.3-1.54-3.37-2.97-.03-.59.05-1.47.85-3.82l4.83-14.3c.8-2.37,1.29-3.21,1.62-3.67.79-1.1,2.01-1.71,3.45-1.71,2.1,0,3.18,1.37,3.33,2.73.07.68-.04,1.58-.84,3.94l-.73,2.17h2.93l.44-1.29c1.15-3.41,1.31-4.94,1.3-5.54,0-.42-.12-.93-.9-1.52-.78-.58-2.15-.89-3.94-.89Z"/>
    </g>
    <g>
      <path class="cls-1" d="M426.72,258.39h13.35l-2.08,6.16h-5.34l-1.97,5.84h5l-1.98,5.86h-5l-2.29,6.77h5.88l-2.08,6.16h-13.88l10.4-30.79Z"/>
      <path class="cls-1" d="M430.21,291.58h-13.88c-.78,0-1.5-.37-1.96-1-.45-.63-.57-1.44-.32-2.17l10.4-30.79c.33-.98,1.25-1.64,2.28-1.64h13.35c.78,0,1.5.37,1.96,1,.45.63.57,1.44.32,2.17l-2.08,6.16c-.33.98-1.25,1.64-2.28,1.64h-3.62l-.35,1.02h1.65c.78,0,1.5.37,1.96,1,.45.63.57,1.44.32,2.17l-1.98,5.86c-.33.98-1.25,1.64-2.28,1.64h-3.27l-.66,1.96h2.52c.78,0,1.5.37,1.96,1,.45.63.57,1.44.32,2.17l-2.08,6.16c-.33.98-1.25,1.64-2.28,1.64ZM419.68,286.77h8.8l.46-1.35h-2.52c-.78,0-1.5-.37-1.96-1-.45-.63-.57-1.44-.32-2.17l2.29-6.77c.33-.98,1.25-1.64,2.28-1.64h3.27l.35-1.04h-1.65c-.78,0-1.5-.37-1.96-1-.45-.63-.57-1.44-.32-2.17l1.97-5.84c.33-.98,1.25-1.64,2.28-1.64h3.62l.46-1.35h-8.27l-8.77,25.97Z"/>
    </g>
    <g>
      <path class="cls-1" d="M460.78,258.39l-10.4,30.79h-7.02l.56-14-4.73,14h-6.69l10.4-30.79h6.69l-.19,13.86,4.68-13.86h6.69Z"/>
      <path class="cls-1" d="M450.38,291.58h-7.02c-.66,0-1.28-.27-1.74-.74-.13-.14-.25-.29-.35-.46-.42.73-1.21,1.2-2.08,1.2h-6.69c-.78,0-1.5-.37-1.96-1-.45-.63-.57-1.44-.33-2.17l10.4-30.79c.33-.98,1.25-1.64,2.28-1.64h6.69c.64,0,1.26.26,1.71.72.23.24.41.52.53.82.36-.92,1.25-1.54,2.24-1.54h6.69c.78,0,1.5.37,1.96,1,.45.63.57,1.44.32,2.17l-10.4,30.79c-.33.98-1.25,1.64-2.28,1.64ZM445.87,286.77h2.78l8.77-25.97h-1.61l-4.13,12.23c-.38,1.12-1.52,1.8-2.69,1.6-1.17-.2-2.02-1.22-2-2.41l.16-11.42h-2.53l-8.77,25.97h1.61l4.17-12.36c.38-1.13,1.54-1.81,2.72-1.6,1.18.22,2.02,1.27,1.97,2.46l-.46,11.49Z"/>
    </g>
    <g>
      <path class="cls-1" d="M480.12,258.39l-2.08,6.16h-4.75l-8.32,24.63h-8.01l8.32-24.63h-4.74l2.08-6.16h17.5Z"/>
      <path class="cls-1" d="M464.97,291.58h-8.01c-.78,0-1.5-.37-1.96-1-.45-.63-.57-1.44-.32-2.17l7.24-21.45h-1.38c-.78,0-1.5-.37-1.96-1-.45-.63-.57-1.44-.32-2.17l2.08-6.16c.33-.98,1.25-1.64,2.28-1.64h17.5c.78,0,1.5.37,1.96,1,.45.63.57,1.44.32,2.17l-2.08,6.16c-.33.98-1.25,1.64-2.28,1.64h-3.03l-7.76,22.99c-.33.98-1.25,1.64-2.28,1.64ZM460.32,286.77h2.93l7.76-22.99c.33-.98,1.25-1.64,2.28-1.64h3.03l.46-1.35h-12.41l-.46,1.35h1.38c.78,0,1.5.37,1.96,1,.45.63.57,1.44.32,2.17l-7.24,21.45Z"/>
    </g>
    <g>
      <path class="cls-1" d="M481.95,258.39h13.35l-2.08,6.16h-5.34l-1.97,5.84h5l-1.98,5.86h-5l-2.29,6.77h5.88l-2.08,6.16h-13.88l10.4-30.79Z"/>
      <path class="cls-1" d="M485.43,291.58h-13.88c-.78,0-1.5-.37-1.96-1-.45-.63-.57-1.44-.32-2.17l10.4-30.79c.33-.98,1.25-1.64,2.28-1.64h13.35c.78,0,1.5.37,1.96,1,.45.63.57,1.44.32,2.17l-2.08,6.16c-.33.98-1.25,1.64-2.28,1.64h-3.62l-.35,1.02h1.65c.78,0,1.5.37,1.96,1,.45.63.57,1.44.33,2.17l-1.98,5.86c-.33.98-1.25,1.64-2.28,1.64h-3.27l-.66,1.96h2.52c.78,0,1.5.37,1.96,1,.45.63.57,1.44.32,2.17l-2.08,6.16c-.33.98-1.25,1.64-2.28,1.64ZM474.9,286.77h8.8l.46-1.35h-2.52c-.78,0-1.5-.37-1.96-1-.45-.63-.57-1.44-.32-2.17l2.29-6.77c.33-.98,1.25-1.64,2.28-1.64h3.27l.35-1.04h-1.65c-.78,0-1.5-.37-1.96-1-.45-.63-.57-1.44-.32-2.17l1.97-5.84c.33-.98,1.25-1.64,2.28-1.64h3.62l.46-1.35h-8.27l-8.77,25.97Z"/>
    </g>
    <g>
      <path class="cls-1" d="M498.13,258.39h5.67c3.78,0,6.29.15,7.53.44,1.24.29,2.08,1.04,2.52,2.23.44,1.2.21,3.11-.67,5.73-.81,2.4-1.65,4.01-2.53,4.83-.87.82-2.21,1.32-4.02,1.48,1.45.39,2.34.92,2.66,1.58.32.66.46,1.26.4,1.82-.05.55-.5,2.07-1.34,4.55l-2.74,8.12h-7.44l3.46-10.23c.56-1.65.77-2.67.64-3.06-.13-.39-.74-.59-1.85-.59l-4.69,13.88h-8.01l10.4-30.79ZM504.36,263.66l-2.31,6.85c.9,0,1.57-.12,2.02-.37.44-.25.9-1.05,1.35-2.41l.57-1.69c.33-.98.37-1.62.13-1.92-.25-.3-.83-.46-1.76-.46Z"/>
      <path class="cls-1" d="M505.61,291.58h-7.44c-.43,0-.85-.12-1.22-.33-.36.21-.78.33-1.22.33h-8.01c-.78,0-1.5-.37-1.96-1-.45-.63-.57-1.44-.32-2.17l10.4-30.79c.33-.98,1.25-1.64,2.28-1.64h5.67c5.33,0,7.16.29,8.08.5,2.04.48,3.5,1.78,4.23,3.75.65,1.77.44,4.1-.65,7.33-.96,2.84-1.96,4.69-3.15,5.81-.22.2-.45.39-.7.57.41.95.58,1.89.49,2.79-.06.57-.27,1.59-1.45,5.09l-2.74,8.12c-.33.98-1.25,1.64-2.28,1.64ZM501.53,286.77h2.35l2.19-6.48c1.04-3.08,1.2-3.87,1.22-4.02,0-.03,0-.14-.1-.37-.13-.08-.47-.27-1.2-.46-1.12-.3-1.87-1.37-1.77-2.53,0-.09.02-.18.04-.26-.63.18-1.37.28-2.22.28-.78,0-1.5-.37-1.96-1-.45-.63-.57-1.44-.32-2.17l2.31-6.85c.33-.98,1.25-1.64,2.28-1.64,1.09,0,2.65.14,3.63,1.35,1.2,1.49.53,3.46.28,4.2l-.57,1.69c-.3.89-.61,1.61-.95,2.18,1.32-.16,1.95-.52,2.24-.8.26-.25.97-1.12,1.9-3.85,1.03-3.05.73-4.03.69-4.14-.16-.44-.36-.61-.81-.72-.59-.14-2.29-.37-6.97-.37h-3.94l-8.77,25.97h2.93l4.14-12.25c.33-.98,1.25-1.64,2.28-1.64,2.26,0,3.65.76,4.13,2.25.32,1,.15,2.19-.65,4.57l-2.38,7.05Z"/>
    </g>
  </g>
  <g>
    <path class="cls-2" d="M269.63,258.39l-2.08,6.16h-4.75l-8.32,24.63h-8.01l8.32-24.63h-4.74l2.08-6.16h17.5Z"/>
    <path class="cls-2" d="M271.46,258.39h5.67c3.78,0,6.29.15,7.53.44,1.24.29,2.08,1.04,2.52,2.23.44,1.2.21,3.11-.67,5.73-.81,2.4-1.65,4.01-2.53,4.83-.87.82-2.21,1.32-4.02,1.48,1.45.39,2.34.92,2.66,1.58.32.66.46,1.26.4,1.82-.05.55-.5,2.07-1.34,4.55l-2.74,8.12h-7.44l3.46-10.23c.56-1.65.77-2.67.64-3.06-.13-.39-.74-.59-1.85-.59l-4.69,13.88h-8.01l10.4-30.79ZM277.68,263.66l-2.31,6.85c.9,0,1.57-.12,2.02-.37.44-.25.9-1.05,1.35-2.41l.57-1.69c.33-.98.37-1.62.13-1.92-.25-.3-.83-.46-1.76-.46Z"/>
    <path class="cls-2" d="M306.27,258.39l-5.82,30.79h-8.18l1.44-5.53h-2.86l-2.35,5.53h-8.28l14.48-30.79h11.57ZM295.34,278.19c.77-3.49,1.82-7.8,3.15-12.93-2.81,5.9-4.77,10.21-5.9,12.93h2.76Z"/>
    <path class="cls-2" d="M320.21,258.39l-10.4,30.79h-8.01l10.4-30.79h8.01Z"/>
    <path class="cls-2" d="M341.3,258.39l-10.4,30.79h-7.02l.56-14-4.73,14h-6.69l10.4-30.79h6.69l-.19,13.86,4.68-13.86h6.69Z"/>
    <path class="cls-2" d="M352.52,258.39l-10.4,30.79h-8.01l10.4-30.79h8.01Z"/>
    <path class="cls-2" d="M373.61,258.39l-10.4,30.79h-7.02l.56-14-4.73,14h-6.69l10.4-30.79h6.69l-.19,13.86,4.68-13.86h6.69Z"/>
    <path class="cls-2" d="M391.37,269.72h-8.01l.94-2.8c.6-1.76.89-2.86.89-3.31,0-.44-.29-.67-.86-.67-.49,0-.89.19-1.2.57-.31.38-.72,1.36-1.26,2.93l-4.99,14.78c-.47,1.38-.69,2.29-.66,2.73.03.44.31.66.84.66.58,0,1.06-.25,1.44-.74.38-.49.81-1.46,1.29-2.89l1.23-3.65h-1.62l1.58-4.68h9.38l-5.58,16.53h-5.03v-2.21c-.86.95-1.79,1.66-2.78,2.14-.99.48-2.05.71-3.18.71-1.35,0-2.49-.33-3.45-.98s-1.57-1.46-1.85-2.42c-.28-.96-.32-1.97-.12-3.03.21-1.06.67-2.65,1.38-4.76l3.09-9.15c.99-2.94,1.87-5.08,2.64-6.41.77-1.33,2.09-2.55,3.97-3.66,1.88-1.11,4.01-1.66,6.39-1.66s4.13.48,5.35,1.45c1.22.96,1.84,2.11,1.86,3.43.02,1.32-.39,3.25-1.25,5.77l-.45,1.33Z"/>
    <path class="cls-2" d="M419.33,271.8h-8.01l1.81-5.35c.53-1.56.77-2.53.73-2.91-.04-.39-.35-.58-.94-.58-.66,0-1.16.23-1.49.7-.34.47-.77,1.48-1.29,3.04l-4.83,14.3c-.51,1.5-.75,2.47-.72,2.93.02.46.35.68.97.68s1.06-.23,1.4-.69c.34-.46.79-1.53,1.36-3.22l1.31-3.87h8.01l-.41,1.2c-1.08,3.19-2.06,5.45-2.96,6.78-.9,1.33-2.29,2.5-4.17,3.5-1.88,1-3.95,1.5-6.2,1.5s-4.14-.42-5.37-1.27c-1.23-.85-1.85-2.03-1.83-3.53.01-1.5.53-3.76,1.55-6.78l3.04-8.99c.75-2.22,1.39-3.88,1.91-4.99.53-1.11,1.34-2.18,2.44-3.2,1.1-1.03,2.42-1.84,3.96-2.42,1.54-.59,3.17-.88,4.91-.88,2.36,0,4.15.46,5.38,1.37,1.23.91,1.85,2.05,1.87,3.41.02,1.36-.45,3.48-1.42,6.35l-.99,2.92Z"/>
    <path class="cls-2" d="M426.72,258.39h13.35l-2.08,6.16h-5.34l-1.97,5.84h5l-1.98,5.86h-5l-2.29,6.77h5.88l-2.08,6.16h-13.88l10.4-30.79Z"/>
    <path class="cls-2" d="M460.78,258.39l-10.4,30.79h-7.02l.56-14-4.73,14h-6.69l10.4-30.79h6.69l-.19,13.86,4.68-13.86h6.69Z"/>
    <path class="cls-2" d="M480.12,258.39l-2.08,6.16h-4.75l-8.32,24.63h-8.01l8.32-24.63h-4.74l2.08-6.16h17.5Z"/>
    <path class="cls-2" d="M481.95,258.39h13.35l-2.08,6.16h-5.34l-1.97,5.84h5l-1.98,5.86h-5l-2.29,6.77h5.88l-2.08,6.16h-13.88l10.4-30.79Z"/>
    <path class="cls-2" d="M498.13,258.39h5.67c3.78,0,6.29.15,7.53.44,1.24.29,2.08,1.04,2.52,2.23.44,1.2.21,3.11-.67,5.73-.81,2.4-1.65,4.01-2.53,4.83-.87.82-2.21,1.32-4.02,1.48,1.45.39,2.34.92,2.66,1.58.32.66.46,1.26.4,1.82-.05.55-.5,2.07-1.34,4.55l-2.74,8.12h-7.44l3.46-10.23c.56-1.65.77-2.67.64-3.06-.13-.39-.74-.59-1.85-.59l-4.69,13.88h-8.01l10.4-30.79ZM504.36,263.66l-2.31,6.85c.9,0,1.57-.12,2.02-.37.44-.25.9-1.05,1.35-2.41l.57-1.69c.33-.98.37-1.62.13-1.92-.25-.3-.83-.46-1.76-.46Z"/>
  </g>
  <g>
    <path class="cls-1" d="M665.83,152.82s-259.65-126-452.72,3.79c-60.7,61.96-54.38,113.81,59.44,187.16,0,0-182.1-140.37,70.82-214.98,0,0,141.63-41.73,322.47,24.03Z"/>
    <path class="cls-1" d="M272.54,348.12c-.81,0-1.63-.23-2.35-.69-32.11-20.69-55.61-39.57-71.83-57.71-8.11-9.07-14.5-18.13-18.99-26.93-4.5-8.83-7.29-17.75-8.27-26.54-.77-6.91-.46-13.94.92-20.91,1.35-6.76,3.75-13.7,7.15-20.62,6.43-13.09,16.52-26.55,30.83-41.16.21-.21.44-.4.68-.57,58.66-39.43,129.17-59.43,209.6-59.43,30.46,0,62.42,2.91,94.99,8.64,26.03,4.58,52.52,10.97,78.72,18.99,23.31,7.14,42.09,14.27,53.73,19,11.9,4.83,18.84,8.13,19.88,8.63,1.52.68,2.58,2.2,2.58,3.98,0,2.23-1.67,4.06-3.83,4.32-.46.06-.93.04-1.4-.06-.23-.05-.46-.11-.67-.2-67.17-24.42-136.45-36.8-205.92-36.8-36.12,0-65.13,3.5-83.1,6.44-19.48,3.18-30.56,6.41-30.67,6.44-42.53,12.55-75.22,27.79-97.16,45.31-18.45,14.73-29.5,31.25-32.84,49.1-5.55,29.59,11.03,58.56,25.9,77.66,16.44,21.1,34.53,35.16,34.71,35.3,1.85,1.43,2.24,4.05.9,5.96-.85,1.2-2.19,1.84-3.56,1.84ZM215.91,159.98c-27.29,27.96-38.79,51.89-36.16,75.31,1.77,15.82,9.98,31.73,25.1,48.63,7.93,8.87,17.71,17.95,29.5,27.38-.2-.25-.4-.5-.6-.76-10.12-12.96-17.71-25.93-22.56-38.56-6.16-16.05-7.9-31.59-5.17-46.18,1.8-9.6,5.56-18.9,11.18-27.64,6.04-9.39,14.38-18.36,24.78-26.67,11.07-8.84,24.77-17.16,40.75-24.75,16.96-8.05,36.94-15.49,59.4-22.12.46-.14,11.57-3.38,31.52-6.65,11.67-1.91,23.97-3.44,36.55-4.53,15.71-1.36,31.92-2.06,48.16-2.06,31.16,0,62.82,2.53,94.12,7.52-37.17-8.94-83.34-16.62-132.2-16.62-78.5,0-147.25,19.41-204.37,57.7Z"/>
  </g>
  <path class="cls-2" d="M665.83,152.82s-259.65-126-452.72,3.79c-60.7,61.96-54.38,113.81,59.44,187.16,0,0-182.1-140.37,70.82-214.98,0,0,141.63-41.73,322.47,24.03Z"/>
</svg>