<?xml version="1.0" encoding="UTF-8"?>
<svg id="Logos_clientes" data-name="Logos clientes" xmlns="http://www.w3.org/2000/svg" viewBox="0 0 1068.26 230.81">
  <defs>
    <style>
      .cls-1 {
        fill: #fff;
        font-family: Poppins-Bold, Poppins;
        font-size: 102.49px;
        font-weight: 700;
      }
    </style>
  </defs>
  <g id="Logo_Jasmir_Galeano" data-name="Logo Jasmir Galeano">
    <g>
      <rect x="17.54" y="20.31" width="180.1" height="180.1" rx="31.78" ry="31.78"/>
      <g>
        <path d="M274.98,76.85v50.22c0,6.97-2.02,12.38-6.05,16.24-4.03,3.86-9.43,5.79-16.19,5.79s-12.35-1.98-16.55-5.94c-4.2-3.96-6.3-9.5-6.3-16.6h14.35c.07,3.07.8,5.47,2.2,7.17,1.4,1.71,3.43,2.56,6.1,2.56s4.58-.82,5.94-2.46c1.37-1.64,2.05-3.89,2.05-6.76v-50.22h14.45Z"/>
        <path d="M291.43,104.52c2.29-4.44,5.4-7.86,9.33-10.25,3.93-2.39,8.32-3.59,13.17-3.59,4.24,0,7.94.85,11.12,2.56,3.18,1.71,5.72,3.86,7.64,6.46v-8.1h14.45v56.78h-14.45v-8.3c-1.85,2.67-4.39,4.87-7.64,6.61-3.25,1.74-6.99,2.61-11.22,2.61-4.78,0-9.14-1.23-13.07-3.69-3.93-2.46-7.04-5.93-9.33-10.4-2.29-4.47-3.43-9.62-3.43-15.42s1.14-10.83,3.43-15.27ZM330.63,111.03c-1.37-2.49-3.21-4.41-5.53-5.74-2.32-1.33-4.82-2-7.48-2s-5.12.65-7.38,1.95c-2.25,1.3-4.08,3.2-5.48,5.69-1.4,2.5-2.1,5.45-2.1,8.87s.7,6.41,2.1,8.97c1.4,2.56,3.24,4.53,5.53,5.89,2.29,1.37,4.73,2.05,7.33,2.05s5.16-.67,7.48-2c2.32-1.33,4.17-3.24,5.53-5.74,1.37-2.49,2.05-5.48,2.05-8.97s-.68-6.47-2.05-8.97Z"/>
        <path d="M370.4,146.8c-3.69-1.67-6.61-3.95-8.76-6.82-2.15-2.87-3.33-6.05-3.54-9.53h14.45c.27,2.19,1.35,4,3.23,5.43,1.88,1.44,4.22,2.15,7.02,2.15s4.87-.55,6.41-1.64c1.54-1.09,2.31-2.49,2.31-4.2,0-1.84-.94-3.23-2.82-4.15-1.88-.92-4.87-1.93-8.97-3.02-4.24-1.03-7.7-2.08-10.4-3.18-2.7-1.09-5.02-2.77-6.97-5.02s-2.92-5.29-2.92-9.12c0-3.14.9-6.01,2.72-8.61,1.81-2.6,4.41-4.65,7.79-6.15,3.38-1.5,7.36-2.25,11.94-2.25,6.76,0,12.16,1.69,16.19,5.07,4.03,3.38,6.25,7.94,6.66,13.68h-13.73c-.21-2.25-1.15-4.05-2.82-5.38-1.67-1.33-3.91-2-6.71-2-2.6,0-4.6.48-6,1.43-1.4.96-2.1,2.29-2.1,4,0,1.91.96,3.37,2.87,4.36,1.91.99,4.88,2,8.92,3.02,4.1,1.02,7.48,2.08,10.15,3.18,2.67,1.09,4.97,2.79,6.92,5.07,1.95,2.29,2.95,5.31,3.02,9.07,0,3.28-.91,6.22-2.72,8.81-1.81,2.6-4.41,4.63-7.79,6.1-3.38,1.47-7.33,2.2-11.84,2.2s-8.81-.84-12.5-2.51Z"/>
        <path d="M504.4,97.19c4.27,4.27,6.41,10.23,6.41,17.88v33.31h-14.35v-31.36c0-4.44-1.13-7.84-3.38-10.2s-5.33-3.54-9.22-3.54-6.99,1.18-9.28,3.54c-2.29,2.36-3.43,5.76-3.43,10.2v31.36h-14.35v-31.36c0-4.44-1.13-7.84-3.38-10.2s-5.33-3.54-9.22-3.54-7.09,1.18-9.38,3.54c-2.29,2.36-3.43,5.76-3.43,10.2v31.36h-14.35v-56.78h14.35v6.87c1.84-2.39,4.22-4.27,7.12-5.64,2.9-1.37,6.1-2.05,9.58-2.05,4.44,0,8.4.94,11.89,2.82,3.48,1.88,6.18,4.56,8.1,8.04,1.84-3.28,4.53-5.91,8.05-7.89,3.52-1.98,7.33-2.97,11.43-2.97,6.97,0,12.59,2.14,16.86,6.41Z"/>
        <path d="M525.41,82.44c-1.67-1.6-2.51-3.6-2.51-6s.84-4.39,2.51-6c1.67-1.6,3.77-2.41,6.3-2.41s4.63.8,6.3,2.41c1.67,1.61,2.51,3.6,2.51,6s-.84,4.39-2.51,6c-1.68,1.61-3.78,2.41-6.3,2.41s-4.63-.8-6.3-2.41ZM538.78,91.61v56.78h-14.35v-56.78h14.35Z"/>
        <path d="M574.5,93.35c2.97-1.71,6.37-2.56,10.2-2.56v15.07h-3.79c-4.51,0-7.91,1.06-10.2,3.18-2.29,2.12-3.43,5.81-3.43,11.07v28.29h-14.35v-56.78h14.35v8.81c1.84-3.01,4.25-5.36,7.23-7.07Z"/>
        <path d="M668.53,98.37c-1.64-3.01-3.89-5.29-6.76-6.87-2.87-1.57-6.22-2.36-10.04-2.36-4.24,0-7.99.96-11.27,2.87-3.28,1.91-5.84,4.65-7.69,8.2-1.84,3.55-2.77,7.65-2.77,12.3s.94,8.95,2.82,12.5c1.88,3.55,4.49,6.29,7.84,8.2,3.35,1.91,7.24,2.87,11.68,2.87,5.47,0,9.94-1.45,13.43-4.36,3.48-2.9,5.77-6.95,6.87-12.15h-24.6v-10.97h38.74v12.5c-.96,4.99-3.01,9.6-6.15,13.84-3.14,4.24-7.19,7.64-12.15,10.2-4.95,2.56-10.51,3.84-16.65,3.84-6.9,0-13.14-1.55-18.7-4.66-5.57-3.11-9.94-7.43-13.12-12.96-3.18-5.54-4.77-11.82-4.77-18.86s1.59-13.34,4.77-18.91c3.18-5.57,7.55-9.91,13.12-13.02,5.57-3.11,11.77-4.66,18.6-4.66,8.06,0,15.07,1.96,21.01,5.89,5.94,3.93,10.04,9.45,12.3,16.55h-16.5Z"/>
        <path d="M697.18,104.52c2.29-4.44,5.4-7.86,9.33-10.25,3.93-2.39,8.32-3.59,13.17-3.59,4.24,0,7.94.85,11.12,2.56,3.18,1.71,5.72,3.86,7.64,6.46v-8.1h14.45v56.78h-14.45v-8.3c-1.85,2.67-4.39,4.87-7.64,6.61-3.25,1.74-6.99,2.61-11.22,2.61-4.78,0-9.14-1.23-13.07-3.69-3.93-2.46-7.04-5.93-9.33-10.4-2.29-4.47-3.43-9.62-3.43-15.42s1.14-10.83,3.43-15.27ZM736.38,111.03c-1.37-2.49-3.21-4.41-5.53-5.74-2.32-1.33-4.82-2-7.48-2s-5.12.65-7.38,1.95c-2.25,1.3-4.08,3.2-5.48,5.69-1.4,2.5-2.1,5.45-2.1,8.87s.7,6.41,2.1,8.97c1.4,2.56,3.24,4.53,5.53,5.89,2.29,1.37,4.73,2.05,7.33,2.05s5.16-.67,7.48-2c2.32-1.33,4.17-3.24,5.53-5.74,1.37-2.49,2.05-5.48,2.05-8.97s-.68-6.47-2.05-8.97Z"/>
        <path d="M781.27,72.55v75.84h-14.35v-75.84h14.35Z"/>
        <path d="M847.79,124.3h-41.51c.34,4.1,1.78,7.31,4.3,9.63,2.53,2.32,5.64,3.49,9.33,3.49,5.33,0,9.12-2.29,11.38-6.87h15.48c-1.64,5.47-4.78,9.96-9.43,13.48-4.65,3.52-10.35,5.28-17.12,5.28-5.47,0-10.37-1.21-14.71-3.64-4.34-2.42-7.72-5.86-10.15-10.3-2.43-4.44-3.64-9.57-3.64-15.37s1.19-11.03,3.59-15.48c2.39-4.44,5.74-7.86,10.04-10.25,4.3-2.39,9.26-3.59,14.86-3.59s10.23,1.16,14.5,3.48c4.27,2.32,7.58,5.62,9.94,9.89,2.36,4.27,3.54,9.17,3.54,14.71,0,2.05-.14,3.89-.41,5.53ZM833.34,114.67c-.07-3.69-1.4-6.64-4-8.87-2.6-2.22-5.77-3.33-9.53-3.33-3.55,0-6.54,1.08-8.97,3.23-2.43,2.15-3.91,5.14-4.46,8.97h26.96Z"/>
        <path d="M858.39,104.52c2.29-4.44,5.4-7.86,9.33-10.25,3.93-2.39,8.32-3.59,13.17-3.59,4.24,0,7.94.85,11.12,2.56,3.18,1.71,5.72,3.86,7.64,6.46v-8.1h14.45v56.78h-14.45v-8.3c-1.85,2.67-4.39,4.87-7.64,6.61-3.25,1.74-6.99,2.61-11.22,2.61-4.78,0-9.14-1.23-13.07-3.69-3.93-2.46-7.04-5.93-9.33-10.4-2.29-4.47-3.43-9.62-3.43-15.42s1.14-10.83,3.43-15.27ZM897.6,111.03c-1.37-2.49-3.21-4.41-5.53-5.74-2.32-1.33-4.82-2-7.48-2s-5.12.65-7.38,1.95c-2.25,1.3-4.08,3.2-5.48,5.69-1.4,2.5-2.1,5.45-2.1,8.87s.7,6.41,2.1,8.97c1.4,2.56,3.24,4.53,5.53,5.89,2.29,1.37,4.73,2.05,7.33,2.05s5.16-.67,7.48-2c2.32-1.33,4.17-3.24,5.53-5.74,1.37-2.49,2.05-5.48,2.05-8.97s-.68-6.47-2.05-8.97Z"/>
        <path d="M976,97.19c4.17,4.27,6.25,10.23,6.25,17.88v33.31h-14.35v-31.36c0-4.51-1.13-7.98-3.38-10.4-2.25-2.42-5.33-3.64-9.22-3.64s-7.09,1.21-9.38,3.64c-2.29,2.43-3.43,5.89-3.43,10.4v31.36h-14.35v-56.78h14.35v7.07c1.91-2.46,4.36-4.39,7.33-5.79,2.97-1.4,6.23-2.1,9.79-2.1,6.76,0,12.23,2.14,16.4,6.41Z"/>
        <path d="M1006.34,145.67c-4.37-2.42-7.81-5.86-10.3-10.3-2.5-4.44-3.74-9.57-3.74-15.37s1.28-10.93,3.84-15.37c2.56-4.44,6.06-7.87,10.5-10.3,4.44-2.42,9.39-3.64,14.86-3.64s10.42,1.21,14.86,3.64c4.44,2.43,7.94,5.86,10.51,10.3,2.56,4.44,3.84,9.57,3.84,15.37s-1.32,10.93-3.95,15.37c-2.63,4.44-6.18,7.88-10.66,10.3-4.48,2.43-9.48,3.64-15.01,3.64s-10.39-1.21-14.76-3.64ZM1028.42,134.91c2.29-1.26,4.12-3.16,5.48-5.69,1.37-2.53,2.05-5.6,2.05-9.22,0-5.4-1.42-9.55-4.25-12.45-2.84-2.9-6.3-4.36-10.4-4.36s-7.53,1.45-10.3,4.36c-2.77,2.91-4.15,7.06-4.15,12.45s1.35,9.55,4.05,12.45c2.7,2.9,6.1,4.36,10.2,4.36,2.6,0,5.04-.63,7.33-1.9Z"/>
      </g>
      <text class="cls-1" transform="translate(38.2 148.39)"><tspan x="0" y="0">JG</tspan></text>
    </g>
  </g>
</svg>