<?xml version="1.0" encoding="UTF-8"?>
<svg id="Energy" xmlns="http://www.w3.org/2000/svg" viewBox="0 0 953.47 441.7">
  <path d="M522.07,150.26c5.83.08,7.86,17.24,8.96,23.63,9.76-9.29,18.81-20.53,27.57-24.1,14.32-5.83,30.16-4.37,42.74,6.75l-19.46,40.92c-1.03,2.16-5.09,5.35-6.75,5.89-6.92,2.26-6.56-18.77-29.89-16.7-6.88.61-15.42,10.42-15.49,19.39l-.52,63.11c-.06,7.03,2.91,15.74,5.44,23.5l-64.23-.51c2.2-9.21,3.37-14.81,3.9-19.73-13.69,13.07-26.19,21.31-44.13,22.76-31.54,2.55-57.85-13.37-73.88-37.9-.53,14.2.82,23.97,4.8,35.29l-63.8-.16c1.83-7.6,4.75-16.19,4.65-23.58l-1.13-77.3c-.06-4.26-11.53-8.67-15.2-6.96-4.2,1.96-11.93,9.07-12.26,14.81-1.01,17.66-4.46,80.08,4.41,93.18l-64.44-.2c3.95-12.78,5.45-23,4.02-36.15-13.07,25.01-36.07,40.58-65.36,39.04-29.82-1.57-55.22-18.88-66.99-47.02-17.22-41.19-15.19-90.21,6.78-128.63,17.19-30.05,49.26-41.02,80.66-29.62,16.4,5.95,32.04,2.09,49.94-5.01,3.42,19.73-6,46.25-25.65,54.53-30.64,12.91-71.74-34.68-90.68-18.65-12.67,10.72-10.59,31.35-5.62,45.28,17.53-12.61,33.04-13.94,50.11-6.45l23.67,10.39c6.88,3.02,18.76-2.05,26.07-6.09,7.02,10.32,1.95,26.59-5.85,34.98-8.71,9.36-24.19,13.33-37.72,7.95-27.09-10.77-37.61-41.85-53.69-31.53,4.45,29.83,24.07,56.25,49.87,67.97,22.29,10.13,44,2.37,57.23-16.16,13.63-19.09,8.55-53.96,3.98-77.46l53.58.27,7.56,25.99c15.47-24.41,40.43-38.17,65.04-23.57,9.97,5.91,12.62,19.86,16.39,33.26,11.87-25.38,36.47-38.95,64.52-38.97,23.28-.02,42.7,9.92,53.34,32.2.61-9.67-.88-18.28-4.02-29.33l51.54.7ZM431.78,209.37c12.36-11.43-2.66-28.69-13.1-33.71-13.75-6.61-30.29-11.08-41.92,1.16-10.02,10.54-4.46,33.66,10.93,38.46,11.58,3.61,34.64,2.82,44.09-5.92ZM473.12,249.02c3.01-6.84,2.26-22.79,1.77-30.75-10.38,4.92-20.86,9.02-32.31,9.13l-49.86.47c9.73,21.93,66.28,43.02,80.4,21.14Z"/>
  <path d="M784.05,291.72c-6.32-.27-13.66-12-15.22-17.18l-34.64-115.14-29.21-4.16c25.94,13.74,37.09,37.26,32.5,66.01-6.82,42.7-52.36,46.94-59.95,51.92-1.41.92,3.58,5.88,5.4,6.44l30.98,9.58c13.6,4.21,22.52,16.24,22.29,28.68-.77,43.05-80.45,51.08-130.14,20.28-8.31-5.15-19.99-19.84-15.09-29.4,8.06-15.75,44.44-30.85,51.43-23.49,7.77,8.18-13.54,52.79,19.91,56.3,6.44.67,19.04-2.9,22.19-9.1,9.62-18.92.01-40.3-18.19-49.07l-44.55-21.48c-22.14-10.67-34.5-31.94-33.8-54.57.71-23.01,13.69-43.24,36.49-53.04,48.16-20.7,73.56,11.89,95.68-20.59,1.53-2.25,7.75-5.92,10.43-5.48s7.59,4.28,8.74,6.73l6.69,14.23,50.15.79c-.23,12.54-.08,24.51,3.17,36.06l21.82,77.5c1.52,5.4,7.74,12.22,12.89,16.11,14.08-20.69,14.99-43.93,10.39-67.05-5.4-27.16-32.02-29.48-33.86-38.39-2.39-11.56,33.46-33.94,56.06-25.28,12.69,4.87,15.41,23.33,11.91,36.04-13.62,49.4-30.08,96.72-50.43,143.4-5.65,12.95-17.61,23.66-27.3,26.29-12.82,3.48-33.61,2.33-40.45-9.06.81-12.83,6.57-26.93,12.56-40.03l18.46,5.01c15.37,4.17,33.82,3.23,38.81-16.91l-46.13-1.96ZM661.98,156.65c-27.55,3.78-27.99,106.7.43,111.38,29.47,4.86,31.28-115.73-.43-111.38Z"/>
</svg>