<?xml version="1.0" encoding="UTF-8"?>
<svg id="Logos_clientes" data-name="Logos clientes" xmlns="http://www.w3.org/2000/svg" viewBox="0 0 953.47 441.7">
  <g id="HGymrat_store" data-name="HGymrat store">
    <g id="Imago_V" data-name="Imago V">
      <g id="Logo">
        <g id="A_y_Centro" data-name="A y Centro">
          <path d="M251.4,186.8l-119.94,42.04-42.29-80.63L16.97,295.48l234.43-108.67ZM89.41,187.67l21.45,42.55-46.69,19.51,25.24-62.07Z"/>
        </g>
        <polygon id="Pie" points="128.89 270.82 150.01 260.26 160.57 277.69 128.89 277.69 128.89 270.82"/>
      </g>
      <g>
        <path d="M668.9,280.25c-3.95-4.38-5.92-10.66-5.92-18.85v-5.78h15.02v6.93c0,6.55,2.74,9.82,8.23,9.82,2.69,0,4.74-.79,6.14-2.38,1.39-1.59,2.09-4.16,2.09-7.73,0-4.24-.96-7.97-2.89-11.19-1.93-3.22-5.49-7.1-10.69-11.63-6.55-5.78-11.12-11-13.72-15.67-2.6-4.67-3.9-9.94-3.9-15.81,0-7.99,2.02-14.18,6.07-18.56,4.04-4.38,9.92-6.57,17.62-6.57s13.36,2.19,17.26,6.57c3.9,4.38,5.85,10.66,5.85,18.85v4.19h-15.02v-5.2c0-3.47-.67-5.99-2.02-7.58-1.35-1.59-3.32-2.38-5.92-2.38-5.3,0-7.94,3.23-7.94,9.68,0,3.66.99,7.08,2.96,10.25,1.97,3.18,5.56,7.03,10.76,11.55,6.64,5.78,11.21,11.03,13.72,15.74,2.5,4.72,3.75,10.25,3.75,16.61,0,8.28-2.05,14.64-6.14,19.06-4.09,4.43-10.04,6.64-17.84,6.64s-13.53-2.19-17.47-6.57Z"/>
        <path d="M733.31,198.73h-16.61v-14.44h49.1v14.44h-16.61v86.65h-15.89v-86.65Z"/>
        <path d="M779.38,280.18c-4.14-4.43-6.21-10.69-6.21-18.77v-53.15c0-8.09,2.07-14.35,6.21-18.77,4.14-4.43,10.11-6.64,17.91-6.64s13.77,2.22,17.91,6.64c4.14,4.43,6.21,10.69,6.21,18.77v53.15c0,8.09-2.07,14.35-6.21,18.77-4.14,4.43-10.11,6.64-17.91,6.64s-13.77-2.21-17.91-6.64ZM805.52,262.42v-55.17c0-6.64-2.74-9.96-8.23-9.96s-8.23,3.32-8.23,9.96v55.17c0,6.64,2.74,9.96,8.23,9.96s8.23-3.32,8.23-9.96Z"/>
        <path d="M833.54,184.29h23.54c8.18,0,14.15,1.9,17.91,5.7,3.75,3.8,5.63,9.65,5.63,17.55v6.21c0,10.5-3.47,17.14-10.4,19.93v.29c3.85,1.16,6.57,3.52,8.16,7.08,1.59,3.56,2.38,8.33,2.38,14.3v17.76c0,2.89.09,5.22.29,7,.19,1.78.67,3.54,1.44,5.27h-16.17c-.58-1.64-.96-3.18-1.16-4.62-.19-1.44-.29-4.04-.29-7.8v-18.49c0-4.62-.75-7.85-2.24-9.68-1.49-1.83-4.07-2.74-7.73-2.74h-5.49v43.33h-15.89v-101.09ZM855.2,227.61c3.18,0,5.56-.82,7.15-2.46,1.59-1.64,2.38-4.38,2.38-8.23v-7.8c0-3.66-.65-6.3-1.95-7.94-1.3-1.64-3.35-2.46-6.14-2.46h-7.22v28.88h5.78Z"/>
        <path d="M893.18,184.29h43.33v14.44h-27.44v26.72h21.81v14.44h-21.81v31.05h27.44v14.44h-43.33v-101.09Z"/>
      </g>
      <g>
        <path d="M288.95,280.49c-4.04-4.38-6.07-10.66-6.07-18.85v-53.15c0-8.18,2.02-14.46,6.07-18.85,4.04-4.38,9.92-6.57,17.62-6.57s13.58,2.19,17.62,6.57c4.04,4.38,6.07,10.66,6.07,18.85v8.67h-15.02v-9.68c0-6.64-2.74-9.96-8.23-9.96s-8.23,3.32-8.23,9.96v55.31c0,6.55,2.74,9.82,8.23,9.82s8.23-3.27,8.23-9.82v-19.79h-7.94v-14.44h22.96v33.07c0,8.18-2.02,14.47-6.07,18.85-4.04,4.38-9.92,6.57-17.62,6.57s-13.58-2.19-17.62-6.57Z"/>
        <path d="M354.37,242.58l-19.21-58.06h16.9l10.83,37.12h.29l10.83-37.12h15.45l-19.21,58.06v43.04h-15.89v-43.04Z"/>
        <path d="M398.13,184.52h22.67l10.11,72.35h.29l10.11-72.35h22.67v101.09h-15.02v-76.54h-.29l-11.55,76.54h-13.29l-11.55-76.54h-.29v76.54h-13.86v-101.09Z"/>
        <path d="M477.27,184.52h23.54c8.18,0,14.15,1.9,17.91,5.7,3.75,3.8,5.63,9.65,5.63,17.55v6.21c0,10.5-3.47,17.14-10.4,19.93v.29c3.85,1.16,6.57,3.52,8.16,7.08,1.59,3.56,2.38,8.33,2.38,14.3v17.76c0,2.89.09,5.22.29,7,.19,1.78.67,3.54,1.44,5.27h-16.17c-.58-1.64-.96-3.18-1.16-4.62-.19-1.44-.29-4.04-.29-7.8v-18.49c0-4.62-.75-7.85-2.24-9.68-1.49-1.83-4.07-2.74-7.73-2.74h-5.49v43.33h-15.89v-101.09ZM498.93,227.85c3.18,0,5.56-.82,7.15-2.46,1.59-1.64,2.38-4.38,2.38-8.23v-7.8c0-3.66-.65-6.3-1.95-7.94-1.3-1.64-3.35-2.46-6.14-2.46h-7.22v28.88h5.78Z"/>
        <path d="M549.19,184.52h21.52l16.46,101.09h-15.89l-2.89-20.07v.29h-18.05l-2.89,19.79h-14.73l16.46-101.09ZM566.52,252.11l-7.08-49.97h-.29l-6.93,49.97h14.3Z"/>
        <path d="M602.05,198.96h-16.61v-14.44h49.1v14.44h-16.61v86.65h-15.89v-86.65Z"/>
      </g>
    </g>
  </g>
</svg>