<?xml version="1.0" encoding="UTF-8"?>
<svg id="KW" xmlns="http://www.w3.org/2000/svg" viewBox="0 0 953.47 441.7">
  <defs>
    <style>
      .cls-1 {
        fill: #505052;
      }

      .cls-2 {
        fill: #b42126;
      }
    </style>
  </defs>
  <g id="_1._Logo" data-name="1. Logo">
    <g>
      <path class="cls-2" d="M201.22,261.53l-31.79-74.7-31.29,74.67c-2.99.29-5.64.27-8.86.1l-42.05-96.54-21.6,23.58,30.7,72.85-23.02.18-23.09-54.82-16.91,16.6-.14,38.13H10.59s.02-163.39.02-163.39l22.53-.05.22,93.75,40.93-40.3,30.34-.06,28.81,66.74,28.28-66.7,15.93.04,28.27,66.64,28.8-66.72,23.02.13-47.61,109.82c-3.01.37-5.44.29-8.92.06Z"/>
      <path class="cls-1" d="M622.55,262.93l-19.51.18c-8.11-11.96,3.58-47.7-16.15-47.87l-18.07-.16-.11,48.08h-17.41s-.03-111.64-.03-111.64l42.88.24c9.6.05,17.74,5.42,21.66,13.87,5.88,15.1,3.35,37.95-15.3,42.16,4.86,1.53,8.96,2.31,11.89,5.93,3.21,3.96,4.77,8.95,4.94,14.19l.85,25.76c.11,3.48,1.62,6.14,4.35,9.25ZM600.18,187.6c.85-5.67.53-11.17-2.05-15.92-5.06-9.33-20.37-6.45-29.35-6.64l.04,35.78c6.06.08,11.64.37,17.43-.13,7.23-.62,12.82-5.67,13.93-13.1Z"/>
      <path class="cls-1" d="M762.5,217.24l-18.31-.32-.11-12.86,35.46-.03-.05,58.24h-13.18s-.45-11.88-.45-11.88c-3.1,4.63-5.89,9.29-11.3,11.52-9.07,3.74-19.74,3.37-28.52-1.17-10.55-5.45-14.72-19.73-16.08-30.82-1.69-13.76-1.99-27.36-.51-41.14,1.91-17.82,8.74-36.69,28.78-39.31,5.97-.78,11.73-.68,17.56.8,14.94,3.79,22.03,17.58,21.59,32.55l-16.7.11c-.15-9.94-2.78-19.86-14.68-20.53-6.95-.39-12.81,2.71-15.5,9.34-5.78,14.21-4.93,40.59-3.39,56.04,1.1,11.1,4.25,23.28,17.28,23.13,17.29-.2,17.92-19.55,18.13-33.66Z"/>
      <path class="cls-1" d="M840.18,151.69l17.43-.14-.02,79.63c0,13.08-4.58,26.34-17.72,31-9.74,3.46-20.38,3.54-30.32.77-14.54-4.05-19.75-17.61-19.75-31.78l-.03-79.56,17.98-.05.09,80.92c0,4.5.94,8.75,3.22,12.33,5.19,8.13,21.03,8.32,26.03-.06,2.28-3.83,3.03-8.22,3.03-12.92l.07-80.13Z"/>
      <path class="cls-1" d="M520.55,235.17l-32.52-.1-7.18,27.22-18.46-.06,31.8-110.61,22.66-.11,29.24,110.46c-6.03.76-11.92.24-18.34.35l-7.2-27.15ZM517.9,220.89l-13.08-54.5-13.73,54.76,26.81-.26Z"/>
      <path class="cls-1" d="M917.85,235.21l-32.4-.21-7.33,27.29-18.45-.02,31.34-110.69,22.62-.06,29.25,110.72-18.41.09-6.63-27.11ZM914.18,221.02l-13.17-54.66-13.61,54.65,26.78.02Z"/>
      <path class="cls-1" d="M684,235.18l-32.4-.15-7.34,27.25-18.45-.02,31.34-110.7,22.62-.05,29.25,110.71-18.4.09-6.63-27.14ZM680.83,220.87l-13.13-54.54-13.64,54.82,26.77-.28Z"/>
      <path class="cls-1" d="M428.46,250.9c16.27.56,17.55-17.24,17.55-28.85l17.3-.02c.85,19.42-6.29,38.91-27.76,41.9-14.74,2.05-29.93-2.19-36.43-16.8-7.21-16.23-7.03-43.96-5.08-61.42,1.68-15.08,7.06-31.33,23.47-35.3,8.24-1.99,16.79-1.97,24.93.24,16.52,4.5,21.05,19.82,20.31,35.38h-17.3c.01-5.25-.43-10.17-2.19-14.79-2.34-6.16-7.48-8.88-13.78-8.9-6.65-.02-12.13,2.84-14.71,9.29-5.59,13.94-4.78,40.37-3.32,55.56,1.01,10.55,4,23.28,17,23.73Z"/>
      <g>
        <polygon class="cls-1" points="351.38 262.14 329.88 262.31 297.59 176.99 297.34 262.31 280.45 262.26 280.44 151.57 302.51 151.57 334.22 232.89 334.51 151.61 351.37 151.57 351.38 262.14"/>
        <rect class="cls-1" x="364.71" y="151.53" width="17.47" height="110.82"/>
      </g>
    </g>
    <g>
      <path class="cls-1" d="M220.31,343.48l-9.67-23.85c-3.02-.5-5.89-.38-9.25-.07l-.13,23.79c-2.47.28-4.86.34-7.63,0v-53.84c6.14-.01,12.38-.37,18.4.33,8.76,1.02,13.65,7.44,13.55,15.85-.06,5.17-2.77,9.03-6.46,12.58l9.13,24.97c-2.58.6-4.83.21-7.93.25ZM213.63,311.03c4.76-2.78,4.85-10.7.4-13.56-3.76-2.42-8.12-1.7-12.66-1.69v16.69c4.05.07,8.3.87,12.25-1.44Z"/>
      <path class="cls-1" d="M33.89,312.17l12.58,30.64c-2.88.47-5.15.19-8.05.15l-11.3-27.36-8.76,8.82-.15,18.45c-2.54.33-4.86.17-7.58.1l-.04-53.76c2.52-.33,4.93-.36,7.64-.05l.23,24.16,22.49-24.27c3.16-.05,5.9-.27,9.36.17-4.99,6.43-10.41,12.03-15.92,17.91-1.45,1.55-1.41,2.86-.51,5.05Z"/>
      <path class="cls-1" d="M297.19,289.71c.56-1.46,3.38-.71,4.67-.44l-20.23,53.87c-.62.49-2.05.69-2.33-.2l-14.84-46.52-14.88,47.03c-1.14.1-1.71.15-2.28-.51l-20.57-53.35c.52-.79,3.97-1.29,4.39-.23l17.47,43.92,14.21-43.72c.33-1.02,2.15-.6,3.26-.38l14.39,44.1,16.75-43.58Z"/>
      <path class="cls-1" d="M84.45,319.28l-21.83.2.05,16.73,23.28.08c.36,2.51.46,4.68-.07,7.22l-31.06-.02.02-54.46,30.67-.02c.3,2.33.18,4.54.04,7.03l-22.91.22-.02,16.24,21.75.17c.49,2.04.45,4,.08,6.61Z"/>
      <path class="cls-1" d="M186.7,319.28l-21.79.16.05,16.77,23.3.08c.24,2.52.27,4.62-.01,7.18l-31.12.02v-54.47s30.08-.04,30.08-.04c.42,2.3.28,4.58.08,7.08l-22.35.18-.02,16.25,21.72.17c.4,2.06.38,3.98.08,6.6Z"/>
      <path class="cls-1" d="M496.36,342.92l-.3-47.15-20.35,24.44-20.22-24.34-.4,46.84c-1.24.51-2.46.39-4,.19l-.02-53.63c1.17-.2,3.51-.93,4.47.23l20.25,24.52,20.3-24.71c1.09-.76,3.1-.31,4.32-.07l-.07,53.65c-1.41.16-2.28.28-3.98.04Z"/>
      <path class="cls-1" d="M118.57,336.25c.98,2.14.43,4.61.33,7.23l-27.57-.02v-54.31c2.65-.38,4.77-.14,7.64-.08l.07,46.97,19.54.21Z"/>
      <path class="cls-1" d="M151.64,336.23c.56,2.49.5,4.74.02,7.27l-27.43.02v-54.45c2.9-.05,5.02-.3,7.64.1l.05,47.02,19.72.05Z"/>
      <path class="cls-1" d="M433.73,324.71l-23.7-.18-7.74,18.29c-1.04.44-2.59.36-4.02-.15l22.47-53.73c.32-.77,1.93-.81,2.26,0l22.25,53.7c-1.41.63-2.58.46-4,.26l-7.53-18.19ZM431.88,320.53l-10.13-24.5-10.15,24.67c7.08.2,13.45.54,20.28-.16Z"/>
      <path class="cls-1" d="M527.9,342.47c-6.73,2.23-14.17.86-19.4-3.44-.87-1.24-.47-3.55,0-4.9,5.08,4.84,12.15,6.73,18.44,4.06,4.04-1.72,6.3-5.69,6.32-9.61.08-12.8-18.66-10.54-23.89-19.63-3.96-6.89-1.09-15.37,5.95-19.05,6.53-3.41,14.65-2.21,20.03,2.53-.28,2.15.52,3.66-.09,5.5-4.52-6.52-13.59-7.75-19.5-3.17-2.88,2.23-3.75,5.72-3.4,9.07,1,9.39,16.69,8.76,22.56,15.99,3.03,3.73,3.81,8.72,2.07,13.87-1.14,3.35-4.29,7.2-9.08,8.78Z"/>
      <path class="cls-1" d="M346.14,340.01c.97,0,.73,2.18.33,2.95l-26.43-.03v-53.71c1.49-.41,2.79-.42,4.57.02l.11,50.61,21.42.16Z"/>
      <path class="cls-1" d="M379.99,340.03c.99,0,.66,1.84.56,2.86l-26.11.06v-53.7c1.39-.41,2.49-.47,4.07-.03l.11,50.63,21.37.18Z"/>
      <rect class="cls-1" x="308.18" y="288.83" width="4.14" height="54.67"/>
      <rect class="cls-1" x="388.34" y="288.99" width="4.14" height="54.02"/>
      <path class="cls-1" d="M546.44,341.6c-.79-.8-.91-1.5-1.26-1.8-.89-.74-1.06.63-1.43,1.79-1.05-1.37-1.13-3.58-.2-5.21.69.5.53,1.12.83,1.45.54.6,1-.28,1.8-1,.69,1.48.39,3.21.26,4.76Z"/>
    </g>
  </g>
</svg>