<?xml version="1.0" encoding="UTF-8"?>
<svg id="Logos_clientes" data-name="Logos clientes" xmlns="http://www.w3.org/2000/svg" viewBox="0 0 210.13 230.81">
  <defs>
    <style>
      .cls-1 {
        fill: #fff;
      }
    </style>
  </defs>
  <g id="Logo_Jasmir_Galeano" data-name="Logo Jasmir Galeano">
    <g>
      <rect x="19.18" y="28.23" width="180.1" height="180.1" rx="31.78" ry="31.78"/>
      <g>
        <path class="cls-1" d="M91.29,84.35v48.99c0,7.58-2.14,13.43-6.41,17.53-4.27,4.1-10.03,6.15-17.27,6.15s-13.67-2.15-18.24-6.46c-4.58-4.3-6.87-10.42-6.87-18.35h17.42c0,3.01.62,5.28,1.84,6.82,1.23,1.54,3.01,2.31,5.33,2.31,2.12,0,3.76-.68,4.92-2.05,1.16-1.37,1.74-3.35,1.74-5.94v-48.99h17.53Z"/>
        <path class="cls-1" d="M153.2,107.11c-1.3-2.39-3.16-4.22-5.59-5.48-2.43-1.26-5.28-1.9-8.56-1.9-5.67,0-10.22,1.86-13.63,5.59-3.42,3.73-5.12,8.7-5.12,14.91,0,6.63,1.79,11.8,5.38,15.53,3.59,3.73,8.52,5.59,14.81,5.59,4.3,0,7.94-1.09,10.92-3.28,2.97-2.19,5.14-5.33,6.51-9.43h-22.24v-12.91h38.13v16.3c-1.3,4.37-3.5,8.44-6.61,12.2-3.11,3.76-7.06,6.8-11.84,9.12-4.78,2.32-10.18,3.48-16.19,3.48-7.11,0-13.44-1.55-19.01-4.66-5.57-3.11-9.91-7.43-13.02-12.96-3.11-5.53-4.66-11.85-4.66-18.96s1.55-13.44,4.66-19.01c3.11-5.57,7.43-9.91,12.96-13.02,5.53-3.11,11.85-4.66,18.96-4.66,8.61,0,15.87,2.08,21.78,6.25,5.91,4.17,9.82,9.94,11.74,17.32h-19.37Z"/>
      </g>
    </g>
  </g>
</svg>