<?xml version="1.0" encoding="UTF-8"?>
<svg id="Mypetmatch" xmlns="http://www.w3.org/2000/svg" viewBox="0 0 953.47 441.7">
  <defs>
    <style>
      .cls-1 {
        font-family: Poppins-SemiBold, Poppins;
        font-size: 82.65px;
        font-weight: 600;
      }

      .cls-1, .cls-2, .cls-3 {
        isolation: isolate;
      }

      .cls-1, .cls-3 {
        fill: #23292c;
      }

      .cls-4 {
        fill: #05706c;
      }

      .cls-3 {
        font-family: Poppins-LightItalic, Poppins;
        font-size: 32.35px;
        font-style: italic;
        font-weight: 300;
      }
    </style>
  </defs>
  <g id="IM_H" data-name="IM H">
    <g id="Logo">
      <g class="cls-2">
        <text class="cls-1" transform="translate(326.84 219.34)"><tspan x="0" y="0">MyPetMatch</tspan></text>
      </g>
      <g class="cls-2">
        <text class="cls-3" transform="translate(245.04 280.25)"><tspan x="0" y="0">Conectando Corazones, Creando Hogares</tspan></text>
      </g>
    </g>
    <g id="Logo-2" data-name="Logo">
      <path class="cls-4" d="M211.04,196.19c-.07,1.94-.14,4.18-.24,6.42-.02.49-.19.97-.28,1.45-.15.87-.34,1.74-.45,2.61-.09.73-.18,1.43-.46,2.14-.24.59-.27,1.26-.42,1.88-.07.31-.21.6-.32.9-.14.41-.3.81-.38,1.22-.12.61-.29,1.19-.52,1.79-.36.94-.7,1.88-1.07,2.82-.2.51-.22,1.09-.64,1.52-.11.11-.14.31-.19.48-.11.4-.22.79-.54,1.08-.09.08-.13.22-.17.34-.16.46-.43.89-.62,1.32-.33.75-.81,1.41-1.13,2.15-.12.27-.3.51-.46.76-.29.45-.67.86-.88,1.34-.29.66-.72,1.22-1.15,1.77-.71.91-1.24,1.96-2.17,2.69-.31.24-.55.59-.82.89-.38.43-.73.89-1.1,1.32-.25.29-.52.57-.78.86-.99,1.08-2.02,2.12-2.96,3.24-1.03,1.22-2.21,2.27-3.33,3.4-1.08,1.08-2.15,2.17-3.24,3.24-1.12,1.1-2.24,2.19-3.37,3.29-1.18,1.16-2.36,2.33-3.55,3.48-.86.82-1.74,1.6-2.61,2.41-.7.66-1.37,1.35-2.06,2.02-.68.65-1.38,1.27-2.05,1.93-.4.38-.74.82-1.14,1.21-.39.39-.81.75-1.22,1.13-.08.07-.19.12-.24.2-.46.59-1.01,1.08-1.56,1.57-.69.63-1.3,1.35-1.96,2.01-.38.38-.8.7-1.18,1.08-.42.42-.82.86-1.24,1.28-.38.38-.78.73-1.17,1.08-.08.07-.19.11-.25.2-.45.57-1,1.03-1.52,1.52-.69.66-1.32,1.39-2,2.06-.38.38-.79.72-1.17,1.08-.38.35-.74.71-1.11,1.07-.75.73-1.51,1.46-2.26,2.19-.29.29-.58.58-.87.86-1.48,1.42-2.94,2.84-4.44,4.24-.56.53-1.17,1-1.74,1.52-.44.4-.86.82-1.3,1.23-.34.32-.69.63-1.04.94-.74.67-1.48,1.35-2.24,2-.64.54-1.32,1.02-1.98,1.53-.46.35-.91.71-1.36,1.06-.17.13-.34.26-.51.38-.67.46-1.35.91-2.02,1.36-.11.07-.22.14-.33.2-.11.06-.26.08-.35.17-.64.6-1.54.74-2.23,1.26-.13.1-.3.17-.46.22-.42.12-.82.27-1.13.6-.07.07-.17.15-.27.18-.55.15-1.01.46-1.52.68-.92.43-1.92.69-2.89,1.04-.4.14-.8.31-1.2.45-.29.1-.57.18-.86.25-.83.21-1.66.43-2.51.6-.65.14-1.32.2-1.98.31-.73.11-1.45.24-2.18.31-1.29.13-2.57.29-3.86.32-1.64.03-3.28,0-4.91-.1-.81-.05-1.61-.29-2.41-.42-.6-.1-1.2-.13-1.79-.23-.61-.1-1.22-.24-1.83-.38-.44-.1-.88-.23-1.32-.31-.64-.11-1.26-.24-1.84-.55-.35-.19-.78-.23-1.18-.31-.45-.1-.89-.18-1.24-.5-.03-.03-.07-.06-.11-.07-.95-.15-1.72-.76-2.63-1.02-.26-.07-.5-.23-.75-.36-.07-.04-.13-.11-.2-.15-.74-.38-1.5-.73-2.23-1.14-.73-.41-1.42-.85-2.12-1.3-.54-.34-1.07-.7-1.58-1.08-.59-.43-1.16-.88-1.73-1.33-.49-.38-.97-.76-1.45-1.14-.32-.25-.64-.51-.95-.77-.73-.6-1.47-1.2-2.18-1.82-.89-.77-1.76-1.54-2.63-2.33-1.33-1.22-2.63-2.46-3.95-3.69-.77-.72-1.57-1.4-2.33-2.14-.68-.65-1.31-1.35-1.98-2.01-.41-.4-.86-.77-1.26-1.17-.34-.33-.65-.68-.99-1-.48-.47-.99-.93-1.46-1.41-.38-.38-.72-.77-1.08-1.17-.13-.14-.27-.27-.41-.4-.11-.1-.24-.18-.33-.29-.38-.4-.73-.82-1.11-1.21-.48-.51-.98-.99-1.48-1.48-.68-.66-1.39-1.3-2.08-1.96-.39-.38-.75-.81-1.13-1.21-.33-.35-.67-.71-1.02-1.04-.4-.38-.82-.73-1.21-1.12-.26-.24-.51-.51-.76-.77-1.13-1.2-2.27-2.41-3.41-3.59-.61-.64-1.26-1.23-1.89-1.85-.42-.41-.82-.82-1.23-1.23-.77-.74-1.56-1.47-2.32-2.23-.67-.66-1.3-1.36-1.96-2.03-.39-.4-.81-.77-1.21-1.15-.36-.34-.71-.68-1.05-1.03-.41-.41-.8-.82-1.2-1.24-.47-.48-.95-.97-1.43-1.44-.41-.4-.84-.77-1.25-1.17-.39-.38-.76-.79-1.14-1.19-.33-.34-.64-.69-.97-1.02-.64-.64-1.3-1.25-1.93-1.88-.29-.29-.55-.6-.82-.91-1.02-1.13-2.05-2.27-3.07-3.41-.5-.56-.95-1.16-1.43-1.72-.39-.45-.82-.86-1.22-1.3-.3-.33-.59-.68-.86-1.04-.4-.53-.77-1.08-1.17-1.61-.23-.31-.49-.59-.72-.9-.48-.65-.98-1.3-1.43-1.98-.39-.59-.69-1.23-1.09-1.81-.42-.6-.69-1.27-1.04-1.9-.23-.41-.45-.82-.66-1.24-.33-.63-.57-1.3-.89-1.91-.31-.58-.42-1.21-.72-1.77-.41-.77-.55-1.63-.9-2.4-.31-.68-.51-1.35-.63-2.09-.03-.23-.11-.47-.22-.67-.33-.58-.42-1.21-.51-1.85-.11-.65-.32-1.29-.48-1.93-.09-.38-.2-.75-.24-1.13-.22-1.65-.43-3.29-.62-4.93-.09-.82-.15-1.63-.16-2.45-.02-1.81,0-3.62,0-5.44,0-.33.05-.64.09-.96.26-2.32.51-4.62.77-6.94.02-.15.02-.31.07-.45.41-1.11.51-2.27.66-3.42.05-.38.22-.73.32-1.1.13-.47.29-.95.37-1.43.11-.64.13-1.27.55-1.83.18-.24.2-.6.27-.92.09-.42.18-.85.49-1.18.06-.07.11-.15.12-.22.11-.97.71-1.74,1.06-2.62.32-.78.81-1.49,1.22-2.23.04-.07.14-.13.15-.2.14-.77.67-1.35,1.09-1.94.45-.62.68-1.38,1.29-1.91.31-.27.49-.69.73-1.04.36-.51.73-1.01,1.1-1.5.41-.55.83-1.08,1.25-1.61.44-.55.86-1.13,1.33-1.66.69-.78,1.3-1.64,2.11-2.32.42-.35.75-.82,1.13-1.21.31-.32.64-.63.97-.93.42-.38.86-.75,1.29-1.13.46-.42.89-.86,1.36-1.26.38-.32.78-.6,1.19-.88.49-.35.99-.68,1.47-1.03.6-.44,1.19-.91,1.81-1.33.59-.39,1.21-.73,1.81-1.1.15-.09.3-.17.45-.25.29-.17.58-.36.87-.52.8-.44,1.61-.87,2.41-1.3.02,0,.03-.03.05-.04.81-.34,1.61-.68,2.41-1.02.38-.15.75-.31,1.13-.46.3-.11.6-.24.91-.32.52-.12,1.04-.21,1.52-.53.25-.17.61-.19.92-.29.68-.21,1.35-.44,2.03-.63.42-.11.85-.11,1.27-.21.75-.17,1.49-.38,2.25-.55.55-.11,1.1-.17,1.66-.24,1.22-.14,2.44-.27,3.66-.38,1.12-.11,2.23-.22,3.34-.28.88-.05,1.77.02,2.65-.02,2.01-.09,4,.11,5.98.45,1.06.18,2.14.21,3.21.33.29.03.58.14.87.2.84.19,1.68.39,2.53.53.49.08.96.2,1.43.38.5.2,1.04.29,1.57.4.34.07.64.17.95.38.29.2.67.28,1.02.36.51.11,1.02.19,1.42.56.02.02.03.02.06.03.82.2,1.54.62,2.3.97.93.42,1.87.84,2.74,1.39.06.03.11.08.17.09.8.18,1.38.77,2.09,1.12.62.31,1.15.82,1.72,1.22.52.38,1.07.72,1.58,1.1.56.42,1.1.86,1.65,1.3.32.25.64.5.96.76.57.46,1.15.91,1.7,1.39.45.39.86.83,1.3,1.23.44.4.91.77,1.35,1.17.44.4.86.82,1.31,1.21.64.56,1.32,1.11,1.96,1.67.6.52,1.2,1.05,1.79,1.59.55.5,1.51.51,2.01.03.89-.84,1.79-1.67,2.7-2.49.75-.67,1.52-1.31,2.29-1.96.29-.24.6-.48.89-.73.46-.38.9-.79,1.37-1.16.77-.59,1.56-1.14,2.32-1.72.42-.33.79-.71,1.22-1.03.6-.44,1.23-.84,1.85-1.26.15-.11.32-.22.47-.33.08-.07.15-.19.24-.22.66-.23,1.15-.73,1.74-1.07.16-.1.31-.23.47-.33.21-.15.43-.28.64-.42.29-.19.57-.37.86-.55.15-.09.29-.16.44-.25.33-.19.67-.38.99-.57.16-.1.33-.2.5-.29.3-.16.6-.32.91-.48.02,0,.03-.03.05-.04.82-.38,1.63-.75,2.45-1.12.21-.1.49-.11.66-.25.49-.42,1.07-.53,1.66-.66.15-.03.32-.07.42-.15.49-.42,1.09-.48,1.69-.59.27-.05.55-.12.8-.25.56-.3,1.17-.43,1.79-.51.45-.06.91-.11,1.32-.28.77-.33,1.57-.42,2.4-.48,1.3-.08,2.58-.24,3.83-.56.25-.07.51-.1.77-.11,2.67-.04,5.35-.11,8.02-.09,1.14,0,2.27.12,3.41.33,1.26.24,2.56.35,3.84.52.21.02.44.03.63.12.77.36,1.6.5,2.45.58.5.05.95.19,1.42.4.48.22,1.04.29,1.55.44.29.08.56.2.84.3.38.14.77.28,1.15.41.14.05.31.04.44.1.88.38,1.75.77,2.63,1.15.07.03.14.11.21.14.77.36,1.55.72,2.33,1.08.02,0,.04,0,.07.02.68.39,1.36.79,2.04,1.18.15.09.29.2.44.26.44.18.84.39,1.21.71.48.42,1.08.68,1.61,1.04.56.38,1.11.78,1.65,1.19.57.42,1.13.86,1.68,1.3.51.42,1,.85,1.51,1.27.29.24.6.49.87.75.72.67,1.43,1.34,2.14,2.03.38.38.72.79,1.08,1.18.42.45.86.89,1.27,1.34.29.31.58.62.85.95.4.5.76,1.04,1.18,1.52.47.53.73,1.19,1.24,1.71.46.48.75,1.13,1.12,1.72.03.06.05.12.09.17.38.54.78,1.07,1.16,1.61.12.17.21.38.31.56.08.15.12.34.24.45.33.31.42.74.64,1.1.4.66.77,1.33,1.1,2.02.15.31.33.6.49.9.03.06.04.13.08.18.44.57.55,1.3.88,1.91.38.7.56,1.43.77,2.17.02.08.03.18.09.24.5.6.49,1.36.64,2.07.04.21.09.44.21.6.37.52.41,1.12.51,1.71.09.51.19,1.03.38,1.5.22.53.32,1.08.37,1.63.08.99.28,1.96.55,2.92.15.51.2,1.06.22,1.6.09,2.24.15,4.48.23,7.03h.02ZM70.89,165.01v-.09c-1.34.07-2.67.11-4,.21-.57.05-1.14.23-1.7.35-.48.11-.95.3-1.44.33-1.37.07-2.49.92-3.81,1.16-.02,0-.03.02-.06.03-.41.18-.82.36-1.23.53-.2.08-.45.1-.6.24-.69.64-1.71.66-2.42,1.31-.52.48-1.24.75-1.85,1.14-.38.24-.74.5-1.08.79-.42.36-.79.79-1.22,1.13-1.2.92-2.29,1.95-3.3,3.07-.47.53-.91,1.08-1.37,1.63-.36.42-.72.85-1.06,1.28-.15.18-.27.38-.4.57-.16.25-.32.51-.47.76-.15.24-.29.47-.42.71-.08.15-.15.3-.24.46-.19.38-.38.76-.56,1.14-.08.17-.11.38-.24.52-.38.45-.51.99-.63,1.54-.06.27-.13.55-.27.78-.31.53-.48,1.1-.55,1.7-.04.32-.09.65-.23.93-.32.65-.45,1.35-.55,2.05-.14,1.09-.3,2.18-.46,3.26-.26,1.78-.25,3.57-.1,5.36.05.62.24,1.22.35,1.83.03.19.06.38.08.58.05.54.07,1.08.15,1.61.08.53.14,1.08.36,1.57.24.52.35,1.05.46,1.61.08.39.24.77.38,1.16.15.4.29.8.46,1.2.34.85.69,1.7,1.05,2.54.04.1.15.16.2.24.09.12.19.24.24.38.32.91.92,1.63,1.47,2.4.33.45.69.87.99,1.35.38.62.9,1.13,1.39,1.66.38.41.76.82,1.13,1.23.94,1.06,1.88,2.13,2.81,3.19.27.3.54.6.82.89.39.39.8.77,1.19,1.16.29.29.57.58.85.87.38.41.75.82,1.13,1.22.28.29.57.57.87.85.42.39.85.77,1.27,1.16.27.24.55.47.8.73.39.39.74.82,1.15,1.21.99.95,2.02,1.86,3.02,2.8,1.31,1.25,2.61,2.51,3.91,3.77,1.44,1.41,2.89,2.83,4.33,4.25.69.68,1.39,1.34,2.09,2.01.91.9,1.81,1.81,2.73,2.71.8.78,1.62,1.56,2.43,2.32.33.31.66.6.99.91.45.42.91.82,1.35,1.24.39.37.76.76,1.14,1.13.5.47,1.01.93,1.51,1.4.34.33.66.67,1.01.99.9.84,1.82,1.65,2.7,2.5,1.7,1.66,3.37,3.33,5.06,5,1.23,1.21,2.49,2.38,3.72,3.59.84.83,1.65,1.7,2.48,2.54.55.55,1.11,1.08,1.67,1.61.41.38.77.82,1.24,1.1.58.37,1.06.89,1.76,1.05.08.02.15.09.21.14.81.6,1.71,1.01,2.63,1.42.15.07.37.07.48.18.49.46,1.11.55,1.72.68.16.03.34.09.48.18.6.39,1.28.49,1.97.55.37.03.73.07,1.1.07,2.14.04,4.27.15,6.39-.2.29-.05.63-.07.87-.22.52-.31,1.1-.36,1.67-.45.5-.07.97-.18,1.36-.54.15-.13.39-.17.59-.25.84-.37,1.68-.74,2.52-1.12.1-.04.16-.14.25-.2.15-.11.31-.25.49-.32.67-.23,1.18-.72,1.68-1.16,1.18-1.04,2.29-2.15,3.42-3.25,1.41-1.36,2.81-2.73,4.22-4.09.85-.82,1.71-1.62,2.56-2.45.8-.77,1.58-1.57,2.38-2.34.33-.33.68-.64,1.02-.97.39-.39.76-.81,1.16-1.19s.82-.74,1.23-1.12c.51-.47,1.01-.96,1.51-1.44.09-.09.15-.2.24-.29.13-.14.27-.26.41-.39.14-.13.29-.24.42-.38.37-.38.72-.78,1.1-1.16.39-.38.82-.75,1.22-1.12.25-.23.51-.44.75-.68.64-.68,1.27-1.38,1.92-2.05.35-.37.73-.72,1.1-1.07.39-.37.79-.71,1.17-1.08.44-.43.86-.88,1.3-1.31.39-.39.82-.76,1.21-1.14.46-.45.91-.91,1.35-1.36.38-.38.74-.77,1.11-1.15s.72-.78,1.1-1.16c.41-.4.86-.77,1.26-1.17.67-.66,1.31-1.35,1.98-2.01.74-.74,1.5-1.47,2.26-2.19.7-.67,1.39-1.35,2.1-2.01,1.06-.98,2.14-1.94,3.2-2.92.69-.64,1.37-1.29,2.05-1.92.41-.38.82-.73,1.24-1.11.3-.27.6-.54.89-.82.4-.41.77-.84,1.19-1.24.82-.79,1.65-1.56,2.46-2.35.32-.31.63-.64.94-.96.45-.46.9-.91,1.34-1.39.35-.37.7-.74,1.04-1.13.42-.51.86-1,1.24-1.54.37-.52.86-.97,1.04-1.61,0-.04.05-.07.08-.1.33-.25.44-.63.57-.99.06-.16.08-.37.2-.47.39-.35.46-.86.69-1.29.38-.68.73-1.35.91-2.12,0-.04.04-.08.07-.11.39-.49.51-1.08.63-1.68.04-.21.05-.46.16-.62.46-.62.52-1.35.64-2.07.07-.38.1-.78.24-1.13.29-.64.43-1.31.5-2,.28-2.86.2-5.73,0-8.59-.04-.64-.22-1.27-.35-1.9-.12-.57-.27-1.13-.41-1.69-.13-.55-.25-1.09-.4-1.63-.15-.51-.3-1.03-.48-1.53-.37-1-.75-2-1.13-2.99-.03-.07-.11-.13-.15-.21-.09-.17-.21-.33-.25-.51-.2-.8-.8-1.36-1.19-2.05-.37-.64-.87-1.21-1.31-1.82-.35-.48-.66-.99-1.06-1.43-.62-.68-1.29-1.31-1.95-1.95-.29-.29-.64-.51-.91-.81-.47-.54-1.08-.89-1.62-1.33-.51-.4-.98-.85-1.61-1.04-.04,0-.07-.06-.1-.08-.72-.59-1.53-.99-2.35-1.42-.68-.36-1.35-.75-2.09-.99-.06-.02-.11-.07-.15-.11-.33-.3-.75-.41-1.17-.5-.29-.06-.57-.16-.86-.27-.48-.17-.95-.38-1.44-.53-.35-.11-.74-.07-1.08-.19-2.08-.71-4.24-.77-6.39-.8-1.61-.02-3.24.03-4.84.12-.92.06-1.86.17-2.74.42-.68.2-1.38.33-2.07.46-.4.07-.83.14-1.17.33-.48.28-.98.42-1.51.55-.33.08-.63.26-.93.41-.14.07-.25.17-.4.21-.56.15-1.05.42-1.56.71-.55.33-1.18.52-1.74.9-.45.29-1.06.32-1.43.8-.07.09-.24.08-.35.15-.28.15-.55.32-.83.49-.15.09-.28.2-.42.29-.62.38-1.26.73-1.87,1.11-.4.24-.79.51-1.17.77-.6.42-1.14.92-1.77,1.28-.66.38-1.18.91-1.77,1.35-.53.4-1.03.86-1.58,1.22-.81.53-.91,1.45-.19,2.09.13.11.24.24.36.37.45.46.89.93,1.35,1.39.29.29.62.54.91.83.95.96,1.88,1.94,2.83,2.89,1.21,1.21,2.45,2.39,3.68,3.59,1.08,1.07,2.15,2.14,3.22,3.21.3.3.61.6.91.9.41.41.81.82,1.21,1.22.3.3.61.6.93.88.39.36.8.69,1.18,1.06.4.38.77.8,1.16,1.18.4.38.82.73,1.22,1.13.31.3.63.6.86.95.38.57.88,1.04,1.21,1.66.2.4.42.79.63,1.18.41.77.73,1.55.96,2.37.02.06.07.11.1.17.12.34.29.68.34,1.03.26,1.89.19,3.78,0,5.67-.02.27-.13.55-.23.8-.16.42-.35.82-.53,1.24-.06.14-.1.29-.18.42-.44.66-.87,1.32-1.34,1.96-.26.36-.6.66-.9,1-.48.56-1.08.99-1.73,1.31-.91.46-1.83.96-2.89,1.04-.19.02-.36.13-.55.2-1.32.47-2.72.54-4.01.14-1.08-.33-2.22-.48-3.22-1.1-.53-.33-1.17-.49-1.71-.87-.38-.27-.76-.55-1.14-.81-.96-.63-1.81-1.37-2.6-2.19-.18-.19-.38-.35-.56-.53-1.27-1.22-2.54-2.45-3.81-3.67-.66-.64-1.3-1.3-1.96-1.95-.68-.66-1.37-1.3-2.05-1.96-1.26-1.26-2.52-2.53-3.78-3.78-.64-.64-1.3-1.25-1.94-1.88-.72-.71-1.4-1.44-2.12-2.16-.62-.62-1.27-1.21-1.88-1.83-.94-.95-1.85-1.92-2.78-2.86-.73-.75-1.49-1.48-2.23-2.23-.91-.92-1.79-1.85-2.7-2.76-.97-.97-1.97-1.92-2.95-2.89-.88-.88-1.73-1.79-2.61-2.68-.67-.67-1.39-1.3-2.03-1.98-1.57-1.66-3.19-3.26-4.91-4.76-.33-.29-.68-.59-1-.89-.42-.38-.82-.79-1.26-1.17-.51-.43-1.04-.82-1.55-1.24-.37-.29-.74-.58-1.1-.89-.42-.37-.79-.78-1.23-1.11-.55-.41-1.14-.73-1.72-1.1-.11-.07-.2-.15-.32-.22-.73-.41-1.45-.82-2.18-1.21-.03-.02-.08-.02-.12-.03-.82-.36-1.64-.72-2.46-1.08-.04-.02-.07-.04-.11-.07-.33-.37-.77-.43-1.22-.53-.36-.07-.76-.1-1.05-.29-.61-.39-1.28-.48-1.96-.6-.4-.07-.79-.19-1.18-.29-.29-.07-.58-.2-.87-.23-1.12-.11-2.23-.22-3.34-.29-.62-.04-1.25,0-1.88,0l-.07.02Z"/>
      <path class="cls-4" d="M111.26,240.99c-.11,1.22-.11,2.45-.38,3.61-.24.98-.51,1.99-1.12,2.85-.05.07-.11.14-.14.22-.16.68-.71,1.14-1.16,1.57-.48.46-.95,1.05-1.73,1.16-.29.04-.57.18-.84.31-.54.26-1.07.26-1.63.08-.61-.2-1.25-.34-1.86-.55-.28-.09-.54-.24-.78-.4-.44-.29-.86-.64-1.3-.93-.75-.5-1.45-1.06-2.12-1.66-.47-.42-1.05-.72-1.58-1.07-.12-.08-.25-.16-.37-.26-.08-.07-.15-.18-.24-.21-.86-.31-1.54-1-2.48-1.17-.33-.06-.64-.24-.96-.34-.41-.13-.82-.29-1.24-.33-.9-.09-1.8-.17-2.71-.15-1.23.02-2.35-.38-3.39-.91-.55-.28-1.07-.73-1.56-1.17-.53-.49-.74-1.14-1.19-1.66-.15-.16-.21-.42-.24-.65-.2-1.22-.24-2.44-.03-3.67.08-.46.15-.93.48-1.31.11-.12.12-.32.2-.46.18-.31.36-.63.59-.91.39-.51.81-.99,1.23-1.47.31-.35.64-.68.99-.99.62-.53,1.21-1.09,1.9-1.52.62-.38,1.13-.92,1.84-1.15.2-.07.36-.24.54-.35.16-.11.32-.24.5-.29.5-.15.99-.29,1.39-.65.03-.02.07-.05.11-.06,2.26-.73,4.52-1.43,6.94-1.04.36.06.73.08,1.09.12.54.06,1.07.12,1.52.46.15.11.36.15.55.2.52.14.99.36,1.47.64.51.31,1.05.55,1.56.88,1.16.78,2.07,1.78,2.86,2.92.38.55.76,1.08,1.14,1.62.02.03.06.07.07.11.33.82.67,1.62.99,2.44.18.46.35.92.51,1.39.08.22.19.44.21.68.13,1.37.24,2.75.36,4.11v-.02Z"/>
      <path class="cls-4" d="M103.9,209.45c-.07.79-.15,1.63-.24,2.46-.05.43-.11.86-.44,1.19-.03.03-.06.07-.07.11-.12.88-.72,1.54-1.12,2.29-.32.6-.77,1.11-1.24,1.61-.46.5-1.08.76-1.57,1.21-.15.14-.37.24-.57.29-1.19.3-2.39.26-3.58-.04-.15-.03-.3-.08-.42-.17-.62-.49-1.31-.92-1.8-1.52-.42-.53-1.04-.99-1.11-1.76,0-.02,0-.04-.02-.06-.79-1.22-.78-2.66-1.08-4.01-.1-.46-.03-.99.03-1.48.11-.81.29-1.61.42-2.41.07-.41.17-.78.46-1.12.17-.2.24-.5.32-.76.11-.33.27-.6.51-.87.36-.42.62-.92,1.04-1.28.54-.44.99-.99,1.7-1.19.3-.09.58-.28.87-.39.24-.1.48-.2.73-.22.51-.03,1.04-.02,1.55-.02.04,0,.1,0,.13,0,.68.44,1.55.48,2.12,1.13.39.44.91.77,1.27,1.23.42.52.76,1.13,1.12,1.7.16.27.3.56.43.86.11.28.24.56.28.85.1.77.15,1.54.23,2.36h.02Z"/>
      <path class="cls-4" d="M106.68,217.25c-.02-1.04-.02-1.89.38-2.7.15-.3.2-.66.28-.99.09-.42.16-.85.52-1.15.05-.04.1-.1.11-.16.14-.76.71-1.26,1.13-1.83.33-.43.82-.73,1.19-1.14.5-.57,1.17-.82,1.79-1.21.3-.19.59-.33.93-.4,1.16-.22,2.32-.15,3.47.09.2.04.39.17.59.25.73.33,1.35.85,1.84,1.43.44.52.91,1.08,1.08,1.8.11.47.34.92.51,1.39.07.18.13.37.13.55.02.71.02,1.42,0,2.13,0,.25-.08.51-.15.76-.16.63-.32,1.25-.51,1.87-.1.32-.26.62-.41.93-.06.11-.15.21-.19.33-.39,1.31-1.27,2.28-2.28,3.13-.64.53-1.3,1.05-2.14,1.27-.16.04-.33.09-.48.18-1.14.64-2.31.51-3.49.13-.33-.11-.66-.21-.96-.37-.79-.41-1.48-.94-1.92-1.74-.15-.26-.31-.51-.47-.76-.05-.07-.12-.14-.14-.22-.26-1.25-1.08-2.38-.8-3.58h0Z"/>
      <path class="cls-4" d="M114.64,235.97c.05-.79-.03-1.63.18-2.37.27-.93.54-1.88,1.09-2.71.05-.07.11-.14.14-.22.33-.86,1.01-1.45,1.56-2.16.61-.8,1.47-1.29,2.19-1.95.02-.02.03-.03.06-.03,1.17-.37,2.27-1.1,3.59-.81.33.07.66.18.99.28.83.24,1.61.6,2.27,1.19.1.09.25.13.3.24.32.7.91,1.25,1.12,2.01.11.39.29.77.42,1.14.07.18.16.36.18.55.12,1.12.16,2.23-.21,3.32-.06.16-.16.32-.18.48-.11.99-.67,1.8-1.13,2.64-.29.53-.73.99-1.13,1.45-.39.44-.79.91-1.27,1.24-.61.42-1.09,1.04-1.87,1.21-.16.03-.36.08-.47.19-.41.39-.93.44-1.44.46-.67.03-1.34.02-2.01,0-.47-.02-.95-.08-1.31-.46-.07-.07-.18-.13-.29-.15-.73-.12-1.14-.73-1.66-1.15-.12-.1-.17-.29-.25-.44-.19-.36-.4-.72-.55-1.09-.12-.32-.21-.66-.23-.99-.03-.62,0-1.25,0-1.88h-.07Z"/>
      <path class="cls-4" d="M74.81,219.59c.06-.99.09-1.98.18-2.97.03-.33.2-.64.31-.96.03-.1.12-.19.15-.29.16-.77.53-1.43.97-2.09.43-.64.91-1.2,1.54-1.67.53-.4,1.08-.67,1.71-.85.55-.16,1.1-.2,1.66-.11.55.09,1.13.15,1.65.33.76.29,1.47.67,2.05,1.27.46.49.73,1.11,1.11,1.64.59.82.59,1.85,1.14,2.65.16,1.3.27,2.63-.08,3.91-.17.64-.43,1.26-.56,1.92-.07.33-.26.63-.4.94-.05.1-.15.17-.18.27-.11.52-.51.89-.75,1.33-.33.61-.86,1.01-1.29,1.52-.13.15-.35.24-.53.35-.28.17-.55.34-.83.49-.19.1-.38.2-.59.25-.96.22-1.93.2-2.89,0-.29-.06-.54-.24-.81-.38-.62-.32-1.02-.89-1.54-1.33-.11-.09-.19-.24-.27-.36-.22-.34-.44-.68-.65-1.03-.08-.13-.15-.26-.2-.4-.05-.12-.07-.25-.12-.37-.2-.43-.45-.84-.57-1.29-.11-.43-.11-.9-.14-1.35-.02-.47,0-.95,0-1.42h-.06v-.02Z"/>
    </g>
  </g>
</svg>