<?xml version="1.0" encoding="UTF-8"?>
<svg id="Logos_Kit_De_Herramientas" data-name="Logos Kit De Herramientas" xmlns="http://www.w3.org/2000/svg" viewBox="0 0 517.9 441.7">
  <defs>
    <style>
      .cls-1 {
        fill: #9696fb;
      }

      .cls-2 {
        fill: #00005b;
      }
    </style>
  </defs>
  <g id="Diseño_Grafico" data-name="Diseño Grafico">
    <g id="After_Effects" data-name="After Effects">
      <g>
        <rect class="cls-2" x="54.96" y="16.86" width="407.98" height="407.98" rx="66.71" ry="66.71"/>
        <g>
          <path class="cls-1" d="M420.66,270.2c5.73,9.31,7.89,30.39,1.95,40.78-24.41,10.64-55.47,8.63-81.78,3.04-35.62-7.56-53.15-39.41-52.14-73.98.73-25.15,8.83-47.32,25.2-61.09,18.72-15.75,42.36-19.84,67.48-15.21,41.74,7.69,62.04,52.52,51.01,90.83l-92.02.98c16.48,30.31,48.55,26.79,80.3,14.64ZM385.87,223.66c-3.44-17.04-15.15-22.98-25.93-21.93-11.28,1.1-20.17,10.3-22.08,23.42,17.35.02,30.91,1.99,48.02-1.49Z"/>
          <path class="cls-1" d="M220.14,292.78c-22.72-9.78-47.59-1.81-71.29-4.18l-11.23,28.14c-17.88,1.86-34.05,1.8-55.07-.11l70.79-192.23c22.01-2.33,40.76-.85,64.26-.7l69.49,193.03c-21.22,1.39-37.61,2.24-55.56-.08-8.08-1.05-4.66-20.57-11.39-23.87ZM203.64,238.23l-19.02-57.4c-10.77,21.22-14.25,38.2-20.15,56.93,13.06,2.96,23.63,4.26,39.17.47Z"/>
        </g>
      </g>
    </g>
  </g>
</svg>