<?xml version="1.0" encoding="UTF-8"?>
<svg id="Logos_Kit_De_Herramientas" data-name="Logos Kit De Herramientas" xmlns="http://www.w3.org/2000/svg" viewBox="0 0 517.9 441.7">
  <defs>
    <style>
      .cls-1 {
        fill: #26b5f8;
      }

      .cls-2 {
        fill: #ed3049;
      }

      .cls-3 {
        fill: #ffbf00;
      }
    </style>
  </defs>
  <g id="Trabajo_Colaborativo" data-name="Trabajo Colaborativo">
    <g id="Airtable">
      <g>
        <path class="cls-3" d="M232.74,20.65L49.94,96.29c-10.17,4.21-10.06,18.65.17,22.7l183.56,72.79c16.13,6.4,34.09,6.4,50.22,0l183.57-72.79c10.23-4.05,10.33-18.49.17-22.7L284.82,20.65c-16.68-6.9-35.41-6.9-52.09,0"/>
        <path class="cls-1" d="M275.06,231.53v181.85c0,8.65,8.72,14.57,16.76,11.38l204.54-79.39c4.67-1.85,7.73-6.36,7.73-11.38v-181.85c0-8.65-8.72-14.57-16.76-11.38l-204.55,79.39c-4.67,1.85-7.73,6.36-7.73,11.38"/>
        <path class="cls-2" d="M227.3,240.91l-60.7,29.31-6.16,2.98-128.14,61.4c-8.12,3.92-18.49-2-18.49-11.02v-170.68c0-3.26,1.67-6.08,3.92-8.21.94-.94,2-1.71,3.1-2.33,3.06-1.84,7.43-2.33,11.14-.86l194.32,76.99c9.88,3.92,10.65,17.76,1.02,22.41"/>
        <path d="M227.3,240.91l-60.7,29.31L17.72,144.69c.94-.94,2-1.71,3.1-2.33,3.06-1.84,7.43-2.33,11.14-.86l194.32,76.99c9.88,3.92,10.65,17.76,1.02,22.41"/>
      </g>
    </g>
  </g>
</svg>