<?xml version="1.0" encoding="UTF-8"?>
<svg id="Capa_8" data-name="Capa 8" xmlns="http://www.w3.org/2000/svg" viewBox="0 0 517.9 441.7">
  <defs>
    <style>
      .cls-1 {
        fill: #010101;
      }

      .cls-2 {
        fill: #030302;
      }

      .cls-3 {
        fill: #5d9beb;
      }

      .cls-4 {
        fill: #8085a4;
      }

      .cls-5 {
        fill: #3a426f;
      }

      .cls-6 {
        fill: #656c77;
      }
    </style>
  </defs>
  <path class="cls-1" d="M468.84,131.61v214.05c-3.97,13.84-15.05,29.07-31.65,29.1l-313.43.6c-4.26,0-6.83-2.57-6.9-6.05-.06-3.18,1.84-6.52,6.06-6.53l271.96-.29,37.06.28c13.85.11,24.6-10.44,24.6-24.61l-.03-199.9c0-13.92-10.98-24.33-24.58-24.2l-36.21.33-13.09-.37c-8.68-.25-17.4-1.76-24.63-6.3-8.1-5.08-16.8-25.3-21.61-34.62-4.34-8.4-12.17-13.6-21.73-13.54l-37.1.23-74.41-.19c-9.59-.02-17.81,4.77-22.02,13.24l-10.61,21.34c-6.11,12.29-18.33,19.86-32.18,19.88l-53.3.08c-13.31.02-23.79,10.62-23.78,24.12l.04,200.75c0,13.37,10.83,23.65,23.61,23.72l12.45.08c4.02.02,5.84,3.33,5.71,6.63-.09,2.24-1.89,5.65-4.98,5.67-5.49.02-10.77.56-16.4-.03-8.67-.92-17.56-4.9-23.37-11.77-4.25-5.02-9.27-12.18-9.26-19.47l.27-210.56c.02-17.36,17.87-30.47,32.93-31.54.97-6.2-.74-11.65,2.1-16.91,1.37-2.53,4.9-6.28,8.09-6.29l36.88-.15c6.5-.03,11.11,5.5,11.31,11.52l.37,11.66c17.95-3.29,20.68-18.74,28.68-34.05,5.18-9.93,15.46-19.96,27.99-19.95l122.4.05c13.61,0,23.37,11.98,28.75,22.43l7.97,15.51c3.69,7.18,9.72,15.27,18.73,15.38l59.42.7c17.46.21,30.11,13.87,33.9,29.95ZM95.45,90.8v11.16h32.56v-11.16h-32.56Z"/>
  <path class="cls-6" d="M277.56,59.79c.07,1.57,1.64,2.37,2.72,3.67,3.74,4.51,6.38,9.66,8.23,14.88l-59.95.22c-3.75.01-6.18,2.83-6.23,6s2.43,6.24,6.21,6.24l58.22.02c1.91,0,4.89.18,6.53-1.09,1.16-.1,1.85.67,2.44,1.85,5.32,10.52,16.08,16.43,27.96,16.36l34.32-.21c7.23,4.54,15.95,6.05,24.63,6.3l13.09.37c-.07,1.08.64,1.77,1.52,2.71,5.12,5.53,8.44,12.27,8.44,20.37l-.06,203.16c0,9.19-5.32,15.72-10.73,21.87l-271.96.29c-4.22,0-6.12,3.34-6.06,6.53l-13.79.12c.13-3.31-1.69-6.61-5.71-6.63l-12.45-.08c-12.78-.08-23.61-10.36-23.61-23.72l-.04-200.75c0-13.51,10.48-24.1,23.78-24.12l53.3-.08c13.85-.02,26.07-7.58,32.18-19.88l10.61-21.34c4.21-8.47,12.44-13.26,22.02-13.24l74.41.19ZM117.86,149.6c0-11.08-8.98-20.05-20.05-20.05s-20.05,8.98-20.05,20.05,8.98,20.05,20.05,20.05,20.05-8.98,20.05-20.05ZM190.72,154.4c-1.28.04-2.35.53-3.54,1.29-44.3,28.1-60,84.57-37.36,131.17,22.73,46.77,77.08,69.3,126.76,51.6,1.12-.4,2.35-.38,2.09-1.8,41.52-7.88,74.19-41.29,82.4-81.06,9.28-44.96-11.1-88.53-48.18-110.95-39.56-23.92-87.27-18.62-122.18,9.75Z"/>
  <path class="cls-6" d="M394.89,362.5c5.41-6.14,10.72-12.67,10.73-21.87l.06-203.16c0-8.1-3.32-14.83-8.44-20.37-.88-.95-1.58-1.63-1.52-2.71l36.21-.33c13.6-.12,24.58,10.29,24.58,24.2l.03,199.9c0,14.18-10.75,24.72-24.6,24.61l-37.06-.28ZM427.46,147.89c4.33,0,6.59-3.43,6.23-6.84-.34-3.22-2.95-5.45-6.65-5.44l-9.09.03c-3.66.01-6.1,2.89-6.08,6.21.02,3.07,2.45,6.02,6.07,6.02h9.52Z"/>
  <path class="cls-6" d="M358,107.72l-34.32.21c-11.87.07-22.63-5.84-27.96-16.36-.59-1.17-1.28-1.94-2.44-1.85,2.01-1.56,2.55-5.04,1.86-7.07-.91-2.69-3.41-4.03-6.63-4.33-1.85-5.22-4.5-10.37-8.23-14.88-1.08-1.31-2.66-2.1-2.72-3.67l37.1-.23c9.56-.06,17.39,5.14,21.73,13.54,4.82,9.33,13.51,29.54,21.61,34.62Z"/>
  <path class="cls-6" d="M190.72,154.4c-35.68,32.12-46.95,82.39-25.32,126.01,20.7,41.74,67.04,65.01,113.27,56.24.26,1.42-.97,1.4-2.09,1.8-49.68,17.7-104.03-4.83-126.76-51.6-22.65-46.6-6.94-103.06,37.36-131.17,1.19-.76,2.26-1.25,3.54-1.29Z"/>
  <path class="cls-2" d="M288.51,78.33c3.22.29,5.72,1.63,6.63,4.33.69,2.03.15,5.52-1.86,7.07-1.64,1.27-4.62,1.09-6.53,1.09l-58.22-.02c-3.78,0-6.26-3.01-6.21-6.24s2.49-5.98,6.23-6l59.95-.22Z"/>
  <path class="cls-2" d="M427.46,147.89h-9.52c-3.63-.01-6.05-2.97-6.07-6.03-.02-3.32,2.42-6.2,6.08-6.21l9.09-.03c3.7-.01,6.31,2.22,6.65,5.44.36,3.41-1.9,6.84-6.23,6.84Z"/>
  <g>
    <rect class="cls-3" x="95.45" y="90.8" width="32.56" height="11.16"/>
    <g>
      <path class="cls-2" d="M117.86,149.6c0,11.08-8.98,20.05-20.05,20.05s-20.05-8.98-20.05-20.05,8.98-20.05,20.05-20.05,20.05,8.98,20.05,20.05ZM105.53,149.59c0-4.26-3.46-7.72-7.72-7.72s-7.72,3.46-7.72,7.72,3.46,7.72,7.72,7.72,7.72-3.46,7.72-7.72Z"/>
      <circle class="cls-4" cx="97.81" cy="149.59" r="7.72"/>
    </g>
  </g>
  <g>
    <path class="cls-2" d="M278.67,336.65c-46.23,8.77-92.58-14.5-113.27-56.24-21.63-43.62-10.36-93.89,25.32-126.01,34.91-28.38,82.62-33.67,122.18-9.75,37.08,22.42,57.46,65.98,48.18,110.95-8.21,39.76-40.89,73.18-82.4,81.06ZM351,234.01c0-50.87-41.24-92.11-92.11-92.11s-92.11,41.24-92.11,92.11,41.24,92.11,92.11,92.11,92.11-41.24,92.11-92.11Z"/>
    <path class="cls-3" d="M351,234.01c0,50.87-41.24,92.11-92.11,92.11s-92.11-41.24-92.11-92.11,41.24-92.11,92.11-92.11,92.11,41.24,92.11,92.11ZM319.57,200.49c-2.07-4.11-4.78-8.66-8.24-11.68,1.02-2.36,3.13-6.1.66-8.58-27.74-27.83-72.55-28.98-102.07-3.88-29.7,25.26-35.42,69.03-12.92,101.05,22.31,31.77,65.24,41.8,99.18,22.4s47.98-60.92,31.62-96.92c-1.05-2.31-6.19-3.67-8.23-2.4Z"/>
    <path class="cls-5" d="M311.33,188.82c3.46,3.01,6.17,7.57,8.24,11.68-2.97,1.85-3.61,5.84-2.31,8.93,12.77,30.31.12,64.73-28.07,80.16-28.5,15.6-64.05,6.87-82.37-19.58-18.57-26.81-13.65-63.18,10.94-84.17,24.71-21.1,61.58-20.22,85.2,2.65,2.53,2.45,5.7.72,8.36.34Z"/>
    <path class="cls-2" d="M311.33,188.82c-2.66.38-5.83,2.11-8.36-.34-23.62-22.87-60.49-23.75-85.2-2.65-24.59,21-29.51,57.36-10.94,84.17,18.32,26.45,53.87,35.17,82.37,19.58,28.19-15.43,40.84-49.85,28.07-80.16-1.3-3.09-.67-7.08,2.31-8.93,2.04-1.26,7.18.09,8.23,2.4,16.36,35.99,1.97,77.72-31.62,96.92s-76.88,9.36-99.18-22.4c-22.49-32.03-16.77-75.8,12.92-101.05,29.52-25.11,74.33-23.95,102.07,3.88,2.47,2.48.36,6.22-.66,8.58Z"/>
  </g>
</svg>