<?xml version="1.0" encoding="UTF-8"?>
<svg id="Logos_Kit_De_Herramientas" data-name="Logos Kit De Herramientas" xmlns="http://www.w3.org/2000/svg" viewBox="0 0 517.9 441.7">
  <defs>
    <style>
      .cls-1 {
        fill: #010101;
      }

      .cls-2 {
        fill: #bb1c21;
      }

      .cls-3 {
        fill: #fcfcfc;
      }

      .cls-4 {
        fill: #fefcfc;
      }

      .cls-5 {
        fill: #fefdfe;
      }
    </style>
  </defs>
  <g id="Diseño_Grafico" data-name="Diseño Grafico">
    <g id="Canon_EOS" data-name="Canon EOS">
      <g>
        <path class="cls-1" d="M503.29,223.8v114.15H14.61v-114.15h488.68ZM133.6,313.8c1.24-3.17,1.75-6.35,1.75-9.87v-44.96c0-8.64-3.68-16.77-12.38-19.39-4.95-1.49-10.18-1.5-15.15-.1-9.11,2.56-12.71,10.9-12.71,19.88v44.58c0,9.23,3.85,17.66,13.28,20,9.6,2.39,21.17.22,25.21-10.13ZM177.25,313.16c1.91-6.03,2.14-12.71-.01-18.74-2.15-6.04-6.17-10.84-10.77-15.16-7.18-6.74-15.87-13.28-13.19-24.36.71-2.95,3.11-4.35,6.03-4.41,3.32-.07,5.89,1.72,6.46,5.1.37,2.2.27,4.39.36,6.72h12.42c.47-9.61-1.88-20.21-12.62-22.97-9.26-2.38-21.17-.29-24.66,9.97-2.02,5.96-2.42,12.6-.52,18.69,5.48,17.65,27.56,22.49,24.43,39.48-.64,3.48-3.21,5.14-6.59,5.16s-6.23-1.87-6.62-5.58c-.44-2.72-.17-5.51-.25-8.65h-12.46c-.18,4.52-.2,8.89.91,13.22,1.61,6.31,6.08,11,12.46,12.43,9.73,2.18,21.24-.21,24.63-10.9ZM86.42,286.95l-.07-11.94-18.16-.08.03-23.43,22.84-.06-.02-12.03-36.1.08v84.34s36.12,0,36.12,0l-.02-12.04-22.84-.07v-24.6s18.22-.17,18.22-.17ZM238.21,239.45h-12.52s-.13,66.92-.13,66.92c0,4.07-3.05,6.36-6.7,6.39s-6.82-2.17-6.83-6.28l-.15-67.03-13.24-.02v64.47c.01,9.24,3.58,17.89,13.11,20.19,4.77,1.15,9.6,1.12,14.3-.29,8.69-2.6,12.12-10.89,12.12-19.5l.02-64.86ZM267.58,323.73v-72.18s13.84-.15,13.84-.15l-.04-11.97h-40.95s.1,12.02.1,12.02l13.78.13v72.24s13.27-.08,13.27-.08ZM297.65,239.42h-13.26s0,84.43,0,84.43h13.26s0-84.43,0-84.43ZM339.18,311.78l-21.68-.07v-72.27s-13.24,0-13.24,0v84.38s35.08-.03,35.08-.03l-.16-12.03ZM342.04,239.42v84.41h13.26v-84.41h-13.26ZM414.29,295.86c2.03,9.36-.77,18.88.81,27.93l12.66-.05c1.57-9.13-1.27-18.69.75-27.73,4.27-19.18,11.3-37.4,16.11-56.58l-12.46.06-10.14,38.01-10.15-38.09h-53.39s-.03,12.01-.03,12.01l13.83.14v72.2s13.26.02,13.26.02v-72.22s13.81-.16,13.81-.16c.34-2.32-.41-4.01.41-6.64,4.23,16.92,10.69,33.44,14.53,51.08Z"/>
        <path class="cls-3" d="M414.29,295.86c-3.83-17.65-10.3-34.16-14.53-51.08-.81,2.63-.06,4.32-.41,6.64l-13.8.16v72.22s-13.27-.02-13.27-.02v-72.2s-13.83-.14-13.83-.14l.03-12.01h53.39s10.15,38.08,10.15,38.08l10.14-38.01,12.46-.06c-4.82,19.18-11.85,37.39-16.11,56.58-2.01,9.04.83,18.6-.75,27.73l-12.66.05c-1.58-9.05,1.23-18.58-.81-27.93Z"/>
        <path class="cls-3" d="M133.6,313.8c-4.04,10.35-15.61,12.52-25.21,10.13-9.44-2.35-13.28-10.78-13.28-20v-44.58c0-8.98,3.6-17.32,12.71-19.88,4.97-1.4,10.19-1.39,15.15.1,8.7,2.62,12.37,10.76,12.37,19.39v44.96c0,3.52-.5,6.7-1.74,9.87ZM119.59,311.39c1.78-1.33,2.47-3.71,2.47-5.86v-47.79c0-2.17-.69-4.5-2.36-5.8-2.49-1.95-6.49-1.97-8.97.02-1.65,1.33-2.34,3.67-2.34,5.87v47.62c0,2.31.76,4.72,2.56,6.01,2.41,1.73,6.13,1.8,8.63-.07Z"/>
        <path class="cls-3" d="M238.21,239.45l-.02,64.86c0,8.62-3.43,16.9-12.12,19.5-4.69,1.4-9.53,1.44-14.3.29-9.54-2.3-13.1-10.95-13.1-20.19v-64.47s13.23.02,13.23.02l.15,67.03c0,4.11,3.22,6.32,6.83,6.28s6.69-2.32,6.7-6.39l.13-66.92h12.52Z"/>
        <path class="cls-3" d="M177.25,313.16c-3.4,10.7-14.9,13.08-24.63,10.9-6.38-1.43-10.85-6.12-12.46-12.43-1.11-4.33-1.09-8.7-.91-13.23h12.46c.09,3.15-.19,5.94.25,8.65.39,3.71,3.19,5.6,6.62,5.58s5.95-1.68,6.59-5.16c3.13-16.98-18.94-21.83-24.43-39.48-1.89-6.09-1.5-12.73.52-18.69,3.49-10.26,15.41-12.35,24.66-9.97,10.74,2.76,13.08,13.36,12.62,22.98h-12.42c-.09-2.34,0-4.52-.36-6.72-.57-3.37-3.14-5.16-6.46-5.1-2.92.06-5.31,1.47-6.03,4.41-2.68,11.07,6.01,17.62,13.19,24.36,4.6,4.32,8.62,9.11,10.77,15.16,2.15,6.03,1.93,12.71.01,18.74Z"/>
        <polygon class="cls-5" points="86.42 286.95 68.21 287.12 68.2 311.71 91.04 311.79 91.06 323.83 54.95 323.82 54.94 239.48 91.04 239.4 91.07 251.43 68.23 251.5 68.2 274.93 86.35 275.01 86.42 286.95"/>
        <polygon class="cls-3" points="267.58 323.73 254.31 323.82 254.31 251.57 240.54 251.45 240.44 239.43 281.39 239.43 281.43 251.4 267.59 251.56 267.58 323.73"/>
        <polygon class="cls-4" points="339.18 311.78 339.34 323.8 304.24 323.83 304.26 239.45 317.49 239.44 317.5 311.71 339.18 311.78"/>
        <rect class="cls-5" x="284.39" y="239.42" width="13.26" height="84.42"/>
        <rect class="cls-5" x="342.04" y="239.42" width="13.26" height="84.41"/>
        <path class="cls-1" d="M119.59,311.39c-2.5,1.87-6.22,1.8-8.63.07-1.8-1.29-2.56-3.7-2.56-6.01v-47.62c0-2.2.69-4.54,2.34-5.87,2.47-1.99,6.48-1.97,8.97-.02,1.67,1.31,2.36,3.63,2.36,5.8v47.79c0,2.15-.69,4.52-2.47,5.86Z"/>
        <path class="cls-4" d="M14.61,223.8v-107.28h488.68v107.28H14.61ZM140.06,196.7c-.8-2.12-.75-3.6-1.56-5.03-11.71,16.3-33.68,19.92-49.81,8.94-16.13-10.98-20.49-33.01-9.82-49.39,10.6-16.28,32.6-21.26,49.18-10.85l-18.6,30.17,35.59-20.36c-5.93-9.29-14.57-15.78-24.59-19.67-9.71-3.46-19.79-4.88-30.07-4.33-10.46.84-20.34,3.24-29.41,8.44-12.94,7.41-21.61,20.6-21.86,35.72-.22,13.84,6.83,26.41,17.94,34.35,23.1,16.51,64.34,14.78,83.01-7.98ZM146.66,179.98c-5.07,7.26-5.01,16.23.02,23.32,3.4,4.79,8.25,8.21,13.85,10.06,14.14,4.66,29.19-.2,38.18-12.1l3.42,12.22,26.19-.05-15.67-57.53c-3.23-11.86-16.66-17.16-27.73-13.11l-30.54,11.18c-.23.08-.37.29-.48.36-.4.24,1.58.25.83.25l31.55.06,5.46,20.86c-8.69-6.87-19.13-9-29.51-6.1-6.28,1.75-11.74,5.09-15.58,10.57ZM276.73,161.16l.02,52.33h26.17s.01-59.14.01-59.14c-.04-4.77-2.73-8.78-6.29-10.97-4.21-2.6-8.85-2.4-13.2-.37l-19.99,9.33c-.79-4.32-3.62-7.74-6.93-9.42-4.23-2.15-8.34-1.85-12.39.07l-24.03,11.39,17.34.3.02,58.8h26.11s-.03-52.97-.03-52.97c.65-3.8,3.47-6.15,7.04-5.92,3.29.21,5.98,2.73,6.13,6.56ZM388.1,178.53c0-20.5-16.62-37.12-37.12-37.12s-37.12,16.62-37.12,37.12,16.62,37.12,37.12,37.12,37.12-16.62,37.12-37.12ZM441.07,160.65v52.83s26.34,0,26.34,0v-59.86c-.55-4.73-3.21-8.52-6.71-10.51-4.34-2.47-8.77-2.07-13.01-.08l-19.75,9.26c-1.02-4.24-3.43-7.49-6.57-9.18-4.09-2.2-8.22-2.29-12.19-.42l-25.1,11.81,17.68.18v58.81s26.3,0,26.3,0l.02-53.36c.74-3.41,3.45-5.68,6.69-5.52s5.92,2.45,6.31,6.05Z"/>
        <path class="cls-2" d="M140.06,196.7c-18.67,22.76-59.91,24.49-83.01,7.98-11.11-7.94-18.17-20.51-17.94-34.35.25-15.12,8.92-28.31,21.86-35.72,9.07-5.19,18.95-7.6,29.41-8.44,10.28-.55,20.36.87,30.07,4.33,10.02,3.89,18.66,10.38,24.59,19.67l-35.59,20.36,18.6-30.17c-16.58-10.41-38.58-5.43-49.18,10.85-10.67,16.39-6.31,38.42,9.82,49.39,16.14,10.98,38.1,7.36,49.81-8.94.82,1.43.76,2.91,1.56,5.03Z"/>
        <path class="cls-2" d="M441.07,160.65c-.39-3.6-3.22-5.9-6.31-6.05-3.25-.16-5.95,2.11-6.69,5.52l-.02,53.36h-26.3s0-58.8,0-58.8l-17.68-.18,25.1-11.81c3.97-1.87,8.11-1.78,12.19.42,3.14,1.69,5.55,4.94,6.57,9.18l19.75-9.26c4.24-1.99,8.67-2.39,13.01.08,3.5,1.99,6.17,5.78,6.7,10.51v59.86s-26.33,0-26.33,0v-52.83Z"/>
        <path class="cls-2" d="M276.73,161.16c-.15-3.84-2.84-6.35-6.13-6.56-3.58-.23-6.39,2.11-7.04,5.92l.03,52.96h-26.11s-.02-58.79-.02-58.79l-17.34-.3,24.03-11.39c4.06-1.92,8.17-2.23,12.39-.07,3.31,1.68,6.14,5.1,6.93,9.42l19.99-9.33c4.36-2.03,8.99-2.23,13.2.37,3.55,2.2,6.25,6.2,6.29,10.97v59.13s-26.19,0-26.19,0l-.02-52.33Z"/>
        <path class="cls-2" d="M146.66,179.98c3.83-5.48,9.3-8.82,15.58-10.57,10.38-2.9,20.81-.77,29.51,6.1l-5.46-20.86-31.55-.06c.75,0-1.23-.01-.83-.25.11-.07.26-.28.48-.36l30.54-11.18c11.07-4.05,24.5,1.25,27.73,13.11l15.67,57.53-26.19.05-3.42-12.22c-8.99,11.9-24.04,16.77-38.18,12.1-5.61-1.85-10.46-5.27-13.85-10.06-5.03-7.09-5.09-16.06-.02-23.32ZM195.3,191.64c0-7.22-5.85-13.08-13.08-13.08s-13.08,5.85-13.08,13.08,5.85,13.08,13.08,13.08,13.08-5.85,13.08-13.08Z"/>
        <path class="cls-2" d="M388.1,178.53c0,20.5-16.62,37.12-37.12,37.12s-37.12-16.62-37.12-37.12,16.62-37.12,37.12-37.12,37.12,16.62,37.12,37.12ZM365.26,200.4l-12.63-47.35c-1.21-4.54-5.27-7.12-9.83-6.18-4.01.83-7.33,5.16-6.14,9.63l12.67,47.52c1.19,4.47,5.34,7.17,9.76,6.23,4.12-.88,7.41-5.17,6.16-9.86Z"/>
        <circle class="cls-3" cx="182.23" cy="191.64" r="13.08"/>
        <path class="cls-3" d="M365.26,200.4c1.25,4.68-2.04,8.97-6.16,9.86-4.41.95-8.57-1.76-9.76-6.23l-12.67-47.52c-1.19-4.48,2.13-8.81,6.14-9.63,4.55-.94,8.62,1.64,9.83,6.18l12.63,47.35Z"/>
      </g>
    </g>
  </g>
</svg>