<?xml version="1.0" encoding="UTF-8"?>
<svg id="Logos_Kit_De_Herramientas" data-name="Logos Kit De Herramientas" xmlns="http://www.w3.org/2000/svg" viewBox="0 0 517.9 441.7">
  <defs>
    <style>
      .cls-1 {
        fill: #030304;
      }

      .cls-2 {
        fill: #fefefe;
      }
    </style>
  </defs>
  <g id="Diseño_Grafico" data-name="Diseño Grafico">
    <g id="CapCut">
      <g>
        <rect class="cls-2" x="56.96" y="18.86" width="403.98" height="403.98" rx="66.05" ry="66.05"/>
        <path class="cls-1" d="M376.68,302.2c-7.34,2.01-31.99-15.4-41.14-17.46-3.91,9.7-12.45,23.58-24.4,23.56l-145.51-.26c-12.9-.02-22.86-15.59-23.99-25.92-1.11-10.11-.38-17.52.11-26.87l50.95-25.74c5.52-2.79,11.11-4.16,16.89-7.77l-68.26-34.27c.42-9.03-.98-16.87.22-25.59,2.14-15.6,15.39-28.53,31.77-28.5l132.72.3c15.01.03,25.37,11.77,29.44,24.81l38.28-18.82c4.8-2.36,2.76,24.97,2.24,27.97l-107.49,54.18,50.68,24.99,57.39,28.34.11,27.04ZM309.73,170.77c1.86-7.34-2.68-10.06-8.68-11.97l-124.36.04c-3.63,0-6.94,2.25-8.25,4.03-1.13,1.53-3.28,6.86-1.23,7.89l71.41,36.11,71.12-36.1ZM308.87,271.1c-10.75-5.97-20.42-10.25-30.63-15.24l-40.05-19.56-69.52,34.74c-3.27,1.63-2.16,6.13-.8,8.56,1.06,1.89,3.56,3.74,6.92,3.73l131.27-.45c3.93-.01,5.61-10.22,2.81-11.78Z"/>
      </g>
    </g>
  </g>
</svg>