<?xml version="1.0" encoding="UTF-8"?>
<svg id="Logos_Kit_De_Herramientas" data-name="Logos Kit De Herramientas" xmlns="http://www.w3.org/2000/svg" viewBox="0 0 517.9 441.7">
  <defs>
    <style>
      .cls-1 {
        fill: #fff;
      }

      .cls-2 {
        fill: #92003a;
      }
    </style>
  </defs>
  <g id="Diseño_Grafico" data-name="Diseño Grafico">
    <g id="Elementor">
      <g>
        <circle class="cls-1" cx="258.95" cy="220.85" r="188.03"/>
        <path class="cls-2" d="M269.32,418.2h-21.21c-.1-.62-.69-.43-1.47-.48-50.79-3.05-98.23-25.8-132.69-63.14-29.56-32.04-47.6-72.76-51.47-116.2-.14-1.62-.42-7.89-.83-6.64v-21.7c.78-2.04.57-4.01.77-6.23C71.07,105.24,151.23,28.28,250.23,23.8c5.76-.26,11.27-.5,17.08-.07l4.48.33c101.28,7.45,179.34,87.26,184.23,187.65,2.56,52.62-16.42,104.18-51.97,142.8-35.48,38.54-83.18,60.14-134.74,63.69ZM209.71,138.52h-33.06v164.75h33.06v-164.75ZM242.37,138.58v33.07h98.97v-33.07h-98.97ZM242.37,204.31v33.09h98.9v-33.09h-98.9ZM242.37,270.14v33.06h98.97v-33.06h-98.97Z"/>
      </g>
    </g>
  </g>
</svg>