<?xml version="1.0" encoding="UTF-8"?>
<svg id="Logos_Kit_De_Herramientas" data-name="Logos Kit De Herramientas" xmlns="http://www.w3.org/2000/svg" viewBox="0 0 517.9 441.7">
  <defs>
    <style>
      .cls-1 {
        fill: #49021f;
      }

      .cls-2 {
        fill: #f73163;
      }
    </style>
  </defs>
  <g id="Diseño_Grafico" data-name="Diseño Grafico">
    <g id="Indesign">
      <g>
        <rect class="cls-1" x="54.96" y="16.86" width="407.98" height="407.98" rx="66.71" ry="66.71"/>
        <g>
          <rect class="cls-2" x="151.04" y="124.17" width="51.03" height="193.91"/>
          <g>
            <path class="cls-2" d="M280.86,320.13c-43.52-8.47-64.56-44.04-61.07-85.02,4.15-48.65,46.49-76.55,95.72-70.54l.59-45.06c17.96-.11,33.47-1.73,50.76,1.46l-.42,189.18c-26.72,11.35-55.65,15.8-85.57,9.98ZM316.71,277.82c-3.55-25.43,3.04-44.88-2.93-66.6-2.49-9.07-22.36-3.76-28.73.79-18.64,13.32-15.49,48.78-3.09,60.14,8.58,7.85,20.97,9.27,34.75,5.67Z"/>
            <path class="cls-1" d="M316.71,277.82c-13.78,3.6-26.18,2.19-34.75-5.67-12.4-11.35-15.55-46.81,3.09-60.14,6.37-4.55,26.24-9.86,28.73-.79,5.97,21.72-.61,41.17,2.93,66.6Z"/>
          </g>
        </g>
      </g>
    </g>
  </g>
</svg>