<?xml version="1.0" encoding="UTF-8"?>
<svg id="Capa_8" data-name="Capa 8" xmlns="http://www.w3.org/2000/svg" viewBox="0 0 517.9 441.7">
  <defs>
    <style>
      .cls-1 {
        fill: #434a54;
      }

      .cls-2 {
        fill: #5d9beb;
      }

      .cls-3 {
        fill: #545c65;
      }

      .cls-4 {
        fill: #656c77;
      }

      .cls-5 {
        fill: #646c77;
      }
    </style>
  </defs>
  <g>
    <path class="cls-4" d="M387.69,140.98H130.2s0-78.52,0-78.52c7.82,2.62,12.43,9.99,12.25,17.98.44,3.24,2.95,5.28,5.82,5.41s6.4-1.84,6.39-5.41c-.05-23.95,18.75-43.64,43.05-43.64h122.45c24.32,0,43.08,19.68,43.05,43.64,0,3.65,3.68,5.56,6.43,5.41,3.53-.2,6.11-3.09,5.8-6.94.42-7.42,4.95-14.02,12.23-16.41v78.49Z"/>
    <polygon class="cls-3" points="366.91 165.49 151.2 165.49 139.31 153.28 378.67 153.23 366.91 165.49"/>
  </g>
  <g>
    <g>
      <rect class="cls-4" x="154.72" y="177.76" width="208.44" height="6.13"/>
      <path class="cls-3" d="M348.41,245.18h-178.83c-2.13-2.06-3.74-3.14-5.76-6.09h190.11c-1.64,2.74-3.32,3.5-5.52,6.09Z"/>
      <rect class="cls-4" x="154.72" y="196.15" width="6.13" height="30.65"/>
      <rect class="cls-4" x="173.11" y="196.15" width="6.13" height="30.65"/>
      <rect class="cls-4" x="191.5" y="196.15" width="6.13" height="30.65"/>
      <rect class="cls-4" x="209.89" y="196.15" width="6.13" height="30.65"/>
      <rect class="cls-4" x="228.29" y="196.15" width="6.13" height="30.65"/>
      <rect class="cls-4" x="246.68" y="196.15" width="6.13" height="30.65"/>
      <rect class="cls-4" x="265.07" y="196.15" width="6.13" height="30.65"/>
      <rect class="cls-4" x="283.46" y="196.15" width="6.13" height="30.65"/>
      <rect class="cls-4" x="301.85" y="196.15" width="6.13" height="30.65"/>
      <rect class="cls-4" x="320.24" y="196.15" width="6.13" height="30.65"/>
      <rect class="cls-4" x="338.64" y="196.15" width="6.13" height="30.65"/>
      <rect class="cls-4" x="357.03" y="196.15" width="6.13" height="30.65"/>
    </g>
    <path d="M324.84,416.85h-131.81c-6.98-2.82-13.65-7.85-13.69-16.09l-.08-18.44-18.41-30.73-.02-97.64-18.34-18.27-.07-61.45-24.47-24.4V52.44c4.92-8.33,23.42-.69,28.31,6.09,3.98-7.38,7.6-14.64,14.25-19.92,8.26-6.55,18.34-13.74,29.79-13.74l136.48-.02c11.84,0,22.07,6.9,30.6,13.76,6.59,5.31,10.31,12.48,14.14,20.01,5.01-7.09,24.73-14.82,28.44-5.66l-.04,96.88-24.47,24.4-.07,61.45-18.34,18.27-.02,97.64-18.4,30.74c-.57,16.85,3.92,26.85-13.78,34.53ZM387.69,140.98V62.48c-7.29,2.39-11.82,9-12.24,16.41.31,3.84-2.26,6.74-5.8,6.94-2.75.16-6.44-1.76-6.43-5.41.03-23.96-18.73-43.64-43.05-43.64h-122.45c-24.31,0-43.11,19.69-43.05,43.64,0,3.57-3.61,5.55-6.39,5.41s-5.38-2.17-5.82-5.41c.18-7.99-4.43-15.35-12.25-17.98v78.53s257.48-.01,257.48-.01ZM366.91,165.49l11.76-12.26-239.36.05,11.89,12.21h215.71ZM363.16,177.76h-208.44v6.13h208.44v-6.13ZM160.85,196.15h-6.13v30.65h6.13v-30.65ZM179.24,196.15h-6.13v30.65h6.13v-30.65ZM197.63,196.15h-6.13v30.65h6.13v-30.65ZM216.02,196.15h-6.13v30.65h6.13v-30.65ZM234.42,196.15h-6.13v30.65h6.13v-30.65ZM252.81,196.15h-6.13v30.65h6.13v-30.65ZM271.2,196.15h-6.13v30.65h6.13v-30.65ZM289.59,196.15h-6.13v30.65h6.13v-30.65ZM307.98,196.15h-6.13v30.65h6.13v-30.65ZM326.38,196.15h-6.13v30.65h6.13v-30.65ZM344.77,196.15h-6.13v30.65h6.13v-30.65ZM363.16,196.15h-6.13v30.65h6.13v-30.65ZM348.41,245.18c2.2-2.59,3.88-3.36,5.52-6.08h-190.11c2.01,2.95,3.63,4.03,5.76,6.1h178.83ZM344.77,257.56h-171.66v42.81h171.66v-42.81ZM179.24,312.63h-6.13v18.39h6.13v-18.39ZM197.63,312.63h-6.13v18.39h6.13v-18.39ZM216.02,312.63h-6.13v18.39h6.13v-18.39ZM234.42,312.63h-6.13v18.39h6.13v-18.39ZM252.81,312.63h-6.13v18.39h6.13v-18.39ZM271.2,312.63h-6.13v18.39h6.13v-18.39ZM289.59,312.63h-6.13v18.39h6.13v-18.39ZM307.98,312.63h-6.13v18.39h6.13v-18.39ZM326.38,312.63h-6.13v18.39h6.13v-18.39ZM344.77,312.63h-6.13v18.39h6.13v-18.39ZM329.03,373.93l15.32-25.6c.85-1.41.48-3.4.21-5.05h-171.25c-.24,1.64-.64,3.65.21,5.06l15.43,25.6h140.07ZM197.62,404.57l.02-18.31c-2.22-.16-3.92-.15-6.15,0l.05,12.23c.02,3.44,2.65,5.94,6.07,6.08ZM216.02,386.2h-6.13v18.39h6.13v-18.39ZM234.42,386.2h-6.13v18.39h6.13v-18.39ZM252.81,386.2h-6.13v18.39h6.13v-18.39ZM271.2,386.2h-6.13v18.39h6.13v-18.39ZM289.59,386.2h-6.13v18.39h6.13v-18.39ZM307.98,386.2h-6.13v18.39h6.13v-18.39ZM326.27,398.9l.13-12.64c-2.27-.15-3.92-.16-6.18,0l.17,18.12c2.96.15,5.85-2.1,5.89-5.48Z"/>
    <g>
      <rect class="cls-4" x="191.5" y="312.63" width="6.13" height="18.39"/>
      <rect class="cls-4" x="209.89" y="312.63" width="6.13" height="18.39"/>
      <rect class="cls-4" x="228.29" y="312.63" width="6.13" height="18.39"/>
      <rect class="cls-4" x="246.68" y="312.63" width="6.13" height="18.39"/>
      <rect class="cls-4" x="265.07" y="312.63" width="6.13" height="18.39"/>
      <rect class="cls-4" x="283.46" y="312.63" width="6.13" height="18.39"/>
      <rect class="cls-4" x="301.85" y="312.63" width="6.13" height="18.39"/>
      <rect class="cls-4" x="320.24" y="312.63" width="6.13" height="18.39"/>
      <rect class="cls-4" x="338.64" y="312.63" width="6.13" height="18.39"/>
      <rect class="cls-4" x="173.11" y="312.63" width="6.13" height="18.39"/>
      <rect class="cls-1" x="209.89" y="386.2" width="6.13" height="18.39"/>
      <rect class="cls-1" x="228.29" y="386.2" width="6.13" height="18.39"/>
      <rect class="cls-1" x="246.68" y="386.2" width="6.13" height="18.39"/>
      <rect class="cls-1" x="265.07" y="386.2" width="6.13" height="18.39"/>
      <rect class="cls-1" x="283.46" y="386.2" width="6.13" height="18.39"/>
      <rect class="cls-1" x="301.85" y="386.2" width="6.13" height="18.39"/>
      <path class="cls-1" d="M197.62,404.57c-3.43-.14-6.06-2.64-6.07-6.08l-.05-12.23c2.23-.15,3.93-.16,6.15,0l-.02,18.31Z"/>
      <path class="cls-1" d="M326.27,398.9c-.04,3.38-2.93,5.64-5.89,5.48l-.17-18.12c2.27-.16,3.91-.16,6.18,0l-.13,12.64Z"/>
      <path class="cls-3" d="M329.03,373.93h-140.07s-15.43-25.59-15.43-25.59c-.85-1.42-.45-3.42-.21-5.06h171.25c.26,1.66.63,3.64-.21,5.05l-15.32,25.6Z"/>
      <g>
        <path class="cls-5" d="M344.77,257.56v42.81h-171.66v-42.81h171.66ZM289.95,294.25c3.68-.46,5.56-2.96,5.78-6.12l-.02-18.46c-.19-3.3-2.6-6.05-6.15-6.05h-61.25c-3.55,0-5.97,2.75-6.16,6.05v18.48c.18,3.37,2.59,6.07,6.16,6.08l61.63.03Z"/>
        <g>
          <path d="M289.95,294.25l-61.63-.03c-3.57,0-5.97-2.71-6.16-6.08v-18.48c.19-3.3,2.61-6.05,6.16-6.05h61.25c3.55,0,5.96,2.75,6.15,6.05l.02,18.46c-.22,3.16-2.11,5.66-5.78,6.12ZM252.83,281.86c.4-3.49,2.07-4.34,3.98-5.91l-22.32-.14c-.16,2.27-.16,3.92,0,6.2l18.34-.15ZM283.33,282.03c.26-2.81.21-4.17.04-6.23l-22.23.26c2.61,1.26,3.33,3.69,4.18,5.76l18.01.21Z"/>
          <path class="cls-2" d="M283.33,282.03l-18.01-.21c-.85-2.07-1.57-4.5-4.18-5.76l22.23-.26c.17,2.06.22,3.42-.04,6.23Z"/>
          <path class="cls-2" d="M252.83,281.86l-18.34.15c-.15-2.28-.16-3.93,0-6.2l22.32.14c-1.92,1.57-3.58,2.42-3.98,5.91Z"/>
        </g>
      </g>
    </g>
  </g>
</svg>