<?xml version="1.0" encoding="UTF-8"?>
<svg id="Logos_Kit_De_Herramientas" data-name="Logos Kit De Herramientas" xmlns="http://www.w3.org/2000/svg" viewBox="0 0 1018.02 441.7">
  <defs>
    <style>
      .cls-1, .cls-2 {
        fill-rule: evenodd;
      }

      .cls-1, .cls-3 {
        fill: #0a66c2;
      }

      .cls-2 {
        fill: #fff;
      }
    </style>
  </defs>
  <g id="layer1">
    <g id="g1917">
      <g id="g1915">
        <g id="g1913">
          <g id="g1905">
            <path id="path1901" class="cls-2" d="M990.9,95.85h-213.05c-10.19,0-18.85,8.06-18.85,17.99v214.01c0,9.94,5.68,18,15.87,18h213.05c10.2,0,21.08-8.06,21.08-18V113.84c0-9.93-7.9-17.99-18.11-17.99"/>
            <path id="path1903" class="cls-1" d="M990.9,95.85h-213.05c-10.19,0-18.85,8.06-18.85,17.99v214.01c0,9.94,5.68,18,15.87,18h213.05c10.2,0,21.08-8.06,21.08-18V113.84c0-9.93-7.9-17.99-18.11-17.99ZM854.25,191.09h33.65v17.15h.37c5.13-9.25,20.29-18.64,39.02-18.64,35.96,0,46,19.1,46,54.46v66.07h-35.71v-59.56c0-15.83-6.32-29.73-21.11-29.73-17.95,0-26.51,12.15-26.51,32.11v57.18h-35.71v-119.05ZM794.72,310.13h35.71v-119.05h-35.71v119.05ZM834.9,149.42c0,12.32-9.99,22.32-22.31,22.32-12.32,0-22.32-9.99-22.32-22.31,0-12.32,9.99-22.32,22.31-22.32s22.32,9.99,22.32,22.31Z"/>
          </g>
          <g id="g1911">
            <path id="path1907" class="cls-3" d="M723.29,310.13h-33.33v-14.18h-.36c-7.42,8.6-20.3,15.67-42.13,15.67-29.76,0-55.39-22.39-55.39-60.88s25.26-61.14,56.51-61.14c19.35,0,31.36,6.88,38.63,15.67h.36v-73.7h35.71v178.57ZM657.57,216.38c-20.42,0-31.89,14.56-31.89,33.92s11.48,34.54,31.89,34.54,32.39-14.77,32.39-34.54-11.95-33.92-32.39-33.92ZM576.4,290.96c-8.43,10.92-25.79,20.67-53.81,20.67-37.38,0-61.19-24.76-61.19-63.65,0-34.56,21.56-58.37,62.24-58.37,35.13,0,56.8,23.07,56.8,63.65,0,4.05-.65,8.07-.65,8.07h-84.69l.2,3.68c2.35,10.26,10.1,22.81,27.88,22.81,15.52,0,26.17-8.35,30.98-14.88l22.26,18.02h-.01ZM546.07,238.69c.24-12.55-8.98-25.29-23.5-25.29-17.29,0-26.51,13.5-27.48,25.3h50.98,0Z"/>
            <path id="path1909" class="cls-3" d="M461.39,191.09h-41.67l-41.67,47.62v-107.14h-35.71v178.57h35.71v-59.52l44.04,59.52h42.17l-50.49-65.08,47.62-53.96ZM199.48,191.09h33.65v17.15h.37c5.13-9.25,20.29-18.64,39.02-18.64,35.96,0,46,22.82,46,54.46v66.07h-35.71v-59.56c0-17.52-6.32-29.73-21.11-29.73-17.95,0-26.51,14.21-26.51,32.11v57.18h-35.71v-119.05ZM139.96,310.13h35.71v-119.05h-35.71v119.05ZM157.83,170.85c11.83.28,21.65-9.09,21.93-20.92.28-11.83-9.09-21.65-20.92-21.93-.34,0-.67,0-1.01,0-11.83.28-21.2,10.1-20.92,21.93.27,11.44,9.48,20.65,20.92,20.92ZM44.72,131.56H9.01v178.57h107.14v-35.71H44.72v-142.86Z"/>
          </g>
        </g>
      </g>
    </g>
  </g>
</svg>