<?xml version="1.0" encoding="UTF-8"?>
<svg id="Logos_Kit_De_Herramientas" data-name="Logos Kit De Herramientas" xmlns="http://www.w3.org/2000/svg" viewBox="0 0 517.9 441.7">
  <defs>
    <style>
      .cls-1 {
        fill: #0a66c2;
      }

      .cls-1, .cls-2 {
        fill-rule: evenodd;
      }

      .cls-2 {
        fill: #fff;
      }
    </style>
  </defs>
  <g id="Linkedin">
    <g>
      <path class="cls-1" d="M112.3,409.4h293.3c23.14,0,41.9-18.76,41.9-41.9V74.2c0-23.14-18.76-41.9-41.9-41.9H112.3c-23.14,0-41.9,18.76-41.9,41.9v293.3c0,23.14,18.76,41.9,41.9,41.9Z"/>
      <path class="cls-2" d="M395.13,357.03h-55.96v-95.31c0-26.13-9.93-40.74-30.61-40.74-22.5,0-34.26,15.2-34.26,40.74v95.31h-53.93v-181.57h53.93v24.46s16.22-30,54.75-30,66.08,23.52,66.08,72.16v114.96ZM156.03,151.68c-18.37,0-33.26-15-33.26-33.5s14.89-33.5,33.26-33.5,33.25,15,33.25,33.5-14.88,33.5-33.25,33.5ZM128.18,357.03h56.24v-181.57h-56.24v181.57Z"/>
    </g>
  </g>
</svg>