<?xml version="1.0" encoding="UTF-8"?>
<svg id="Logos_Kit_De_Herramientas" data-name="Logos Kit De Herramientas" xmlns="http://www.w3.org/2000/svg" xmlns:xlink="http://www.w3.org/1999/xlink" viewBox="0 0 517.9 441.7">
  <defs>
    <style>
      .cls-1 {
        fill: none;
      }

      .cls-2 {
        clip-path: url(#clippath-1);
      }

      .cls-3 {
        fill: url(#Degradado_sin_nombre_3);
      }

      .cls-4 {
        fill: url(#Degradado_sin_nombre_14);
      }

      .cls-5 {
        clip-path: url(#clippath-2);
      }

      .cls-6 {
        fill: url(#Degradado_sin_nombre_15);
      }

      .cls-7 {
        clip-path: url(#clippath);
      }
    </style>
    <clipPath id="clippath">
      <rect class="cls-1" x="97.09" y="194.76" width="24.14" height="75.05" rx="2.61" ry="2.61"/>
    </clipPath>
    <linearGradient id="Degradado_sin_nombre_15" data-name="Degradado sin nombre 15" x1="1664.35" y1="3395.22" x2="1664.91" y2="3395.22" gradientTransform="translate(-162119.43 -330632.3) scale(97.45)" gradientUnits="userSpaceOnUse">
      <stop offset="0" stop-color="#b02de9"/>
      <stop offset=".02" stop-color="#b02de9"/>
      <stop offset=".8" stop-color="#6d00cc"/>
      <stop offset="1" stop-color="#6d00cc"/>
    </linearGradient>
    <clipPath id="clippath-1">
      <path class="cls-1" d="M44.22,195.69l-31.35,62.39c-.65,1.29-.13,2.86,1.16,3.51l16.9,8.49c1.29.65,2.86.13,3.51-1.16l31.35-62.39c.65-1.29.13-2.86-1.16-3.51l-16.9-8.49c-.38-.19-.78-.28-1.17-.28-.95,0-1.88.52-2.33,1.44Z"/>
    </clipPath>
    <linearGradient id="Degradado_sin_nombre_14" data-name="Degradado sin nombre 14" x1="1667.06" y1="3398.22" x2="1667.62" y2="3398.22" gradientTransform="translate(-178481.14 -363649.37) scale(107.08)" gradientUnits="userSpaceOnUse">
      <stop offset="0" stop-color="#f0f"/>
      <stop offset="0" stop-color="#f0f"/>
      <stop offset=".17" stop-color="#e90cf9"/>
      <stop offset=".54" stop-color="#c023ed"/>
      <stop offset=".73" stop-color="#b02de9"/>
      <stop offset="1" stop-color="#b02de9"/>
    </linearGradient>
    <clipPath id="clippath-2">
      <path class="cls-1" d="M70.59,195.91l-13.41,68c-.28,1.41.64,2.78,2.05,3.06l18.54,3.74c1.42.28,2.8-.64,3.08-2.05l13.41-68c.28-1.41-.64-2.78-2.05-3.06l-18.54-3.74c-.17-.03-.35-.05-.52-.05-1.22,0-2.32.86-2.56,2.1Z"/>
    </clipPath>
    <linearGradient id="Degradado_sin_nombre_3" data-name="Degradado sin nombre 3" x1="1668.69" y1="3414.38" x2="1669.25" y2="3414.38" gradientTransform="translate(-358255.6 -732835.08) scale(214.7)" gradientUnits="userSpaceOnUse">
      <stop offset="0" stop-color="#f0f"/>
      <stop offset=".02" stop-color="#f0f"/>
      <stop offset=".09" stop-color="#e90cf9"/>
      <stop offset=".23" stop-color="#c023ed"/>
      <stop offset=".3" stop-color="#b02de9"/>
      <stop offset=".42" stop-color="#a42be3"/>
      <stop offset=".63" stop-color="#8626d5"/>
      <stop offset=".85" stop-color="#6021c3"/>
      <stop offset="1" stop-color="#6021c3"/>
    </linearGradient>
  </defs>
  <g id="Automatizacion">
    <g id="MAKE">
      <g>
        <path d="M181.34,223.03v44.38c0,1.44-1.17,2.61-2.61,2.61h-19.18c-1.45,0-2.61-1.17-2.61-2.61v-70.08c0-1.44,1.17-2.61,2.61-2.61h19.18c1.44,0,2.61,1.17,2.61,2.61v5.52c4.82-6.02,11.6-9.79,21.09-9.79,8.89,0,16.57,3.62,21.24,10.39,5.72-6.78,13.86-10.39,23.8-10.39,16.87,0,28.47,9.94,28.47,28.92v45.44c0,1.44-1.17,2.61-2.61,2.61h-19.18c-1.45,0-2.61-1.17-2.61-2.61v-40.31c0-8.28-4.67-12.35-11-12.35-5.27,0-9.49,3.32-11.9,8.28v44.38c0,1.44-1.17,2.61-2.61,2.61h-19.18c-1.45,0-2.61-1.17-2.61-2.61v-40.31c0-8.28-4.67-12.35-11-12.35-5.42,0-9.49,3.32-11.9,8.28"/>
        <path d="M308,271.54c-14.16,0-26.06-9.34-26.06-23.8,0-13.25,8.74-19.43,25-23.65l20.79-5.42c-.6-4.97-4.52-7.38-10.85-7.38-5.6,0-9.64,2.14-11.49,6.43-.52,1.19-1.76,1.9-3.04,1.6l-16.47-3.92c-1.52-.36-2.41-1.98-1.86-3.44,4.73-12.8,17.87-19.5,33.77-19.5,21.39,0,33.74,10.09,33.74,27.86v47.09c0,1.45-1.17,2.61-2.61,2.61h-18.18c-1.42,0-2.58-1.13-2.61-2.55l-.09-3.92-.15.15c-6.17,5.27-12.2,7.83-19.89,7.83M314.17,252.7c3.17,0,5.57-.9,9.19-3.01l4.21-2.56.15-12.2-10.85,3.01c-7.38,2.11-10.7,3.92-10.7,8.13,0,4.67,4.06,6.63,7.98,6.63"/>
        <path d="M390.48,234.48l-7.38,6.78v26.15c0,1.45-1.17,2.61-2.61,2.61h-18.72c-1.45,0-2.61-1.17-2.61-2.61v-94.79c0-1.44,1.17-2.61,2.61-2.61h18.72c1.44,0,2.61,1.17,2.61,2.61v42.88l21.84-20.1c.48-.44,1.12-.69,1.77-.69h23.12c2.39,0,3.52,2.94,1.76,4.54l-22.43,20.46,25.58,46.44c.96,1.74-.3,3.87-2.29,3.87h-21.86c-.97,0-1.87-.54-2.32-1.41l-17.8-34.14h0Z"/>
        <path d="M469.94,271.69c-20.93,0-40.07-13.1-40.07-39.61,0-25,18.38-39.46,38.56-39.46s36.15,14.61,36.75,37.65c.07,2.43.11,4.13.13,5.34.02,1.46-1.16,2.65-2.61,2.65h-48.72c.75,9.04,7.98,14.76,17.17,14.76,6.54,0,11.9-2.72,15.65-7.63.83-1.09,2.37-1.34,3.51-.58l12.17,8.15c1.22.82,1.52,2.47.7,3.68-6.52,9.6-17.27,15.06-33.23,15.06M454.43,223.49h26.36c-.15-8.59-6.48-12.35-13.1-12.35-6.17,0-12.5,3.62-13.25,12.35"/>
        <g class="cls-7">
          <rect class="cls-6" x="84.85" y="192.9" width="48.61" height="78.76" transform="translate(-73.62 52.11) rotate(-20.24)"/>
        </g>
        <g class="cls-2">
          <rect class="cls-4" x="-.73" y="186.63" width="80.12" height="91.71" transform="translate(-89.03 34.69) rotate(-23.38)"/>
        </g>
        <g class="cls-5">
          <rect class="cls-3" x="44.72" y="189.68" width="61.99" height="85.46" transform="translate(-75.63 40.47) rotate(-20.21)"/>
        </g>
      </g>
    </g>
  </g>
</svg>