<?xml version="1.0" encoding="UTF-8"?>
<svg id="Logos_Kit_De_Herramientas" data-name="Logos Kit De Herramientas" xmlns="http://www.w3.org/2000/svg" xmlns:xlink="http://www.w3.org/1999/xlink" viewBox="0 0 517.9 441.7">
  <defs>
    <style>
      .cls-1 {
        fill: #0081fb;
      }

      .cls-2 {
        fill: url(#Degradado_sin_nombre_4-2);
      }

      .cls-3 {
        fill: none;
      }

      .cls-4 {
        fill: url(#Degradado_sin_nombre_4);
      }

      .cls-5 {
        fill: url(#Degradado_sin_nombre_13);
      }

      .cls-6 {
        fill: url(#Degradado_sin_nombre_8-2);
      }

      .cls-7 {
        fill: url(#Degradado_sin_nombre_8);
      }

      .cls-8 {
        clip-path: url(#clippath);
      }

      .cls-9 {
        fill: url(#Degradado_sin_nombre_12);
      }
    </style>
    <clipPath id="clippath">
      <path class="cls-3" d="M1026.28,220.85c0,104.55-84.88,189.43-189.43,189.43s-189.43-84.88-189.43-189.43S732.3,31.42,836.85,31.42s189.43,84.88,189.43,189.43Z"/>
    </clipPath>
    <linearGradient id="Degradado_sin_nombre_4" data-name="Degradado sin nombre 4" x1="2400.67" y1="5133.65" x2="2401.42" y2="5133.65" gradientTransform="translate(-163425.71 -523752.69) rotate(137.54) scale(96.9 -96.9)" gradientUnits="userSpaceOnUse">
      <stop offset="0" stop-color="#094fcf" stop-opacity=".1"/>
      <stop offset=".53" stop-color="#094fcf" stop-opacity=".03"/>
      <stop offset="1" stop-color="#094fcf" stop-opacity="0"/>
    </linearGradient>
    <linearGradient id="Degradado_sin_nombre_4-2" data-name="Degradado sin nombre 4" x1="2399.03" y1="5132.84" x2="2399.78" y2="5132.84" gradientTransform="translate(-174403.36 -504111.95) rotate(135.79) scale(94.23 -94.23)" xlink:href="#Degradado_sin_nombre_4"/>
    <linearGradient id="Degradado_sin_nombre_8" data-name="Degradado sin nombre 8" x1="2479.79" y1="5152.82" x2="2480.55" y2="5152.82" gradientTransform="translate(372944.46 -135953.94) rotate(-135.79) scale(69.3 -69.3)" gradientUnits="userSpaceOnUse">
      <stop offset="0" stop-color="#094fcf" stop-opacity=".05"/>
      <stop offset=".53" stop-color="#094fcf" stop-opacity="0"/>
      <stop offset="1" stop-color="#094fcf" stop-opacity="0"/>
    </linearGradient>
    <linearGradient id="Degradado_sin_nombre_8-2" data-name="Degradado sin nombre 8" x1="2483.19" y1="5154.76" x2="2483.95" y2="5154.76" gradientTransform="translate(367059.04 -116821.25) rotate(-133.44) scale(67.2 -67.2)" xlink:href="#Degradado_sin_nombre_8"/>
    <linearGradient id="Degradado_sin_nombre_13" data-name="Degradado sin nombre 13" x1="126.77" y1="9304.58" x2="448.11" y2="9288.36" gradientTransform="translate(0 9517.4) scale(1 -1)" gradientUnits="userSpaceOnUse">
      <stop offset="0" stop-color="#0064e1"/>
      <stop offset=".4" stop-color="#0064e1"/>
      <stop offset=".83" stop-color="#0073ee"/>
      <stop offset="1" stop-color="#0082fb"/>
    </linearGradient>
    <linearGradient id="Degradado_sin_nombre_12" data-name="Degradado sin nombre 12" x1="92.84" y1="9225.96" x2="92.84" y2="9344.43" gradientTransform="translate(0 9517.4) scale(1 -1)" gradientUnits="userSpaceOnUse">
      <stop offset="0" stop-color="#0082fb"/>
      <stop offset="1" stop-color="#0064e0"/>
    </linearGradient>
  </defs>
  <g id="Meta">
    <g id="Ads_Manager" data-name="Ads Manager">
      <g class="cls-8">
        <g>
          <path class="cls-4" d="M725.36,673.89l-310.39-346.11,247.58-222.03,310.39,346.11-247.58,222.03h0Z"/>
          <path class="cls-2" d="M781.03,616.94l-310.4-346.11,247.58-222.03,310.4,346.12-247.58,222.02h0Z"/>
          <path class="cls-7" d="M674.76-249.98L360.7,92.83l245.2,224.64L919.96-25.33l-245.2-224.65h0Z"/>
          <path class="cls-6" d="M730.39-194.34L416.33,148.46l245.21,224.65L975.6,30.3l-245.2-224.64h0Z"/>
        </g>
      </g>
    </g>
    <g id="Meta-2" data-name="Meta">
      <g>
        <path id="Logo0" class="cls-1" d="M76.02,270.28c0,17.82,3.91,31.5,9.02,39.78,6.7,10.84,16.7,15.43,26.89,15.43,13.15,0,25.17-3.26,48.35-35.31,18.57-25.69,40.44-61.75,55.16-84.36l24.93-38.3c17.32-26.6,37.36-56.17,60.34-76.21,18.76-16.36,39-25.45,59.37-25.45,34.19,0,66.77,19.82,91.7,56.98,27.28,40.7,40.52,91.97,40.52,144.88,0,31.45-6.2,54.56-16.75,72.82-10.19,17.66-30.06,35.3-63.47,35.3v-50.34c28.61,0,35.75-26.29,35.75-56.38,0-42.88-10-90.46-32.02-124.46-15.63-24.12-35.88-38.85-58.17-38.85-24.1,0-43.49,18.18-65.29,50.59-11.59,17.22-23.48,38.2-36.84,61.88l-14.7,26.05c-29.54,52.37-37.02,64.3-51.79,83.99-25.89,34.47-47.99,47.54-77.09,47.54-34.52,0-56.35-14.95-69.87-37.47-11.04-18.36-16.46-42.44-16.46-69.88l50.41,1.8Z"/>
        <path id="Logo1" class="cls-5" d="M65.35,126.39c23.11-35.62,56.46-60.53,94.71-60.53,22.15,0,44.18,6.56,67.17,25.33,25.16,20.53,51.97,54.34,85.41,110.05l11.99,19.99c28.95,48.23,45.43,73.05,55.07,84.75,12.4,15.03,21.08,19.51,32.36,19.51,28.61,0,35.75-26.29,35.75-56.38l44.47-1.4c0,31.45-6.2,54.56-16.75,72.82-10.19,17.66-30.06,35.3-63.47,35.3-20.77,0-39.18-4.51-59.53-23.71-15.64-14.74-33.94-40.91-48.01-64.45l-41.86-69.92c-21-35.09-40.26-61.25-51.41-73.1-11.99-12.74-27.41-28.13-52.01-28.13-19.91,0-36.82,13.97-50.98,35.35l-42.93-25.5Z"/>
        <path id="Logo2" class="cls-9" d="M159.25,116.54c-19.91,0-36.82,13.97-50.98,35.35-20.01,30.2-32.26,75.19-32.26,118.39,0,17.82,3.91,31.5,9.02,39.78l-42.97,28.3c-11.04-18.36-16.46-42.44-16.46-69.88,0-49.9,13.7-101.92,39.75-142.09,23.11-35.62,56.46-60.53,94.71-60.53l-.81,50.68Z"/>
      </g>
    </g>
  </g>
</svg>