<?xml version="1.0" encoding="UTF-8"?>
<svg id="Logos_Kit_De_Herramientas" data-name="Logos Kit De Herramientas" xmlns="http://www.w3.org/2000/svg" viewBox="0 0 517.9 441.7">
  <defs>
    <style>
      .cls-1 {
        fill: #5d9beb;
      }

      .cls-2 {
        fill: #3a426f;
      }

      .cls-3 {
        fill: #030303;
      }

      .cls-4 {
        fill: #656c77;
      }

      .cls-5 {
        fill: #fdfdfd;
      }
    </style>
  </defs>
  <g id="Equipo_de_trabajo" data-name="Equipo de trabajo">
    <g id="Microfonos">
      <g>
        <g>
          <path class="cls-4" d="M163.05,394.34c-22.35,17.11-53.47,14.66-72.89-4.94s-21.4-51.07-3.93-73.43l15.59-19.94,82.01,81.93c-6.81,5.85-13.7,10.96-20.77,16.38ZM112.37,326.69l-28.14,28.14,40.86,40.86,28.14-28.14-40.86-40.86Z"/>
          <path class="cls-1" d="M126.04,243.93l-19.82,25.48-10.31-10.15,22.59-22.66c2.91,2.1,4.76,4.23,7.55,7.33Z"/>
          <g>
            <path class="cls-3" d="M112.37,326.69l40.86,40.86-28.14,28.14-40.86-40.86,28.14-28.14ZM112.37,344.71l-10.12,10.12,22.85,22.85,10.12-10.12-22.85-22.85Z"/>
            <rect class="cls-1" x="111.58" y="345.04" width="14.31" height="32.31" transform="translate(-220.62 189.75) rotate(-45)"/>
          </g>
          <g>
            <path class="cls-4" d="M194.2,370.27l-84.55-84.5,73.74-94.47c27.61-35.37,80.14-36.66,111.08-5.49,31,31.24,29.13,83.47-6.26,111.09l-94.01,73.36ZM303.49,240.12c0-35.18-28.52-63.7-63.7-63.7s-63.7,28.52-63.7,63.7,28.52,63.7,63.7,63.7,63.7-28.52,63.7-63.7ZM150.36,250.88l-7.97,9.97,9.98,7.99,7.97-9.97-9.98-7.99ZM134.45,270.75l-7.98,9.97,9.99,7.99,7.98-9.97-9.99-7.99Z"/>
            <path class="cls-1" d="M282.03,341.65c-8.83,8.83-22.4,8.9-31.95,1.29l45.25-35.3c12.88-10.04,22.05-22.93,28.11-38.11,7.78,9.59,7.44,23.26-1.19,31.89l-40.22,40.23Z"/>
            <path class="cls-3" d="M303.49,240.12c0,35.18-28.52,63.7-63.7,63.7s-63.7-28.52-63.7-63.7,28.52-63.7,63.7-63.7,63.7,28.52,63.7,63.7ZM290.74,240.11c0-28.14-22.81-50.96-50.96-50.96s-50.96,22.81-50.96,50.96,22.81,50.96,50.96,50.96,50.96-22.81,50.96-50.96Z"/>
            <rect class="cls-3" x="129.07" y="273.34" width="12.77" height="12.79" transform="translate(-167.6 210.76) rotate(-51.34)"/>
            <rect class="cls-3" x="144.98" y="253.46" width="12.76" height="12.78" transform="translate(-146.1 215.72) rotate(-51.34)"/>
            <g>
              <path class="cls-5" d="M290.74,240.11c0,28.14-22.81,50.96-50.96,50.96s-50.96-22.81-50.96-50.96,22.81-50.96,50.96-50.96,50.96,22.81,50.96,50.96ZM265.32,240.05c4.78.14,8.5.26,12.65-.09-.08-20.95-17.05-38-38.02-38.03-.3,4.36-.25,8.32-.04,12.65,14.17.41,25.03,11.21,25.4,25.47Z"/>
              <path class="cls-3" d="M265.32,240.05c-.38-14.26-11.24-25.06-25.4-25.47-.21-4.34-.26-8.3.04-12.65,20.96.03,37.94,17.08,38.02,38.03-4.15.36-7.87.23-12.65.09Z"/>
            </g>
          </g>
        </g>
        <g>
          <path class="cls-3" d="M136.99,418.55h-16.98c-.22-.44-.63-.73-1.47-.86-28.94-4.79-51.54-27.37-56.32-56.31-.14-.84-.42-1.25-.86-1.47v-18.52c.43-.19.74-.7.86-1.44,1.87-11.6,6.36-22.04,13.55-31.31l22.41-28.9-20.2-20.66,40.78-40.62,15.21,15.15,40.85-51.94c24.95-31.73,69.92-39.33,105.7-21.43s54.39,56.26,46.83,95.06c14.72,12.01,18.26,30.78,9.74,48.06,49.95-17.14,82.02-64.57,81.02-116.05,2.43-68.81-52.78-125.61-121.7-125.58l-38.13.02c-60.64.03-111.77,45.22-119.41,105.43,8.44,11.22,6.58,26.63-4.19,35.43-10.25,8.37-25.66,7.4-34.81-2.67-9.08-9.98-8.88-25.2.77-35.09C109.09,88.15,171.34,28.34,248.69,23.97c19.2-1.08,39.05-1.1,58.28-.02,80.22,4.52,144.09,69.11,149.2,148.88.47,8.78.52,17.41,0,25.99-5.32,85.78-77.8,151.73-162.89,149.56-13.98,16.09-38.06,17.01-53.55,2.58l-70.61,54.73c-9.51,7.37-20.78,10.73-32.1,12.86ZM320.47,320.8c-4.15,5.49-8.67,8.96-13.95,14.51,79.51-5.1,137.87-71.54,137.69-149.76-.19-80.38-62.17-147.54-144.21-149.27h-42.27c-76.55.03-139.29,59.32-144.88,135.29-7.22,3.93-9.01,13.07-3.97,19.25,4.93,6.04,14.17,6.31,19.43.32,4.94-5.63,4.07-14.54-2.68-19.1,5.23-68.83,62.54-122.98,132.03-123.03l39.3-.03c76.78.09,135.23,62.89,134.5,138.2-.63,65.52-44.87,122.12-110.97,133.64ZM194.2,370.27l94.01-73.36c35.4-27.62,37.26-79.85,6.26-111.09-30.93-31.17-83.46-29.88-111.08,5.49l-73.74,94.47,84.55,84.5ZM126.04,243.93c-2.79-3.1-4.63-5.23-7.55-7.33l-22.59,22.66,10.31,10.15,19.82-25.48ZM282.03,341.65l40.22-40.23c8.63-8.64,8.98-22.3,1.19-31.89-6.06,15.18-15.23,28.06-28.11,38.11l-45.25,35.3c9.55,7.62,23.11,7.55,31.95-1.29ZM163.05,394.34c7.08-5.42,13.96-10.53,20.77-16.38l-82.01-81.93-15.59,19.94c-17.47,22.36-15.7,53.62,3.93,73.43s50.54,22.05,72.89,4.94Z"/>
          <path class="cls-2" d="M320.47,320.8c66.11-11.53,110.34-68.12,110.97-133.64.73-75.31-57.72-138.11-134.5-138.2l-39.3.03c-69.49.05-126.8,54.2-132.03,123.03,6.75,4.56,7.62,13.47,2.68,19.1-5.25,5.99-14.49,5.72-19.43-.32-5.04-6.17-3.25-15.32,3.97-19.25,5.6-75.96,68.34-135.25,144.88-135.27h42.27c82.05,1.72,144.02,68.88,144.21,149.26.18,78.22-58.17,144.66-137.69,149.76,5.28-5.55,9.8-9.02,13.95-14.51Z"/>
        </g>
      </g>
    </g>
  </g>
</svg>