<?xml version="1.0" encoding="UTF-8"?>
<svg id="Logos_Kit_De_Herramientas" data-name="Logos Kit De Herramientas" xmlns="http://www.w3.org/2000/svg" viewBox="0 0 517.9 441.7">
  <defs>
    <style>
      .cls-1, .cls-2 {
        fill: #101330;
      }

      .cls-1, .cls-3 {
        fill-rule: evenodd;
      }

      .cls-3 {
        fill: #ea4b71;
      }
    </style>
  </defs>
  <g id="Automatizacion">
    <g id="N8N">
      <g>
        <path id="svg_1" data-name="svg 1" class="cls-3" d="M242.51,207.62c-12.33,0-22.69-8.43-25.63-19.85h-30.33c-6.47,0-11.99,4.68-13.05,11.06l-1.09,6.53c-1.03,6.2-4.17,11.59-8.6,15.5,4.43,3.91,7.57,9.3,8.6,15.5l1.09,6.53c1.06,6.38,6.58,11.06,13.05,11.06h3.87c2.94-11.41,13.3-19.85,25.63-19.85,14.61,0,26.46,11.85,26.46,26.46s-11.85,26.46-26.46,26.46c-12.33,0-22.69-8.43-25.63-19.85h-3.87c-12.94,0-23.97-9.35-26.1-22.11l-1.09-6.53c-1.06-6.38-6.58-11.06-13.05-11.06h-10.48c-2.94,11.41-13.3,19.85-25.63,19.85s-22.69-8.43-25.63-19.85h-14.9c-2.94,11.41-13.3,19.85-25.63,19.85-14.61,0-26.46-11.85-26.46-26.46s11.85-26.46,26.46-26.46c12.33,0,22.69,8.43,25.63,19.85h14.9c2.94-11.41,13.3-19.85,25.63-19.85s22.69,8.43,25.63,19.85h10.48c6.47,0,11.99-4.68,13.05-11.06l1.09-6.53c2.13-12.76,13.17-22.11,26.1-22.11h30.33c2.94-11.41,13.3-19.85,25.63-19.85,14.61,0,26.46,11.85,26.46,26.46s-11.85,26.46-26.46,26.46ZM242.51,194.39c7.31,0,13.23-5.92,13.23-13.23s-5.92-13.23-13.23-13.23-13.23,5.92-13.23,13.23,5.92,13.23,13.23,13.23ZM44.04,234.08c7.31,0,13.23-5.92,13.23-13.23s-5.92-13.23-13.23-13.23-13.23,5.92-13.23,13.23,5.92,13.23,13.23,13.23ZM123.43,220.85c0,7.31-5.92,13.23-13.23,13.23s-13.23-5.92-13.23-13.23,5.92-13.23,13.23-13.23,13.23,5.92,13.23,13.23ZM229.28,260.54c0,7.31-5.92,13.23-13.23,13.23s-13.23-5.92-13.23-13.23,5.92-13.23,13.23-13.23,13.23,5.92,13.23,13.23Z"/>
        <path id="svg_2" data-name="svg 2" class="cls-1" d="M427.77,211.9v-.63c4.62-2.31,9.23-6.31,9.23-14.19,0-11.35-9.34-18.18-22.24-18.18s-22.66,7.25-22.66,18.39c0,7.57,4.41,11.67,9.23,13.98v.63c-5.35,1.89-11.75,7.57-11.75,17.03,0,11.45,9.44,19.44,25.08,19.44s24.76-7.99,24.76-19.44c0-9.46-6.3-15.03-11.65-17.03h0ZM414.65,188.57c5.25,0,9.13,3.36,9.13,9.04s-3.99,9.04-9.13,9.04-9.44-3.36-9.44-9.04,4.09-9.04,9.44-9.04ZM414.65,238.28c-6.09,0-11.02-3.89-11.02-10.51,0-5.99,4.09-10.51,10.91-10.51s10.81,4.41,10.81,10.72-4.72,10.3-10.7,10.3Z"/>
        <path id="svg_3" data-name="svg 3" class="cls-2" d="M455.6,247.32h13.43v-28.48c0-9.35,5.67-13.45,12.07-13.45s11.23,4.2,11.23,12.82v29.11h13.43v-31.84c0-13.77-7.97-21.75-20.46-21.75-7.87,0-12.28,3.15-15.42,7.25h-.84l-1.15-6.2h-12.28v52.54Z"/>
        <path id="svg_4" data-name="svg 4" class="cls-2" d="M336.72,247.32h-13.43v-52.54h12.28l1.15,6.2h.84c3.15-4.1,7.55-7.25,15.42-7.25,12.48,0,20.46,7.99,20.46,21.75v31.84h-13.43v-29.11c0-8.62-4.93-12.82-11.23-12.82s-12.07,4.1-12.07,13.45v28.48Z"/>
      </g>
    </g>
  </g>
</svg>