<?xml version="1.0" encoding="UTF-8"?>
<svg id="Logos_Kit_De_Herramientas" data-name="Logos Kit De Herramientas" xmlns="http://www.w3.org/2000/svg" viewBox="0 0 517.9 441.7">
  <defs>
    <style>
      .cls-1 {
        fill: #fff;
      }

      .cls-2 {
        fill-rule: evenodd;
      }
    </style>
  </defs>
  <g id="Trabajo_Colaborativo" data-name="Trabajo Colaborativo">
    <g id="Notion">
      <g>
        <path class="cls-1" d="M87.03,33.12l227.37-16.79c27.93-2.4,35.1-.78,52.67,11.99l72.58,51.13c11.97,8.79,15.96,11.19,15.96,20.76v280.41c0,17.57-6.38,27.97-28.72,29.56l-264.03,15.99c-16.76.79-24.75-1.6-33.53-12.79l-53.45-69.5c-9.59-12.79-13.56-22.37-13.56-33.56V61.06c0-14.37,6.38-26.35,24.72-27.94Z"/>
        <path class="cls-2" d="M314.39,16.33l-227.37,16.79c-18.34,1.59-24.72,13.57-24.72,27.94v249.26c0,11.19,3.97,20.76,13.56,33.56l53.45,69.5c8.78,11.19,16.76,13.59,33.53,12.79l264.04-15.98c22.32-1.59,28.72-11.99,28.72-29.56V100.21c0-9.08-3.59-11.7-14.15-19.45l-74.39-52.45c-17.56-12.77-24.74-14.38-52.67-11.99h0ZM168.81,95.62c-21.56,1.45-26.45,1.78-38.7-8.18l-31.13-24.76c-3.16-3.21-1.57-7.2,6.4-8l218.57-15.97c18.36-1.6,27.91,4.8,35.09,10.38l37.49,27.16c1.6.81,5.59,5.59.79,5.59l-225.72,13.59-2.79.19h0ZM143.68,378.23v-238.05c0-10.4,3.19-15.19,12.75-16l259.26-15.18c8.79-.79,12.77,4.8,12.77,15.17v236.46c0,10.4-1.6,19.19-15.96,19.98l-248.09,14.38c-14.35.79-20.72-3.99-20.72-16.78h0ZM388.58,152.94c1.59,7.19,0,14.38-7.19,15.2l-11.96,2.37v175.76c-10.38,5.59-19.94,8.78-27.93,8.78-12.77,0-15.96-4-25.52-15.97l-78.2-123.03v119.03l24.74,5.6s0,14.38-19.96,14.38l-55.02,3.19c-1.6-3.21,0-11.19,5.58-12.78l14.37-3.99v-157.38l-19.94-1.61c-1.6-7.19,2.38-17.57,13.56-18.38l59.03-3.97,81.36,124.62v-110.25l-20.74-2.38c-1.6-8.81,4.78-15.2,12.75-15.98l55.06-3.21h0Z"/>
      </g>
    </g>
  </g>
</svg>