<?xml version="1.0" encoding="UTF-8"?>
<svg id="Logos_Kit_De_Herramientas" data-name="Logos Kit De Herramientas" xmlns="http://www.w3.org/2000/svg" viewBox="0 0 517.9 441.7">
  <defs>
    <style>
      .cls-1 {
        fill: #9797fc;
      }

      .cls-2 {
        fill: #00005b;
      }
    </style>
  </defs>
  <g id="Diseño_Grafico" data-name="Diseño Grafico">
    <g id="Premier">
      <g>
        <rect class="cls-2" x="54.96" y="16.86" width="407.98" height="407.98" rx="66.71" ry="66.71"/>
        <g>
          <path class="cls-1" d="M348.68,207.32l-.88,109.93-48.28-.05,1-141.83c29.41-12.39,58.62-14.62,88.91-9.84,3.27,13.7,2.8,26.03.52,39.66l-41.26,2.14Z"/>
          <path class="cls-1" d="M180.27,263.16l-1.28,54.24-52.85-.15.05-192.34c55.95,2.47,155.77-17.73,161.36,61.36,2.36,33.34-15.6,62.93-50.57,72.99-17.17,4.94-33.75,4.5-56.71,3.9ZM217.89,213.22c10.67-4.03,12.38-14.86,11.83-22.15-1.78-23.76-31.77-23-49.86-18.77-1.06,16.39-1.3,28.54-.25,43.79,12.77.54,24.84,2.2,38.28-2.87Z"/>
        </g>
      </g>
    </g>
  </g>
</svg>