<?xml version="1.0" encoding="UTF-8"?>
<svg id="Logos_Kit_De_Herramientas" data-name="Logos Kit De Herramientas" xmlns="http://www.w3.org/2000/svg" viewBox="0 0 517.9 441.7">
  <defs>
    <style>
      .cls-1 {
        fill: #863bff;
      }
    </style>
  </defs>
  <g id="Programaci_on" data-name="Programaci[on">
    <g id="Vite">
      <path class="cls-1" d="M277.15,415.71c-5.72,7.28-17.42,3.23-17.42-6.02v-88.84c0-10.78-8.73-19.51-19.5-19.51h-98.1c-7.93,0-12.56-8.97-7.93-15.42l64.49-90.29c9.23-12.91,0-30.85-15.88-30.85h-118.72c-7.93,0-12.56-8.97-7.93-15.42l83.61-117.06c1.84-2.56,4.79-4.09,7.93-4.09h249.15c7.93,0,12.56,8.97,7.93,15.42l-64.5,90.29c-9.23,12.91,0,30.85,15.88,30.85h98.1c8.14,0,12.71,9.38,7.67,15.79l-184.77,235.16-.02-.02Z"/>
    </g>
  </g>
</svg>