<?xml version="1.0" encoding="UTF-8"?>
<svg id="Logos_Kit_De_Herramientas" data-name="Logos Kit De Herramientas" xmlns="http://www.w3.org/2000/svg" viewBox="0 0 517.9 441.7">
  <defs>
    <style>
      .cls-1 {
        fill: #fff;
      }

      .cls-2 {
        fill: #21759b;
      }
    </style>
  </defs>
  <g id="Diseño_Grafico" data-name="Diseño Grafico">
    <g id="Wordpress">
      <g>
        <circle class="cls-1" cx="258.95" cy="220.85" r="201.99"/>
        <g>
          <path class="cls-2" d="M85.67,220.84c0,68.59,39.86,127.86,97.66,155.95l-82.66-226.47c-9.61,21.55-15,45.4-15,70.52Z"/>
          <path class="cls-2" d="M375.93,212.1c0-21.41-7.69-36.25-14.29-47.79-8.78-14.27-17.02-26.36-17.02-40.63,0-15.93,12.08-30.76,29.1-30.76.77,0,1.5.1,2.25.14-30.83-28.24-71.9-45.49-117.01-45.49-60.53,0-113.79,31.06-144.78,78.1,4.07.12,7.9.21,11.15.21,18.12,0,46.18-2.2,46.18-2.2,9.34-.55,10.44,13.17,1.11,14.27,0,0-9.39,1.1-19.83,1.65l63.1,187.69,37.92-113.73-27-73.97c-9.33-.55-18.17-1.65-18.17-1.65-9.34-.55-8.24-14.82,1.09-14.27,0,0,28.62,2.2,45.64,2.2,18.12,0,46.18-2.2,46.18-2.2,9.35-.55,10.45,13.17,1.11,14.27,0,0-9.41,1.1-19.83,1.65l62.62,186.27,17.28-57.76c7.49-23.97,13.19-41.18,13.19-56.01Z"/>
          <path class="cls-2" d="M261.99,236l-51.99,151.07c15.52,4.56,31.94,7.06,48.95,7.06,20.18,0,39.53-3.49,57.54-9.82-.46-.74-.89-1.53-1.23-2.39l-53.27-145.92Z"/>
          <path class="cls-2" d="M410.99,137.71c.75,5.52,1.17,11.44,1.17,17.82,0,17.58-3.28,37.35-13.18,62.06l-52.93,153.03c51.51-30.04,86.16-85.85,86.16-149.77,0-30.13-7.69-58.45-21.23-83.14Z"/>
          <path class="cls-2" d="M258.95,18.86c-111.37,0-201.99,90.61-201.99,201.98s90.61,201.99,201.99,201.99,202-90.6,202-201.99c0-111.37-90.63-201.98-202-201.98ZM258.95,413.58c-106.27,0-192.73-86.46-192.73-192.73S152.68,28.12,258.95,28.12s192.72,86.45,192.72,192.72-86.45,192.73-192.72,192.73Z"/>
        </g>
      </g>
    </g>
  </g>
</svg>