<?xml version="1.0" encoding="UTF-8"?>
<svg id="Feelp" xmlns="http://www.w3.org/2000/svg" viewBox="0 0 953.47 441.7">
  <defs>
    <style>
      .cls-1, .cls-2 {
        fill: #f7e82a;
      }

      .cls-3 {
        fill: none;
        stroke: #e31b20;
        stroke-miterlimit: 10;
      }

      .cls-4 {
        letter-spacing: .11em;
      }

      .cls-5 {
        fill: #c4930d;
        font-family: Inter-Bold, Inter;
        font-size: 26.2px;
        font-variation-settings: 'opsz' 14, 'wght' 700;
        font-weight: 700;
      }

      .cls-6 {
        fill: #fabb1e;
      }

      .cls-2 {
        opacity: .6;
      }

      .cls-7, .cls-8 {
        fill: #e31b20;
      }

      .cls-8 {
        font-family: Inter-SemiBold, Inter;
        font-size: 20.16px;
        font-variation-settings: 'opsz' 14, 'wght' 600;
        font-weight: 600;
      }

      .cls-9 {
        letter-spacing: .13em;
      }
    </style>
  </defs>
  <path class="cls-7" d="M320.97,47.55c-20.22.15-40.44.29-60.66.44-4.79.03-9.04,3.06-10.64,7.58-5.33,15.07-10.66,30.13-15.99,45.2-36.56-2.47-60.86,10.76-77.09,34.32-16.38,25.13-17.44,49.86,0,74.11,17.01,17.52,37.66,20.65,62.17,8.46,20.95-16.16,34.58-42.95,42.28-78.34,16.27,1.14,27.85-3.43,31.09-18.15.4-13.68-5.8-20.29-16.91-21.64l4.73-15.92,37.55.75c7.17-2.6,12.02-7.77,13.93-16.16,1.8-10.59-1.81-17.37-10.44-20.64ZM207.95,170.12c-5.46,10.05-13.86,16.04-18.75,13.38-4.9-2.66-4.44-12.96,1.02-23.01,5.46-10.05,22.14-22.67,27.04-20.01,4.9,2.66-3.85,19.59-9.31,29.64Z"/>
  <path class="cls-7" d="M137.12,316.86l-.1.21-.02.02-.1.19-7.16,12.41c-.23.4-.74.47-1.1.19-.77-.6-1.83-.8-2.82-.41l-1.36.51c-1.48.58-2.24,2.26-1.66,3.76l1.44,3.78,1.38,3.61c.06.15.22.22.37.17l5.31-2.03c.15-.06.32.02.37.17l2.88,7.52,1.45,3.76c.06.15-.02.32-.17.37l-5.3,2.03c-.15.06-.22.22-.17.37l4.99,13c.06.15-.02.32-.17.37l-13.53,5.19c-.15.06-.32-.02-.37-.17l-12.81-33.37.06-.02c-.94-2.55-1.19-5.24-.86-7.89.7-5.57,4.09-10.89,9.58-14.06,6.56-3.78,14.28-3.45,19.85.31Z"/>
  <path class="cls-7" d="M388.22,92.87v2.24c0,2.18,1.79,3.97,3.97,3.97h34.44v28.85h-38.42c-2.2,0-3.99,1.79-3.99,3.97v2.24c0,2.2,1.79,3.99,3.99,3.99h42.02v35.94h-51.66c-22.29,0-40.34-18.06-40.34-40.36v-40.58c0-22.5,18.23-40.75,40.75-40.75h51.25v36.51h-38.05c-2.18,0-3.97,1.79-3.97,3.97Z"/>
  <path class="cls-7" d="M193.14,307.5l.24.94c.23.92,1.02,1.52,1.74,1.34l11.43-2.88,3.05,12.13-12.75,3.21c-.73.18-1.14,1.09-.9,2l.24.94c.23.93,1.02,1.53,1.75,1.35l13.95-3.51,3.8,15.12-17.15,4.32c-7.4,1.86-15.3-4.22-17.66-13.6l-4.3-17.07c-2.38-9.46,1.74-18.66,9.21-20.54l17.01-4.28,3.86,15.35-12.63,3.18c-.72.18-1.13,1.09-.9,2Z"/>
  <path class="cls-7" d="M425.83,271.05l.03.97c.03.95.67,1.7,1.42,1.68l11.78-.39.41,12.5-13.14.43c-.75.02-1.34.82-1.31,1.77l.03.97c.03.95.67,1.71,1.42,1.69l14.37-.47.51,15.58-17.67.58c-7.62.25-14.06-7.37-14.38-17.04l-.58-17.59c-.32-9.75,5.66-17.87,13.36-18.12l17.53-.58.52,15.82-13.01.43c-.75.02-1.33.82-1.3,1.77Z"/>
  <path class="cls-7" d="M573.09,277.29l-.12.96c-.12.94.4,1.79,1.14,1.88l11.7,1.45-1.54,12.42-13.05-1.62c-.75-.09-1.45.6-1.57,1.54l-.12.96c-.12.95.4,1.79,1.14,1.89l14.27,1.77-1.92,15.47-17.55-2.18c-7.57-.94-12.74-9.47-11.55-19.07l2.17-17.46c1.2-9.68,8.37-16.77,16.02-15.82l17.41,2.16-1.95,15.71-12.92-1.6c-.74-.09-1.45.6-1.56,1.54Z"/>
  <path class="cls-7" d="M500.66,93.14v2.24c0,2.18,1.79,3.97,3.97,3.97h34.44v28.85h-38.42c-2.2,0-3.99,1.79-3.99,3.97v2.24c0,2.2,1.79,3.99,3.99,3.99h42.02v35.94h-51.66c-22.29,0-40.34-18.06-40.34-40.36v-40.58c0-22.5,18.23-40.75,40.75-40.75h51.25v36.51h-38.05c-2.18,0-3.97,1.79-3.97,3.97Z"/>
  <path class="cls-7" d="M633.5,138.26v36.1h-27.86c-22.69,0-41.1-18.41-41.1-41.12V52.39h49.23v74.26c0,6.41,5.2,11.61,11.61,11.61h8.12Z"/>
  <polygon class="cls-2" points="267.04 297.16 267.06 297.36 266.8 297.38 266.7 297.2 266.72 297.18 267.04 297.16"/>
  <polygon class="cls-1" points="267.11 297.98 266.8 297.38 266.7 297.2 266.72 297.18 267.04 297.16 267.06 297.36 267.11 297.98"/>
  <polygon class="cls-1" points="267.11 297.98 266.8 297.38 266.7 297.2 266.72 297.18 267.04 297.16 267.06 297.36 267.11 297.98"/>
  <path class="cls-7" d="M245.21,275.75l8.7,49.74,15.92-1.49-7.21-38.55s8.79-.58,8.66,3.73c-.12,4.31-5.53,5.08-5.53,5.08l1.12,6.67,10.53,21.2,18.84-2.3-13.51-21.06s21.3-39.67-37.8-23.13"/>
  <path class="cls-7" d="M635.59,267.96l-12.66,48.88,15.11,5.23,9.39-38.08s8.24,3.11,6.34,6.98c-1.9,3.87-7.14,2.33-7.14,2.33l-1.74,6.54.81,23.66,18.1,5.7-3.59-24.76s35.81-27.29-24.84-36.7"/>
  <path class="cls-7" d="M327.25,261.3l4.93,50.25,15.98-.29-4.28-38.98s8.81.08,8.36,4.37c-.45,4.29-5.9,4.65-5.9,4.65l.61,6.74,8.9,21.93,18.96-.87-11.89-22.01s24.23-37.95-35.95-25.91"/>
  <polygon class="cls-7" points="520.26 255.59 519.54 270.2 506.43 269.54 504.56 306.61 489.15 305.85 491.02 268.76 479.29 268.18 480.03 253.56 520.26 255.59"/>
  <rect class="cls-7" x="708.82" y="290.41" width="15.17" height="51.17" transform="translate(138.84 -212.69) rotate(18.67)"/>
  <path class="cls-7" d="M795.34,317.27c-9.45-5.03-21.3-1.42-26.33,8.02l-15.99,30.01,14.67,7.82,6.04-9.7,2.98,1.62,7.09-13.3-4.85-2.74s4.35-9.95,7.96-7.96c3.61,1.99,0,10.57,0,10.57l-9.08,16.04-4.84,8.3,14.38,7.66,15.99-30.01c5.03-9.45,1.42-21.3-8.02-26.33Z"/>
  <circle class="cls-3" cx="897.22" cy="361.92" r="12.56"/>
  <text class="cls-8" transform="translate(890.62 368.47)"><tspan x="0" y="0">R</tspan></text>
  <text class="cls-5" transform="translate(197.94 385.7)"><tspan class="cls-9" x="0" y="0">A SU SE</tspan><tspan class="cls-4" x="124.29" y="0">R</tspan><tspan class="cls-9" x="144.26" y="0">VICIO CON SOLUCIONES</tspan></text>
  <path class="cls-6" d="M866.32,51.11c-55.37-5.97-124.01,40.12-124.01,40.12l19.56-40.12-115.06,14.26-.08,13.59,47-2.78c-31.83,99.81-74.77,114.15-74.77,114.15l35.15,2.69c45.1-14.26,54.71-42.77,54.71-42.77,0,0,36.47,18.9,118.04-9.28,81.57-28.18,83.23-56.37,83.23-56.37,0,0,11.61-27.52-43.77-33.49ZM818.94,123.77c-12.08,6.53-20.76,10.53-40.12,12.43-21.1,2.08-52.56,1.54-55.54-3.98-5.72-10.58,48.6-33.9,73.86-47.55,25.25-13.65,50.36-16.13,56.08-5.55,5.72,10.58-9.02,31-34.28,44.64Z"/>
  <path class="cls-6" d="M42.38,345.37s33.82-62.17,89.53-89.53c55.71-27.36,122.85-45.26,122.85-45.26,0,0,60.51-16.42,175.49-26.46,114.98-10.04,260.71,13.53,260.71,13.53,0,0,51.23,7.46,139.76,48.74,0,0,48.25,25.86,58.69,70.63l-39.29,52.22s-.5-26.36-26.86-50.23c-26.36-23.87-131.31-73.61-231.78-77.59-100.47-3.98-155.93-16.41-309.24,9.45-153.32,25.86-239.86,94.5-239.86,94.5Z"/>
</svg>