<?xml version="1.0" encoding="UTF-8"?>
<svg id="prime_tech" data-name="prime tech" xmlns="http://www.w3.org/2000/svg" viewBox="0 0 953.47 441.7">
  <defs>
    <style>
      .cls-1, .cls-2 {
        fill: #fff;
      }

      .cls-3 {
        font-family: Inter-SemiBold, Inter;
        font-size: 52.86px;
        font-variation-settings: 'opsz' 14, 'wght' 600;
        font-weight: 600;
        letter-spacing: .13em;
      }

      .cls-3, .cls-4, .cls-5, .cls-6 {
        fill: #5eb2d8;
      }

      .cls-2 {
        stroke-width: 5px;
      }

      .cls-2, .cls-4, .cls-7, .cls-8, .cls-6 {
        stroke-miterlimit: 10;
      }

      .cls-2, .cls-4, .cls-6 {
        stroke: #5eb2d8;
      }

      .cls-9, .cls-7, .cls-8, .cls-10 {
        fill: #000050;
      }

      .cls-11 {
        fill: none;
      }

      .cls-4 {
        stroke-width: 2px;
      }

      .cls-7 {
        stroke-width: 3px;
      }

      .cls-7, .cls-8 {
        stroke: #000050;
      }

      .cls-6 {
        stroke-width: .25px;
      }

      .cls-10 {
        font-family: Inter-ExtraBold, Inter;
        font-size: 95.44px;
        font-variation-settings: 'opsz' 14, 'wght' 800;
        font-weight: 700;
        letter-spacing: .03em;
      }
    </style>
  </defs>
  <text class="cls-3" transform="translate(448.93 304.48)"><tspan x="0" y="0">SOLUTIONS</tspan></text>
  <text class="cls-10" transform="translate(326.41 249.48)"><tspan x="0" y="0">PRIME TECH</tspan></text>
  <g>
    <g>
      <g>
        <path class="cls-9" d="M292.23,230.84v3.3c-.59,1.56-1.5,2.06-3.13,2.17h-51.97c-1.05-.06-2.07-.24-2.72-1.15-.1-.13-.52-.99-.52-1.08v-3.25h58.34ZM267.39,232.78h-8.66v2.28h8.66v-2.28Z"/>
        <path class="cls-9" d="M289.15,229.7h-52.19v-30.71c0-2.5,2.65-4.54,5.07-4.39h42.28c2.34-.08,4.84,1.99,4.84,4.39v30.71ZM286.19,226.74v-27.75c0-.66-1.18-1.54-1.88-1.43h-42.4c-.73-.15-1.99.72-1.99,1.43v27.75h46.26Z"/>
        <rect class="cls-1" x="258.73" y="232.78" width="8.66" height="2.28"/>
        <path class="cls-2" d="M286.19,226.74h-46.26v-27.75c0-.71,1.26-1.58,1.99-1.43h42.4c.69-.11,1.88.77,1.88,1.43v27.75Z"/>
      </g>
      <g>
        <path class="cls-9" d="M248.53,252.58c-10.67,28.34-33.19,50.86-61.53,61.53v16.65c37.02-11.91,66.27-41.16,78.18-78.18h-16.65Z"/>
        <path class="cls-9" d="M187,116.8c28.34,10.67,50.86,33.19,61.53,61.53h16.65c-11.91-37.02-41.16-66.27-78.18-78.18v16.65Z"/>
        <path class="cls-9" d="M51.21,178.33c10.67-28.34,33.19-50.86,61.53-61.53v-16.65c-37.02,11.91-66.27,41.16-78.18,78.18h16.65Z"/>
        <path class="cls-9" d="M112.74,314.11c-28.34-10.67-50.86-33.19-61.53-61.53h-16.65c11.91,37.02,41.16,66.27,78.18,78.18v-16.65Z"/>
      </g>
      <g>
        <path class="cls-7" d="M22.68,239.8c-1.92-.53-2.41-1.9-2.23-3.7-1.06-.33-1.72-1.13-1.88-2.17v-41.35c.19-2.3,1.98-3.95,4.38-4.16,10.98.08,22-.17,32.97.13,2.04.47,3.47,2.13,3.57,4.13v41.25c-.17,1.04-.83,1.84-1.89,2.17.18,1.8-.31,3.17-2.23,3.7H22.68ZM57.68,199.06v-6.87c0-.79-1.65-2.22-2.58-2.06H22.74c-.85-.03-2.37,1.32-2.37,2.06v6.87h37.32ZM57.68,200.76H20.36v33.27s.45.44.55.48h36.21c.1-.04.55-.44.55-.48v-33.27ZM55.89,236.29H22.16c-.04.7-.04,1.72.89,1.81l32.29-.08c.62-.36.57-1.13.55-1.73Z"/>
        <path class="cls-5" d="M38.9,203.49c11.4-.1,18.71,11.78,13,21.22-5.42,8.97-19.06,9.53-25.15.93-6.64-9.37.32-22.04,12.15-22.15ZM38.05,205.21c-9.96.7-15.51,11.45-9.91,19.41,5.73,8.16,18.75,7.03,22.89-1.94,3.97-8.61-3.18-18.16-12.97-17.47Z"/>
        <path class="cls-9" d="M24.98,191.96c3.85.16,8.08-.32,11.89-.03.8.06,1.85.43,2.03,1.28.09.41.09,2.35,0,2.76-.12.56-.89,1.16-1.5,1.18l-12.84-.02c-.81-.28-1.27-.8-1.35-1.63-.14-1.46-.17-3.37,1.77-3.54ZM37.23,193.64h-12.23v1.91h12.23v-1.91Z"/>
        <path class="cls-5" d="M44.58,191.97c3.51-.05,3.66,4.89.4,5.18-3.93.35-4.07-5.13-.4-5.18ZM44.48,193.66c-1.18.17-1.07,1.87.16,1.85,1.33-.02,1.18-2.04-.16-1.85Z"/>
        <path class="cls-5" d="M52.06,191.97c3.68-.05,3.66,5.53-.33,5.18-3.24-.29-3.13-5.13.33-5.18ZM51.86,193.65c-1.37.27-.62,2.56.8,1.68.86-.54.25-1.88-.8-1.68Z"/>
        <path class="cls-7" d="M37.84,207.11c9.05-.83,15.39,8.38,10.79,15.9-4.27,6.98-14.95,6.98-19.22,0-4.03-6.58.46-15.16,8.43-15.9ZM38.79,208.72c-7.08.17-11.41,7.53-7.91,13.39,3.57,5.98,12.79,5.95,16.31-.07,3.52-6.02-1.15-13.5-8.4-13.32Z"/>
        <path class="cls-5" d="M44.07,219.64c-.28-.22-.43-1.9-.63-2.46-.9-2.48-2.74-3.17-5.24-3.54-1.38-.2-1.27-1.77.41-1.7,2.77.12,5.44,2.08,6.43,4.52.27.67.66,2.17.45,2.84-.15.5-.99.69-1.42.34Z"/>
      </g>
      <g>
        <path class="cls-9" d="M151.52,211.32h-27.1c-8.17.11-14.84,6.54-15.5,14.69-.04.44-.05.88-.05,1.33v56.37h29.76v-43h12.89v-29.39Z"/>
        <path class="cls-5" d="M178.15,162.91c-.19-.01-.38-.01-.57-.01h-68.65v29.76h60.75c5.14,0,9.32,4.18,9.32,9.33s-4.18,9.32-9.32,9.32h-4.51v29.39h9.78v-.05c.87.08,1.75.12,2.64.12,19.36,0,35.04-17.43,35.04-38.94s-15.38-38.59-34.47-38.93Z"/>
      </g>
    </g>
    <g>
      <path class="cls-11" d="M125.24,348.81c.43.6,1.08,1.07,1.8,1.27-.65-.57-.76-1.53-1.8-1.27Z"/>
      <polygon class="cls-11" points="158.48 301.53 158.48 305.97 162.61 305.97 158.48 301.53"/>
      <polygon class="cls-11" points="125.13 342.99 123.96 343.03 123.65 344.26 124.93 344.21 125.13 342.99"/>
      <path class="cls-11" d="M123.76,345.84c-.04.46.1.92.31,1.33l1.17.05-.31-1.33-1.17-.05Z"/>
      <path class="cls-11" d="M125.87,341.35c.21-.13.81-1.31,1.16-1.53-.89.24-1.56.9-2.12,1.58.27-.03.72.09.95-.05Z"/>
      <g>
        <polygon class="cls-11" points="125.13 342.99 123.96 343.03 123.65 344.26 124.93 344.21 125.13 342.99"/>
        <path class="cls-11" d="M125.87,341.35c.21-.13.81-1.31,1.16-1.53-.89.24-1.56.9-2.12,1.58.27-.03.72.09.95-.05Z"/>
        <polygon class="cls-11" points="158.48 301.53 158.48 305.97 162.61 305.97 158.48 301.53"/>
        <path class="cls-11" d="M125.24,348.81c.43.6,1.08,1.07,1.8,1.27-.65-.57-.76-1.53-1.8-1.27Z"/>
        <path class="cls-11" d="M123.76,345.84c-.04.46.1.92.31,1.33l1.17.05-.31-1.33-1.17-.05Z"/>
        <path class="cls-11" d="M143.82,348.17c-1.16-.11-3.63-.12-4.78,0-.67.07-.77.76-1.17,1.27-.3.38-.73.66-1,1.07h7.04c.05,0,.35-.16.42-.21.94-.62.63-2.01-.52-2.12Z"/>
        <path class="cls-11" d="M131.67,339.32c-7.36.69-6.47,11.76.92,11.28,7.39-.48,6.59-11.99-.92-11.28ZM134.01,347.57c-.3.46-.96.64-1.02.73-.18.27,0,.91-.82.91-.75,0-.63-.6-.9-.88-.17-.17-.7-.3-.94-.54-.69-.7-.21-1.79.74-1.48.47.15.8,1,1.58.43.59-1.38-1.49-1.17-2.17-2.07-.55-.74-.48-2.01.21-2.64.2-.18.65-.31.67-.34.1-.13-.04-1.03.81-1.03.7,0,.69.71.9.89.26.22,1.11.22,1.16.96.09,1.34-1.77.41-2.42.59-.39.75.77.88,1.29,1.16,1.23.67,1.69,2.08.9,3.3Z"/>
        <path class="cls-11" d="M143.71,344.05h-4.29l-.11,2.43h4.5c.48,0,1.1-.72,1.1-1.22,0-.57-.65-1.22-1.2-1.22Z"/>
        <rect class="cls-11" x="153.29" y="330.82" width="2.86" height="2.86"/>
        <rect class="cls-11" x="153.29" y="338.02" width="2.86" height="2.86"/>
        <path class="cls-11" d="M153.88,316.12h10l-.11-8.46h-6.4c-.07,0-.58-.43-.58-.48v-7.03h-19.85c-1.03,0-2.81,1.54-2.81,2.59v27.55h10.22s.58.23.68.27c1.67.82,2.13,3.22.76,4.55,1.08,1.26,1.07,2.83.02,4.11,1.08,1.22,1.03,2.79,0,4.02,0,.04.31.48.34.48h1.53v-21.84c0-2.69,3.56-5.76,6.19-5.76ZM156.44,309.37c.34-.08,2.16-.07,2.47.02.76.24.68,1.4-.17,1.53-.37.06-2.06.06-2.38-.04-.73-.23-.67-1.35.08-1.52ZM139.08,309.37l14.38-.02c1.08.12,1.04,1.48,0,1.59h-14.19c-.95-.09-1.09-1.26-.19-1.57ZM139.29,313.29c.56-.1,2.69-.11,3.09.24.32.29.3.95-.06,1.2-.43.3-2.67.32-3.2.15-.94-.29-.8-1.42.17-1.6ZM143.03,327.77c.19,1.84-1.81,1.83-1.6,0-.88.04-3.03-1.24-1.96-2.23.6-.55.78.12,1.12.36,1.48,1.1,3.59.63,3.15-1.56-.3-1.48-3.55-1.21-4.18-3.23-.5-1.59.25-3.09,1.86-3.53-.23-.84.6-1.98,1.36-1.22.25.25.25.79.25,1.12.71.14,2.28.35,1.96,1.39-.32,1.02-1.38.09-2.03,0-1.13-.15-2.35.22-2.03,1.61.28,1.21,3.37,1.07,4.13,3.07.64,1.7-.06,3.91-2.02,4.21ZM145.19,314.96c-1.21-.14-1.37-1.35-.19-1.67l13.42-.03c1.37.08,1.38,1.61,0,1.69h-13.23Z"/>
        <polygon class="cls-11" points="153.29 347.64 155.99 347.64 156.15 347.48 156.15 344.79 153.29 344.79 153.29 347.64"/>
        <path class="cls-11" d="M144.06,336.08c-4.06.08-8.5-.36-12.53-.08-1.1.08-1.43.62-1.32,1.7h2.7c.67,0,1.69.56,2.33.64,2.64.33,5.96-.24,8.68,0,1.23-.19,1.31-1.9.15-2.25Z"/>
        <path class="cls-11" d="M131.22,334.32h12.6c.23-.02.6-.2.76-.36.65-.69.23-1.92-.76-1.98h-12.6c-1.46.17-1.28,2.18,0,2.33Z"/>
        <path class="cls-11" d="M143.92,340.03h-6.4c.55.71,1.1,1.44,1.39,2.31,1.57-.08,3.36.17,4.91.02,1.51-.14,1.26-2.13.1-2.33Z"/>
        <rect class="cls-11" x="167.69" y="330.82" width="2.86" height="2.86"/>
        <path class="cls-11" d="M170.18,338.02c-.27-.05-2.08-.04-2.27.05-.05.02-.2.17-.21.21v8.78c0,.83,2.86.78,2.86.11v-8.88c0-.08-.26-.24-.37-.26Z"/>
        <polygon class="cls-11" points="163.35 340.71 163.35 338.02 160.49 338.02 160.49 340.87 163.19 340.87 163.35 340.71"/>
        <path class="cls-11" d="M170.47,317.84c-5.18.01-10.81-.47-15.96-.14-2.86.18-4.88,1.8-5.24,4.71v23.91c.23,2.58,2.22,4.51,4.82,4.71,5.05.38,10.57-.29,15.68,0,2.48-.19,4.41-2.02,4.71-4.5v-24.33c-.09-1.04-.7-2.24-1.42-2.97-.62-.63-1.71-1.21-2.58-1.38ZM157.73,347.79c-.07.52-.42,1-.89,1.23-.58.29-3,.29-3.7.2-.69-.09-1.36-.72-1.44-1.42-.08-.65-.08-2.83.05-3.45.17-.8.88-1.14,1.62-1.23.77-.1,2.41-.11,3.13.09.69.19,1.15.7,1.23,1.42.08.69.08,2.49,0,3.16ZM151.73,337.56c.14-.67.9-1.12,1.54-1.21.67-.1,2.24-.1,2.91,0,.83.12,1.46.64,1.56,1.51.08.7.08,2.36,0,3.07-.1.89-.77,1.44-1.64,1.53-.69.08-3.03.08-3.59-.23-.37-.21-.76-.77-.81-1.2-.07-.61-.09-2.91.03-3.47ZM157.74,333.84c-.07.55-.47,1.15-1,1.32-.52.17-3.08.18-3.71.1-.54-.07-1.04-.49-1.22-1-.16-.47-.18-3.14-.09-3.7.09-.59.76-1.21,1.34-1.3.63-.11,2.61-.1,3.25-.02.78.11,1.35.75,1.44,1.52.08.67.08,2.41,0,3.07ZM158.79,331.3c.07-.97.37-1.85,1.46-2.03.61-.1,2.62-.1,3.25-.02.81.11,1.35.84,1.44,1.63.07.66.07,2.19,0,2.86-.08.73-.67,1.45-1.43,1.54-.69.08-2.6.08-3.29,0-1.68-.2-1.52-2.72-1.43-3.97ZM158.79,338.38c.09-1.1.5-1.86,1.67-2.03.73-.11,2.84-.11,3.49.16.5.21.9.83.97,1.35.09.63.08,2.31,0,2.95-.1.87-.66,1.51-1.54,1.63-.68.09-3.14.09-3.68-.22-1.11-.62-1.01-2.73-.92-3.85ZM164.94,347.49c-.08.92-.59,1.6-1.55,1.73-.65.09-2.29.08-2.96,0-.52-.06-1.03-.37-1.32-.79-.45-.66-.43-3.49-.13-4.25.52-1.32,2.7-1.18,3.89-1.09.56.04,1.21.14,1.6.57.62.67.55,2.91.46,3.83ZM172.11,347.46c-.42,1.77-2.3,1.92-3.84,1.77-1.04-.1-2.02-.9-2.16-1.96-.38-2.75.24-6.33.02-9.17.26-.99.94-1.61,1.96-1.74,1.48-.18,3.61-.16,4.04,1.62l-.02,9.49ZM172.13,334.04c-.07.45-.55,1-.97,1.14-.47.15-3.15.15-3.72.07-.82-.12-1.27-.85-1.34-1.63-.06-.7-.08-2.98.19-3.52.28-.55.84-.83,1.45-.88.7-.06,2.29-.08,2.96.01.3.04.76.25.98.45.09.09.32.42.36.54.16.44.18,3.26.09,3.81ZM172.14,324.96c-.12,1.57-.95,2.74-2.6,2.9-2.74.27-5.9-.2-8.68,0-1.01,0-1.4-1.32-.31-1.59,2.79-.21,5.93.25,8.68,0,.32-.03.73-.12.97-.36.14-.14.23-.34.25-.54.08-.63.09-2.77-.01-3.38-.06-.36-.36-.66-.7-.78l-15.64-.02c-.38.06-.73.41-.79.79-.1.61-.08,2.64,0,3.28.2,1.71,3.16.7,4.27,1.02.49.14.68,1,.24,1.36-.37.3-2.8.26-3.39.21-1.1-.09-2.2-.67-2.56-1.78-.22-.68-.23-3.62-.11-4.39.14-.91,1.12-1.95,2.05-2.08l16.27.02c2.33.54,2.24,3.4,2.09,5.32Z"/>
        <polygon class="cls-11" points="160.49 347.64 163.19 347.64 163.35 347.48 163.35 344.79 160.49 344.79 160.49 347.64"/>
        <polygon class="cls-11" points="163.35 330.98 163.19 330.82 160.49 330.82 160.49 333.68 163.35 333.68 163.35 330.98"/>
        <path class="cls-9" d="M169.86,316.12h-4.29v-8.2c0-.44-.51-1.69-.76-2.1-2.67-2.43-4.92-6.83-8.71-7.37-6.19.37-12.93-.48-19.06,0-2.71.21-4.66,2.46-4.71,5.13v26.71h-1.64c-.15,0-.94.45-1.11.58-1.43,1.11-1.41,2.97-.32,4.32-.63.7-.94,1.68-.73,2.61-4.56.29-7.42,4.9-6.22,9.23.78,2.81,3.49,4.92,6.38,5.16,4.94.4,10.43-.28,15.43-.03,2.36-.4,3.27-3.09,1.7-4.89.44-.56.71-1.13.83-1.84h1.05c-.28,3.59,2.3,6.63,5.82,7.18h16.83c2.71-.32,5.36-2.86,5.69-5.58l.03-25.04c-.23-2.92-3.24-5.87-6.2-5.87ZM158.48,301.53l4.13,4.44h-4.13v-4.44ZM131.22,331.98h12.6c.99.06,1.41,1.28.76,1.98-.15.16-.52.34-.76.36h-12.6c-1.28-.15-1.46-2.16,0-2.33ZM143.92,338.33c-2.72-.24-6.03.34-8.68,0-.63-.08-1.66-.64-2.33-.64h-2.7c-.11-1.08.22-1.62,1.32-1.7,4.03-.28,8.47.16,12.53.08,1.16.35,1.09,2.06-.15,2.25ZM143.82,342.36c-1.55.14-3.34-.1-4.91-.02-.29-.87-.84-1.6-1.39-2.31h6.4c1.16.21,1.41,2.19-.1,2.33ZM127.04,339.82c-.35.22-.95,1.4-1.16,1.53-.23.14-.68.02-.95.05.56-.69,1.23-1.35,2.12-1.58ZM123.96,343.03l1.17-.05-.2,1.22-1.28.05.31-1.22ZM124.07,347.17c-.21-.41-.35-.87-.31-1.33l1.17.05.31,1.33-1.17-.05ZM125.24,348.81c1.04-.26,1.15.7,1.8,1.27-.72-.2-1.37-.67-1.8-1.27ZM132.6,350.6c-7.39.48-8.28-10.59-.92-11.28,7.52-.71,8.31,10.8.92,11.28ZM144.35,350.28c-.08.05-.37.21-.42.21h-7.04c.27-.41.7-.69,1-1.07.4-.51.5-1.2,1.17-1.27,1.15-.12,3.62-.11,4.78,0,1.15.11,1.46,1.5.52,2.12ZM143.82,346.48h-4.5l.11-2.43h4.29c.55,0,1.2.65,1.2,1.22,0,.49-.62,1.22-1.1,1.22ZM147.68,321.89v21.84h-1.53s-.34-.44-.34-.48c1.02-1.23,1.08-2.8,0-4.02,1.05-1.28,1.06-2.85-.02-4.11,1.37-1.33.91-3.73-.76-4.55-.1-.05-.64-.27-.68-.27h-10.22v-27.55c0-1.05,1.77-2.59,2.81-2.59h19.85v7.03s.51.48.58.48h6.4l.11,8.46h-10c-2.63,0-6.19,3.07-6.19,5.76ZM174.47,346.53c-.3,2.47-2.23,4.3-4.71,4.5-5.1-.29-10.62.38-15.68,0-2.59-.19-4.59-2.13-4.82-4.71v-23.91c.36-2.91,2.38-4.53,5.24-4.71,5.15-.33,10.79.15,15.96.14.88.17,1.96.75,2.58,1.38.72.73,1.33,1.94,1.42,2.97v24.33Z"/>
        <path class="cls-5" d="M140.93,320.49c-.32-1.38.91-1.75,2.03-1.61.65.08,1.71,1.02,2.03,0,.33-1.04-1.24-1.25-1.96-1.39,0-.33,0-.88-.25-1.12-.76-.75-1.6.39-1.36,1.22-1.61.44-2.36,1.94-1.86,3.53.63,2.01,3.88,1.74,4.18,3.23.45,2.19-1.67,2.65-3.15,1.56-.33-.25-.52-.91-1.12-.36-1.08.99,1.07,2.27,1.96,2.23-.21,1.84,1.79,1.85,1.6,0,1.96-.3,2.66-2.5,2.02-4.21-.75-2-3.85-1.86-4.13-3.07Z"/>
        <path class="cls-5" d="M158.43,313.27l-13.42.03c-1.19.31-1.02,1.53.19,1.67h13.23c1.38-.09,1.37-1.61,0-1.69Z"/>
        <path class="cls-5" d="M139.26,310.94h14.19c1.04-.11,1.08-1.47,0-1.59l-14.38.02c-.91.31-.76,1.48.19,1.57Z"/>
        <path class="cls-5" d="M142.32,314.73c.36-.25.39-.91.06-1.2-.4-.36-2.53-.34-3.09-.24-.96.17-1.11,1.31-.17,1.6.53.16,2.76.15,3.2-.15Z"/>
        <path class="cls-5" d="M156.36,310.89c.32.1,2.01.1,2.38.04.85-.13.93-1.3.17-1.53-.31-.1-2.13-.1-2.47-.02-.75.17-.81,1.29-.08,1.52Z"/>
        <path class="cls-9" d="M170.05,319.64l-16.27-.02c-.93.13-1.9,1.17-2.05,2.08-.12.76-.11,3.71.11,4.39.36,1.11,1.46,1.69,2.56,1.78.6.05,3.02.09,3.39-.21.44-.36.26-1.21-.24-1.36-1.1-.32-4.06.69-4.27-1.02-.07-.63-.09-2.67,0-3.28.06-.38.42-.73.79-.79l15.64.02c.34.11.65.41.7.78.1.61.09,2.75.01,3.38-.02.2-.11.4-.25.54-.23.24-.64.33-.97.36-2.75.26-5.89-.21-8.68,0-1.09.27-.7,1.59.31,1.59,2.79-.21,5.94.26,8.68,0,1.65-.16,2.48-1.33,2.6-2.9.15-1.92.24-4.78-2.09-5.32Z"/>
        <path class="cls-5" d="M168.09,336.35c-1.02.13-1.7.75-1.96,1.74.22,2.84-.39,6.41-.02,9.17.15,1.07,1.12,1.86,2.16,1.96,1.54.15,3.42,0,3.84-1.77l.02-9.49c-.43-1.77-2.56-1.8-4.04-1.62ZM170.55,347.17c0,.68-2.86.73-2.86-.11v-8.78s.16-.19.21-.21c.19-.09,2-.1,2.27-.05.12.02.37.18.37.26v8.88Z"/>
        <path class="cls-5" d="M159.71,342.23c.55.3,3,.31,3.68.22.89-.12,1.45-.76,1.54-1.63.07-.65.08-2.32,0-2.95-.07-.53-.47-1.15-.97-1.35-.65-.27-2.75-.27-3.49-.16-1.17.17-1.59.93-1.67,2.03-.09,1.12-.19,3.23.92,3.85ZM160.49,338.02h2.86v2.7l-.16.16h-2.7v-2.86Z"/>
        <path class="cls-5" d="M162.88,343.09c-1.19-.09-3.37-.23-3.89,1.09-.3.77-.32,3.59.13,4.25.29.43.8.74,1.32.79.66.07,2.31.08,2.96,0,.96-.13,1.47-.81,1.55-1.73.08-.92.15-3.16-.46-3.83-.39-.43-1.04-.53-1.6-.57ZM163.35,347.48l-.16.16h-2.7v-2.86h2.86v2.7Z"/>
        <path class="cls-5" d="M156.51,343.21c-.73-.2-2.36-.18-3.13-.09-.75.09-1.46.43-1.62,1.23-.13.61-.13,2.79-.05,3.45.08.7.76,1.32,1.44,1.42.7.1,3.13.09,3.7-.2.47-.23.82-.71.89-1.23.09-.67.09-2.48,0-3.16-.08-.72-.54-1.23-1.23-1.42ZM156.15,347.48l-.16.16h-2.7v-2.86h2.86v2.7Z"/>
        <path class="cls-5" d="M152.51,342.23c.55.3,2.89.3,3.59.23.87-.1,1.55-.65,1.64-1.53.08-.71.08-2.36,0-3.07-.1-.86-.73-1.39-1.56-1.51-.67-.1-2.24-.1-2.91,0-.64.09-1.4.54-1.54,1.21-.11.56-.1,2.86-.03,3.47.05.43.44.99.81,1.2ZM153.29,338.02h2.86v2.86h-2.86v-2.86Z"/>
        <path class="cls-5" d="M160.22,335.27c.69.08,2.6.08,3.29,0,.76-.09,1.35-.8,1.43-1.54.07-.67.07-2.19,0-2.86-.09-.79-.63-1.51-1.44-1.63-.62-.09-2.64-.09-3.25.02-1.09.19-1.39,1.06-1.46,2.03-.09,1.25-.25,3.77,1.43,3.97ZM160.49,330.82h2.7l.16.16v2.7h-2.86v-2.86Z"/>
        <path class="cls-5" d="M171.68,329.7c-.22-.2-.68-.41-.98-.45-.67-.09-2.26-.08-2.96-.01-.6.05-1.16.33-1.45.88-.28.54-.26,2.82-.19,3.52.07.78.52,1.51,1.34,1.63.57.08,3.25.08,3.72-.07.43-.14.91-.69.97-1.14.08-.55.07-3.36-.09-3.81-.04-.12-.27-.45-.36-.54ZM170.55,333.68h-2.86v-2.86h2.86v2.86Z"/>
        <path class="cls-5" d="M156.3,329.25c-.64-.09-2.62-.09-3.25.02-.58.1-1.25.72-1.34,1.3-.09.56-.07,3.23.09,3.7.18.51.68.94,1.22,1,.63.08,3.19.07,3.71-.1.53-.18.94-.78,1-1.32.08-.66.07-2.4,0-3.07-.09-.77-.66-1.42-1.44-1.52ZM156.15,333.68h-2.86v-2.86h2.86v2.86Z"/>
        <path class="cls-5" d="M133.11,344.27c-.53-.29-1.68-.41-1.29-1.16.65-.18,2.51.75,2.42-.59-.05-.74-.9-.74-1.16-.96-.21-.17-.2-.89-.9-.89-.85,0-.71.91-.81,1.03-.02.03-.47.15-.67.34-.68.63-.76,1.9-.21,2.64.67.91,2.75.7,2.17,2.07-.78.57-1.12-.28-1.58-.43-.95-.31-1.42.78-.74,1.48.24.24.77.37.94.54.27.28.15.88.9.88.82,0,.63-.65.82-.91.06-.09.72-.27,1.02-.73.8-1.22.33-2.63-.9-3.3Z"/>
      </g>
    </g>
    <g>
      <path class="cls-8" d="M177.75,93.23v12.1c-.47,2.27-2.19,3.91-4.51,4.14-15.37-.1-30.78.21-46.12-.16-1.73-.4-3.15-1.81-3.58-3.54-.04-3.87-.41-8.21-.14-12.07.18-2.56,2.15-4.49,4.72-4.62h45.11c2.14.12,4.24,2.02,4.51,4.14ZM172.02,107.77c1.89.25,3.56-.59,4.02-2.5v-11.97c-.31-1.39-1.46-2.45-2.9-2.51h-45.22c-1.35.12-2.38,1.06-2.76,2.33l-.04,12.15c.46,1.91,2.13,2.76,4.02,2.5-.16-2.08.81-3.96,2.93-4.45l37.28.06c1.97.6,2.81,2.41,2.67,4.39ZM170.32,107.77c.17-1.36-.26-2.65-1.75-2.87h-35.77c-1.66.12-2.12,1.36-1.96,2.87h39.48Z"/>
      <path class="cls-4" d="M140.81,117.22c.83-.11,2.33-1.78,3.08-1.01,1.06,1.08-1.42,2.03-2.13,2.39-.04.05-.01.15.07.22.53.48,3.18,1.24,2.06,2.38-.76.78-2.25-.85-3.08-1.01v2.6c0,.73-1.59.65-1.59,0v-2.6c-.88.17-2.43,1.89-3.24,1.17-1.3-1.16,1.65-2.02,2.17-2.5.1-.09.14-.11.11-.26-.66-.42-3.44-1.38-2.34-2.5.8-.82,2.42.99,3.29,1.12v-2.81c0-.21.47-.56.7-.58.26-.03.89.28.89.48v2.92Z"/>
      <path class="cls-6" d="M156.7,110.66c.78-.17,1.4.77,1.77,1.37.76,1.22,1.1,2.52.78,3.94-.67,2.98-4.21,3.68-2.78,7.4.24.64,1.22,1.75,1.28,2.12.13.75-.8,1.24-1.45.7-1.21-1-1.94-3.57-1.78-5.09.36-3.36,4.98-4.58,2.47-8.33-.23-.35-.86-.89-.89-1.24-.04-.39.22-.79.61-.87Z"/>
      <path class="cls-6" d="M151.72,113.63c.61-.14.84.13,1.2.56.82,1,1.09,2.27.63,3.49-.55,1.46-2.07,1.77-1.61,3.66.19.79,1.31,1.42.67,2.2-.68.84-1.53-.23-1.85-.81-.64-1.13-.81-2.32-.26-3.53.56-1.24,1.98-1.72,1.51-3.34-.15-.51-.86-.97-.87-1.45,0-.34.26-.7.59-.78Z"/>
      <path class="cls-6" d="M160.95,113.63c.62-.14.94.22,1.3.67.8,1.01,1,2.37.48,3.55-.63,1.41-2.21,1.73-1.46,3.69.24.62,1.24,1.39.51,2.04s-1.37-.23-1.73-.82c-.81-1.33-.85-2.61-.08-3.96.63-1.1,1.93-1.58,1.21-3.12-.17-.37-.66-.72-.73-1.08-.07-.41.04-.87.5-.98Z"/>
      <path class="cls-5" d="M169.02,94.74c4.16-.6,4.31,5.95-.02,5.38-2.92-.39-2.93-4.95.02-5.38ZM170.28,96.66c-1.06-1.04-2.68.68-1.45,1.61s2.31-.78,1.45-1.61Z"/>
    </g>
  </g>
</svg>